RecursiveSans-StrictMediumItalic.ufo
<glyph name="exclam" format="1">
  <advance width="350"/>
  <unicode hex="0021"/>
  <outline>
    <contour>
      <point x="212" y="264" type="line"/>
      <point x="240" y="343"/>
      <point x="268" y="423"/>
      <point x="296" y="502" type="curve"/>
      <point x="342" y="689" type="line" smooth="yes"/>
      <point x="344" y="696"/>
      <point x="341" y="700"/>
      <point x="335" y="700" type="curve" smooth="yes"/>
      <point x="289" y="700"/>
      <point x="252" y="700"/>
      <point x="222" y="700" type="curve"/>
      <point x="212" y="662"/>
      <point x="204" y="627"/>
      <point x="194" y="590" type="curve" smooth="yes"/>
      <point x="172" y="502" type="line"/>
      <point x="137" y="276"/>
      <point x="137" y="271"/>
      <point x="140" y="267" type="curve" smooth="yes"/>
      <point x="142" y="265"/>
      <point x="143" y="264"/>
      <point x="147" y="264" type="curve"/>
    </contour>
    <contour>
      <point x="187" y="-7" type="curve"/>
      <point x="224" y="140" type="line" smooth="yes"/>
      <point x="225" y="146"/>
      <point x="222" y="151"/>
      <point x="216" y="151" type="curve" smooth="yes"/>
      <point x="170" y="151"/>
      <point x="112" y="151"/>
      <point x="66" y="151" type="curve"/>
      <point x="29" y="4" type="line" smooth="yes"/>
      <point x="27" y="-2"/>
      <point x="31" y="-7"/>
      <point x="37" y="-7" type="curve" smooth="yes"/>
      <point x="83" y="-7"/>
      <point x="141" y="-7"/>
    </contour>
  </outline>
</glyph>
<glyph name="quotedbl" format="1">
  <advance width="600"/>
  <unicode hex="0022"/>
  <outline>
    <contour>
      <point x="274" y="450" type="curve"/>
      <point x="368" y="737" type="line" smooth="yes"/>
      <point x="372" y="746"/>
      <point x="368" y="750"/>
      <point x="362" y="750" type="curve" smooth="yes"/>
      <point x="324" y="750"/>
      <point x="281" y="750"/>
      <point x="234" y="750" type="curve"/>
      <point x="228" y="714"/>
      <point x="222" y="683"/>
      <point x="216" y="648" type="curve" smooth="yes"/>
      <point x="184" y="461" type="line" smooth="yes"/>
      <point x="184" y="454"/>
      <point x="188" y="450"/>
      <point x="194" y="450" type="curve" smooth="yes"/>
      <point x="221" y="450"/>
      <point x="247" y="450"/>
    </contour>
    <contour>
      <point x="509" y="450" type="curve"/>
      <point x="604" y="737" type="line" smooth="yes"/>
      <point x="607" y="746"/>
      <point x="603" y="750"/>
      <point x="597" y="750" type="curve" smooth="yes"/>
      <point x="559" y="750"/>
      <point x="516" y="750"/>
      <point x="469" y="750" type="curve"/>
      <point x="420" y="461" type="line"/>
      <point x="419" y="454"/>
      <point x="423" y="450"/>
      <point x="429" y="450" type="curve" smooth="yes"/>
      <point x="456" y="450"/>
      <point x="482" y="450"/>
    </contour>
  </outline>
</glyph>
<glyph name="numbersign" format="1">
  <advance width="600"/>
  <unicode hex="0023"/>
  <outline>
    <contour>
      <point x="333" y="720" type="curve"/>
      <point x="223" y="474"/>
      <point x="111" y="226"/>
      <point x="0" y="-20" type="curve"/>
      <point x="24" y="-20"/>
      <point x="48" y="-20"/>
      <point x="71" y="-20" type="curve"/>
      <point x="78" y="-20"/>
      <point x="84" y="-19"/>
      <point x="88" y="-9" type="curve" smooth="yes"/>
      <point x="196" y="230"/>
      <point x="305" y="470"/>
      <point x="412" y="709" type="curve" smooth="yes"/>
      <point x="416" y="718"/>
      <point x="412" y="720"/>
      <point x="405" y="720" type="curve" smooth="yes"/>
      <point x="382" y="720"/>
      <point x="357" y="720"/>
    </contour>
    <contour>
      <point x="556" y="720" type="curve"/>
      <point x="446" y="474"/>
      <point x="334" y="226"/>
      <point x="223" y="-20" type="curve"/>
      <point x="246" y="-20"/>
      <point x="272" y="-20"/>
      <point x="294" y="-20" type="curve"/>
      <point x="301" y="-20"/>
      <point x="306" y="-19"/>
      <point x="311" y="-9" type="curve" smooth="yes"/>
      <point x="419" y="230"/>
      <point x="528" y="470"/>
      <point x="635" y="709" type="curve" smooth="yes"/>
      <point x="639" y="718"/>
      <point x="635" y="720"/>
      <point x="628" y="720" type="curve" smooth="yes"/>
      <point x="606" y="720"/>
      <point x="578" y="720"/>
    </contour>
    <contour>
      <point x="625" y="443" type="line"/>
      <point x="628" y="456"/>
      <point x="639" y="500"/>
      <point x="643" y="513" type="curve" smooth="yes"/>
      <point x="643" y="516"/>
      <point x="643" y="519"/>
      <point x="642" y="521" type="curve" smooth="yes"/>
      <point x="640" y="523"/>
      <point x="637" y="524"/>
      <point x="634" y="524" type="curve"/>
      <point x="125" y="524" type="line"/>
      <point x="122" y="511"/>
      <point x="111" y="467"/>
      <point x="108" y="454" type="curve" smooth="yes"/>
      <point x="106" y="448"/>
      <point x="110" y="443"/>
      <point x="116" y="443" type="curve"/>
    </contour>
    <contour>
      <point x="17" y="252" type="line"/>
      <point x="14" y="239"/>
      <point x="4" y="200"/>
      <point x="1" y="187" type="curve" smooth="yes"/>
      <point x="0" y="184"/>
      <point x="1" y="181"/>
      <point x="2" y="179" type="curve" smooth="yes"/>
      <point x="4" y="177"/>
      <point x="6" y="176"/>
      <point x="9" y="176" type="curve"/>
      <point x="518" y="176" type="line"/>
      <point x="522" y="189"/>
      <point x="531" y="228"/>
      <point x="535" y="241" type="curve" smooth="yes"/>
      <point x="536" y="247"/>
      <point x="532" y="252"/>
      <point x="526" y="252" type="curve"/>
    </contour>
  </outline>
</glyph>
<glyph name="percent" format="1">
  <advance width="600"/>
  <unicode hex="0025"/>
  <outline>
    <contour>
      <point x="266" y="641" type="curve"/>
      <point x="318" y="641"/>
      <point x="335" y="610"/>
      <point x="322" y="558" type="curve" smooth="yes"/>
      <point x="311" y="515" type="line" smooth="yes"/>
      <point x="298" y="460"/>
      <point x="264" y="427"/>
      <point x="214" y="427" type="curve" smooth="yes"/>
      <point x="177" y="427"/>
      <point x="161" y="430"/>
      <point x="138" y="441" type="curve"/>
      <point x="112" y="397"/>
      <point x="144" y="358"/>
      <point x="194" y="358" type="curve" smooth="yes"/>
      <point x="289" y="358"/>
      <point x="363" y="419"/>
      <point x="386" y="512" type="curve" smooth="yes"/>
      <point x="398" y="559" type="line" smooth="yes"/>
      <point x="421" y="651"/>
      <point x="379" y="710"/>
      <point x="286" y="710" type="curve" smooth="yes"/>
      <point x="271" y="710"/>
      <point x="265" y="696"/>
    </contour>
    <contour>
      <point x="214" y="427" type="curve"/>
      <point x="162" y="427"/>
      <point x="145" y="458"/>
      <point x="159" y="510" type="curve" smooth="yes"/>
      <point x="169" y="553" type="line" smooth="yes"/>
      <point x="183" y="608"/>
      <point x="216" y="641"/>
      <point x="266" y="641" type="curve" smooth="yes"/>
      <point x="304" y="641"/>
      <point x="319" y="638"/>
      <point x="343" y="627" type="curve"/>
      <point x="368" y="671"/>
      <point x="337" y="710"/>
      <point x="286" y="710" type="curve" smooth="yes"/>
      <point x="192" y="710"/>
      <point x="118" y="649"/>
      <point x="95" y="556" type="curve" smooth="yes"/>
      <point x="83" y="509" type="line" smooth="yes"/>
      <point x="60" y="417"/>
      <point x="102" y="358"/>
      <point x="194" y="358" type="curve" smooth="yes"/>
      <point x="210" y="358"/>
      <point x="216" y="372"/>
    </contour>
    <contour>
      <point x="427" y="273" type="curve"/>
      <point x="479" y="273"/>
      <point x="496" y="242"/>
      <point x="483" y="190" type="curve" smooth="yes"/>
      <point x="473" y="147" type="line" smooth="yes"/>
      <point x="459" y="92"/>
      <point x="425" y="59"/>
      <point x="376" y="59" type="curve" smooth="yes"/>
      <point x="338" y="59"/>
      <point x="322" y="62"/>
      <point x="299" y="73" type="curve"/>
      <point x="274" y="29"/>
      <point x="305" y="-10"/>
      <point x="356" y="-10" type="curve" smooth="yes"/>
      <point x="450" y="-10"/>
      <point x="524" y="51"/>
      <point x="547" y="144" type="curve" smooth="yes"/>
      <point x="559" y="191" type="line" smooth="yes"/>
      <point x="582" y="283"/>
      <point x="540" y="342"/>
      <point x="447" y="342" type="curve" smooth="yes"/>
      <point x="432" y="342"/>
      <point x="426" y="328"/>
    </contour>
    <contour>
      <point x="376" y="59" type="curve"/>
      <point x="324" y="59"/>
      <point x="307" y="90"/>
      <point x="320" y="142" type="curve" smooth="yes"/>
      <point x="330" y="185" type="line" smooth="yes"/>
      <point x="344" y="240"/>
      <point x="378" y="273"/>
      <point x="427" y="273" type="curve" smooth="yes"/>
      <point x="465" y="273"/>
      <point x="481" y="270"/>
      <point x="504" y="259" type="curve"/>
      <point x="529" y="303"/>
      <point x="498" y="342"/>
      <point x="447" y="342" type="curve" smooth="yes"/>
      <point x="353" y="342"/>
      <point x="279" y="281"/>
      <point x="256" y="188" type="curve" smooth="yes"/>
      <point x="244" y="141" type="line" smooth="yes"/>
      <point x="221" y="49"/>
      <point x="263" y="-10"/>
      <point x="356" y="-10" type="curve" smooth="yes"/>
      <point x="371" y="-10"/>
      <point x="377" y="4"/>
    </contour>
    <contour>
      <point x="399" y="405" type="curve"/>
      <point x="418" y="405"/>
      <point x="438" y="405"/>
      <point x="464" y="405" type="curve" smooth="yes"/>
      <point x="469" y="405"/>
      <point x="472" y="406"/>
      <point x="476" y="412" type="curve" smooth="yes"/>
      <point x="545" y="507"/>
      <point x="615" y="602"/>
      <point x="684" y="697" type="curve" smooth="yes"/>
      <point x="690" y="705"/>
      <point x="688" y="710"/>
      <point x="680" y="710" type="curve" smooth="yes"/>
      <point x="646" y="710"/>
      <point x="621" y="710"/>
      <point x="582" y="710" type="curve"/>
      <point x="521" y="608"/>
      <point x="460" y="507"/>
    </contour>
    <contour>
      <point x="243" y="296" type="curve"/>
      <point x="224" y="296"/>
      <point x="204" y="296"/>
      <point x="178" y="296" type="curve" smooth="yes"/>
      <point x="173" y="296"/>
      <point x="170" y="295"/>
      <point x="166" y="289" type="curve" smooth="yes"/>
      <point x="97" y="194"/>
      <point x="27" y="99"/>
      <point x="-42" y="4" type="curve" smooth="yes"/>
      <point x="-48" y="-4"/>
      <point x="-46" y="-9"/>
      <point x="-38" y="-9" type="curve" smooth="yes"/>
      <point x="-4" y="-9"/>
      <point x="21" y="-9"/>
      <point x="60" y="-9" type="curve"/>
      <point x="121" y="93"/>
      <point x="182" y="194"/>
    </contour>
  </outline>
</glyph>
<glyph name="quotesingle" format="1">
  <advance width="250"/>
  <unicode hex="0027"/>
  <outline>
    <contour>
      <point x="219" y="450" type="curve"/>
      <point x="314" y="737" type="line" smooth="yes"/>
      <point x="317" y="746"/>
      <point x="313" y="750"/>
      <point x="307" y="750" type="curve" smooth="yes"/>
      <point x="267" y="750"/>
      <point x="223" y="750"/>
      <point x="174" y="750" type="curve"/>
      <point x="168" y="714"/>
      <point x="163" y="683"/>
      <point x="157" y="648" type="curve" smooth="yes"/>
      <point x="125" y="461" type="line" smooth="yes"/>
      <point x="124" y="454"/>
      <point x="128" y="450"/>
      <point x="134" y="450" type="curve" smooth="yes"/>
      <point x="163" y="450"/>
      <point x="191" y="450"/>
    </contour>
  </outline>
</glyph>
<glyph name="parenleft" format="1">
  <advance width="400"/>
  <unicode hex="0028"/>
  <outline>
    <contour>
      <point x="393" y="747" type="curve" smooth="yes"/>
      <point x="246" y="629"/>
      <point x="154" y="482"/>
      <point x="111" y="313" type="curve" smooth="yes"/>
      <point x="109" y="305" type="line" smooth="yes"/>
      <point x="67" y="135"/>
      <point x="86" y="-12"/>
      <point x="174" y="-130" type="curve" smooth="yes"/>
      <point x="178" y="-136"/>
      <point x="184" y="-138"/>
      <point x="192" y="-138" type="curve" smooth="yes"/>
      <point x="227" y="-138"/>
      <point x="254" y="-138"/>
      <point x="291" y="-138" type="curve"/>
      <point x="295" y="-122" type="line"/>
      <point x="197" y="-4"/>
      <point x="169" y="141"/>
      <point x="210" y="305" type="curve" smooth="yes"/>
      <point x="212" y="313" type="line" smooth="yes"/>
      <point x="253" y="476"/>
      <point x="353" y="621"/>
      <point x="510" y="739" type="curve"/>
      <point x="514" y="755" type="line"/>
      <point x="477" y="755"/>
      <point x="450" y="755"/>
      <point x="415" y="755" type="curve" smooth="yes"/>
      <point x="408" y="755"/>
      <point x="401" y="754"/>
    </contour>
  </outline>
</glyph>
<glyph name="parenright" format="1">
  <advance width="400"/>
  <unicode hex="0029"/>
  <outline>
    <contour>
      <point x="28" y="-130" type="curve" smooth="yes"/>
      <point x="175" y="-12"/>
      <point x="267" y="135"/>
      <point x="310" y="305" type="curve" smooth="yes"/>
      <point x="312" y="313" type="line" smooth="yes"/>
      <point x="354" y="482"/>
      <point x="336" y="629"/>
      <point x="247" y="747" type="curve" smooth="yes"/>
      <point x="243" y="754"/>
      <point x="237" y="755"/>
      <point x="229" y="755" type="curve" smooth="yes"/>
      <point x="195" y="755"/>
      <point x="167" y="755"/>
      <point x="130" y="755" type="curve"/>
      <point x="126" y="739" type="line"/>
      <point x="224" y="621"/>
      <point x="252" y="476"/>
      <point x="211" y="313" type="curve" smooth="yes"/>
      <point x="209" y="305" type="line" smooth="yes"/>
      <point x="168" y="141"/>
      <point x="68" y="-4"/>
      <point x="-89" y="-122" type="curve"/>
      <point x="-93" y="-138" type="line"/>
      <point x="-56" y="-138"/>
      <point x="-29" y="-138"/>
      <point x="6" y="-138" type="curve" smooth="yes"/>
      <point x="13" y="-138"/>
      <point x="20" y="-136"/>
    </contour>
  </outline>
</glyph>
<glyph name="asterisk" format="1">
  <advance width="500"/>
  <unicode hex="002A"/>
  <outline>
    <contour>
      <point x="334" y="769" type="curve"/>
      <point x="331" y="743"/>
      <point x="329" y="718"/>
      <point x="326" y="691" type="curve" smooth="yes"/>
      <point x="311" y="562" type="line"/>
      <point x="234" y="363" type="line" smooth="yes"/>
      <point x="232" y="358"/>
      <point x="233" y="355"/>
      <point x="239" y="355" type="curve"/>
      <point x="264" y="355"/>
      <point x="289" y="355"/>
      <point x="314" y="355" type="curve"/>
      <point x="317" y="380"/>
      <point x="319" y="406"/>
      <point x="322" y="431" type="curve" smooth="yes"/>
      <point x="337" y="562" type="line"/>
      <point x="415" y="761" type="line" smooth="yes"/>
      <point x="416" y="766"/>
      <point x="415" y="769"/>
      <point x="410" y="769" type="curve" smooth="yes"/>
      <point x="385" y="769"/>
      <point x="359" y="769"/>
    </contour>
    <contour>
      <point x="517" y="702" type="curve"/>
      <point x="321" y="573" type="line"/>
      <point x="115" y="499" type="line" smooth="yes"/>
      <point x="110" y="496"/>
      <point x="108" y="492"/>
      <point x="109" y="487" type="curve"/>
      <point x="117" y="464"/>
      <point x="124" y="444"/>
      <point x="131" y="422" type="curve"/>
      <point x="328" y="550" type="line"/>
      <point x="533" y="625" type="line" smooth="yes"/>
      <point x="538" y="627"/>
      <point x="541" y="632"/>
      <point x="538" y="637" type="curve" smooth="yes"/>
      <point x="532" y="658"/>
      <point x="524" y="679"/>
    </contour>
    <contour>
      <point x="507" y="495" type="curve"/>
      <point x="334" y="573" type="line"/>
      <point x="207" y="698" type="line" smooth="yes"/>
      <point x="203" y="700"/>
      <point x="199" y="699"/>
      <point x="194" y="695" type="curve"/>
      <point x="176" y="672"/>
      <point x="158" y="651"/>
      <point x="140" y="629" type="curve"/>
      <point x="315" y="550" type="line"/>
      <point x="442" y="427" type="line" smooth="yes"/>
      <point x="446" y="424"/>
      <point x="450" y="424"/>
      <point x="454" y="430" type="curve"/>
      <point x="472" y="452"/>
      <point x="490" y="473"/>
    </contour>
  </outline>
</glyph>
<glyph name="plus" format="1">
  <advance width="600"/>
  <unicode hex="002B"/>
  <outline>
    <contour>
      <point x="89" y="349" type="line"/>
      <point x="82" y="320"/>
      <point x="74" y="291"/>
      <point x="67" y="262" type="curve" smooth="yes"/>
      <point x="66" y="259"/>
      <point x="67" y="256"/>
      <point x="68" y="254" type="curve" smooth="yes"/>
      <point x="70" y="252"/>
      <point x="72" y="251"/>
      <point x="75" y="251" type="curve"/>
      <point x="528" y="251" type="line"/>
      <point x="535" y="280"/>
      <point x="542" y="309"/>
      <point x="550" y="338" type="curve" smooth="yes"/>
      <point x="551" y="344"/>
      <point x="547" y="349"/>
      <point x="541" y="349" type="curve"/>
    </contour>
    <contour>
      <point x="300" y="69" type="curve"/>
      <point x="413" y="521" type="line" smooth="yes"/>
      <point x="414" y="524"/>
      <point x="413" y="527"/>
      <point x="412" y="529" type="curve" smooth="yes"/>
      <point x="410" y="531"/>
      <point x="408" y="532"/>
      <point x="405" y="532" type="curve" smooth="yes"/>
      <point x="376" y="532"/>
      <point x="350" y="532"/>
      <point x="317" y="532" type="curve"/>
      <point x="312" y="510"/>
      <point x="303" y="475"/>
      <point x="292" y="433" type="curve" smooth="yes"/>
      <point x="204" y="80" type="line" smooth="yes"/>
      <point x="203" y="74"/>
      <point x="206" y="69"/>
      <point x="212" y="69" type="curve" smooth="yes"/>
      <point x="243" y="69"/>
      <point x="269" y="69"/>
    </contour>
  </outline>
</glyph>
<glyph name="comma" format="1">
  <advance width="350"/>
  <unicode hex="002C"/>
  <outline>
    <contour>
      <point x="40" y="-190" type="curve" smooth="yes"/>
      <point x="45" y="-190"/>
      <point x="49" y="-189"/>
      <point x="52" y="-183" type="curve"/>
      <point x="118" y="-82"/>
      <point x="190" y="28"/>
      <point x="250" y="118" type="curve"/>
      <point x="255" y="126"/>
      <point x="253" y="131"/>
      <point x="245" y="131" type="curve" smooth="yes"/>
      <point x="192" y="131"/>
      <point x="162" y="131"/>
      <point x="100" y="131" type="curve"/>
      <point x="50" y="24"/>
      <point x="-1" y="-83"/>
      <point x="-52" y="-190" type="curve"/>
      <point x="-27" y="-190"/>
      <point x="0" y="-190"/>
    </contour>
  </outline>
</glyph>
<glyph name="hyphen" format="1">
  <advance width="600"/>
  <unicode hex="002D"/>
  <outline>
    <contour>
      <point x="138" y="347" type="line"/>
      <point x="131" y="318"/>
      <point x="125" y="292"/>
      <point x="117" y="263" type="curve" smooth="yes"/>
      <point x="117" y="260"/>
      <point x="117" y="257"/>
      <point x="118" y="255" type="curve" smooth="yes"/>
      <point x="120" y="253"/>
      <point x="123" y="252"/>
      <point x="126" y="252" type="curve"/>
      <point x="478" y="252" type="line"/>
      <point x="485" y="281"/>
      <point x="492" y="307"/>
      <point x="499" y="336" type="curve" smooth="yes"/>
      <point x="501" y="342"/>
      <point x="497" y="347"/>
      <point x="491" y="347" type="curve"/>
    </contour>
  </outline>
</glyph>
<glyph name="period" format="1">
  <advance width="300"/>
  <unicode hex="002E"/>
  <outline>
    <contour>
      <point x="162" y="-7" type="curve"/>
      <point x="199" y="140" type="line" smooth="yes"/>
      <point x="200" y="146"/>
      <point x="197" y="151"/>
      <point x="191" y="151" type="curve" smooth="yes"/>
      <point x="145" y="151"/>
      <point x="87" y="151"/>
      <point x="41" y="151" type="curve"/>
      <point x="4" y="4" type="line" smooth="yes"/>
      <point x="2" y="-2"/>
      <point x="6" y="-7"/>
      <point x="12" y="-7" type="curve" smooth="yes"/>
      <point x="58" y="-7"/>
      <point x="116" y="-7"/>
    </contour>
  </outline>
</glyph>
<glyph name="zero" format="1">
  <advance width="600"/>
  <unicode hex="0030"/>
  <outline>
    <contour>
      <point x="392" y="720" type="curve" smooth="yes"/>
      <point x="255" y="720"/>
      <point x="157" y="643"/>
      <point x="113" y="467" type="curve" smooth="yes"/>
      <point x="64" y="269" type="line" smooth="yes"/>
      <point x="19" y="89"/>
      <point x="106" y="-20"/>
      <point x="248" y="-20" type="curve"/>
      <point x="253" y="-20"/>
      <point x="260" y="-10"/>
      <point x="260" y="69" type="curve"/>
      <point x="172" y="69"/>
      <point x="128" y="128"/>
      <point x="162" y="266" type="curve" smooth="yes"/>
      <point x="209" y="458" type="line" smooth="yes"/>
      <point x="240" y="587"/>
      <point x="298" y="631"/>
      <point x="381" y="631" type="curve" smooth="yes"/>
      <point x="422" y="631"/>
      <point x="464" y="631"/>
      <point x="492" y="631" type="curve"/>
      <point x="504" y="681"/>
      <point x="464" y="720"/>
    </contour>
    <contour>
      <point x="248" y="-20" type="curve" smooth="yes"/>
      <point x="386" y="-20"/>
      <point x="483" y="55"/>
      <point x="527" y="232" type="curve" smooth="yes"/>
      <point x="577" y="431" type="line" smooth="yes"/>
      <point x="621" y="611"/>
      <point x="535" y="720"/>
      <point x="392" y="720" type="curve"/>
      <point x="388" y="720"/>
      <point x="381" y="710"/>
      <point x="381" y="631" type="curve"/>
      <point x="469" y="631"/>
      <point x="512" y="572"/>
      <point x="479" y="434" type="curve" smooth="yes"/>
      <point x="432" y="242" type="line" smooth="yes"/>
      <point x="401" y="113"/>
      <point x="342" y="69"/>
      <point x="253" y="69" type="curve" smooth="yes"/>
      <point x="206" y="69"/>
      <point x="177" y="69"/>
      <point x="149" y="69" type="curve"/>
      <point x="136" y="19"/>
      <point x="177" y="-20"/>
    </contour>
  </outline>
</glyph>
<glyph name="one" format="1">
  <advance width="600"/>
  <unicode hex="0031"/>
  <outline>
    <contour>
      <point x="324" y="25" type="curve"/>
      <point x="380" y="250"/>
      <point x="436" y="475"/>
      <point x="492" y="699" type="curve" smooth="yes"/>
      <point x="494" y="706"/>
      <point x="491" y="710"/>
      <point x="484" y="710" type="curve" smooth="yes"/>
      <point x="397" y="710" type="line"/>
      <point x="343" y="496"/>
      <point x="288" y="276"/>
      <point x="235" y="62" type="curve" smooth="yes"/>
      <point x="227" y="32"/>
      <point x="266" y="25"/>
    </contour>
    <contour>
      <point x="40" y="90" type="line"/>
      <point x="34" y="63"/>
      <point x="29" y="40"/>
      <point x="21" y="11" type="curve" smooth="yes"/>
      <point x="20" y="8"/>
      <point x="20" y="5"/>
      <point x="22" y="3" type="curve" smooth="yes"/>
      <point x="23" y="1"/>
      <point x="26" y="0"/>
      <point x="29" y="0" type="curve" smooth="yes"/>
      <point x="478" y="0" type="line"/>
      <point x="484" y="24"/>
      <point x="490" y="49"/>
      <point x="498" y="79" type="curve" smooth="yes"/>
      <point x="500" y="86"/>
      <point x="496" y="90"/>
      <point x="489" y="90" type="curve" smooth="yes"/>
    </contour>
    <contour>
      <point x="150" y="447" type="curve" smooth="yes"/>
      <point x="158" y="447"/>
      <point x="163" y="449"/>
      <point x="397" y="610" type="curve" smooth="yes"/>
      <point x="425" y="628"/>
      <point x="452" y="647"/>
      <point x="453" y="653" type="curve" smooth="yes"/>
      <point x="459" y="676"/>
      <point x="457" y="710"/>
      <point x="406" y="710" type="curve"/>
      <point x="386" y="710" type="line"/>
      <point x="351" y="686"/>
      <point x="315" y="661"/>
      <point x="281" y="637" type="curve"/>
      <point x="245" y="612"/>
      <point x="209" y="587"/>
      <point x="173" y="563" type="curve"/>
      <point x="146" y="455" type="line" smooth="yes"/>
      <point x="144" y="449"/>
      <point x="146" y="447"/>
    </contour>
  </outline>
</glyph>
<glyph name="two" format="1">
  <advance width="600"/>
  <unicode hex="0032"/>
  <outline>
    <contour>
      <point x="508" y="600" type="curve"/>
      <point x="501" y="570"/>
      <point x="498" y="557"/>
      <point x="488" y="519" type="curve" smooth="yes"/>
      <point x="476" y="469"/>
      <point x="449" y="446"/>
      <point x="302" y="364" type="curve" smooth="yes"/>
      <point x="120" y="262"/>
      <point x="46" y="189"/>
      <point x="16" y="72" type="curve" smooth="yes"/>
      <point x="13" y="60"/>
      <point x="38" y="58"/>
      <point x="113" y="58" type="curve"/>
      <point x="138" y="160"/>
      <point x="170" y="191"/>
      <point x="342" y="287" type="curve" smooth="yes"/>
      <point x="502" y="376"/>
      <point x="562" y="419"/>
      <point x="584" y="510" type="curve" smooth="yes"/>
      <point x="592" y="540" type="line" smooth="yes"/>
      <point x="599" y="569"/>
      <point x="579" y="600"/>
    </contour>
    <contour>
      <point x="473" y="0" type="line"/>
      <point x="479" y="24"/>
      <point x="485" y="49"/>
      <point x="493" y="79" type="curve" smooth="yes"/>
      <point x="494" y="86"/>
      <point x="491" y="90"/>
      <point x="484" y="90" type="curve" smooth="yes"/>
      <point x="104" y="90" type="line" smooth="yes"/>
      <point x="75" y="90"/>
      <point x="45" y="87"/>
      <point x="16" y="72" type="curve"/>
      <point x="12" y="51"/>
      <point x="9" y="40"/>
      <point x="1" y="11" type="curve" smooth="yes"/>
      <point x="-1" y="4"/>
      <point x="2" y="0"/>
      <point x="9" y="0" type="curve" smooth="yes"/>
    </contour>
    <contour>
      <point x="406" y="720" type="curve" smooth="yes"/>
      <point x="299" y="720"/>
      <point x="222" y="690"/>
      <point x="185" y="661" type="curve" smooth="yes"/>
      <point x="183" y="658"/>
      <point x="181" y="656"/>
      <point x="180" y="651" type="curve" smooth="yes"/>
      <point x="170" y="613"/>
      <point x="163" y="587"/>
      <point x="157" y="563" type="curve"/>
      <point x="173" y="563" type="line"/>
      <point x="244" y="608"/>
      <point x="308" y="627"/>
      <point x="389" y="627" type="curve" smooth="yes"/>
      <point x="474" y="627"/>
      <point x="507" y="595"/>
      <point x="493" y="538" type="curve" smooth="yes"/>
      <point x="486" y="510"/>
      <point x="481" y="491"/>
      <point x="476" y="470" type="curve"/>
      <point x="541" y="471"/>
      <point x="582" y="498"/>
      <point x="592" y="540" type="curve" smooth="yes"/>
      <point x="618" y="642"/>
      <point x="548" y="720"/>
    </contour>
  </outline>
</glyph>
<glyph name="three" format="1">
  <advance width="600"/>
  <unicode hex="0033"/>
  <outline>
    <contour>
      <point x="373" y="627" type="curve" smooth="yes"/>
      <point x="476" y="627"/>
      <point x="506" y="582"/>
      <point x="492" y="526" type="curve" smooth="yes"/>
      <point x="486" y="502"/>
      <point x="481" y="482"/>
      <point x="476" y="461" type="curve"/>
      <point x="528" y="461"/>
      <point x="577" y="470"/>
      <point x="589" y="516" type="curve" smooth="yes"/>
      <point x="595" y="540" type="line" smooth="yes"/>
      <point x="619" y="632"/>
      <point x="547" y="720"/>
      <point x="397" y="720" type="curve" smooth="yes"/>
      <point x="298" y="720"/>
      <point x="214" y="694"/>
      <point x="184" y="671" type="curve" smooth="yes"/>
      <point x="182" y="669"/>
      <point x="180" y="667"/>
      <point x="179" y="663" type="curve" smooth="yes"/>
      <point x="171" y="627"/>
      <point x="163" y="599"/>
      <point x="158" y="578" type="curve"/>
      <point x="174" y="578" type="line"/>
      <point x="240" y="612"/>
      <point x="291" y="627"/>
    </contour>
    <contour>
      <point x="191" y="340" type="curve" smooth="yes"/>
      <point x="408" y="340"/>
      <point x="556" y="383"/>
      <point x="589" y="516" type="curve" smooth="yes"/>
      <point x="596" y="546"/>
      <point x="557" y="589"/>
      <point x="508" y="589" type="curve"/>
      <point x="501" y="564"/>
      <point x="496" y="542"/>
      <point x="490" y="520" type="curve" smooth="yes"/>
      <point x="473" y="451"/>
      <point x="402" y="401"/>
      <point x="196" y="401" type="curve"/>
      <point x="192" y="386"/>
      <point x="187" y="365"/>
      <point x="183" y="351" type="curve" smooth="yes"/>
      <point x="181" y="345"/>
      <point x="185" y="340"/>
    </contour>
    <contour>
      <point x="185" y="313" type="curve" smooth="yes"/>
      <point x="369" y="313"/>
      <point x="438" y="273"/>
      <point x="418" y="191" type="curve" smooth="yes"/>
      <point x="411" y="167"/>
      <point x="407" y="152"/>
      <point x="400" y="122" type="curve"/>
      <point x="458" y="122"/>
      <point x="506" y="143"/>
      <point x="517" y="188" type="curve" smooth="yes"/>
      <point x="546" y="307"/>
      <point x="439" y="375"/>
      <point x="189" y="375" type="curve"/>
      <point x="185" y="359"/>
      <point x="180" y="340"/>
      <point x="177" y="324" type="curve" smooth="yes"/>
      <point x="175" y="316"/>
      <point x="178" y="313"/>
    </contour>
    <contour>
      <point x="232" y="73" type="curve" smooth="yes"/>
      <point x="147" y="73"/>
      <point x="101" y="88"/>
      <point x="46" y="126" type="curve"/>
      <point x="31" y="126" type="line"/>
      <point x="24" y="102"/>
      <point x="18" y="79"/>
      <point x="9" y="42" type="curve" smooth="yes"/>
      <point x="8" y="38"/>
      <point x="8" y="36"/>
      <point x="10" y="34" type="curve" smooth="yes"/>
      <point x="28" y="10"/>
      <point x="107" y="-20"/>
      <point x="217" y="-20" type="curve" smooth="yes"/>
      <point x="383" y="-20"/>
      <point x="482" y="49"/>
      <point x="509" y="156" type="curve" smooth="yes"/>
      <point x="517" y="188" type="line" smooth="yes"/>
      <point x="526" y="223"/>
      <point x="484" y="253"/>
      <point x="433" y="252" type="curve"/>
      <point x="426" y="226"/>
      <point x="421" y="207"/>
      <point x="415" y="184" type="curve" smooth="yes"/>
      <point x="401" y="123"/>
      <point x="344" y="73"/>
    </contour>
  </outline>
</glyph>
<glyph name="four" format="1">
  <advance width="600"/>
  <unicode hex="0034"/>
  <outline>
    <contour>
      <point x="122" y="207" type="curve"/>
      <point x="265" y="366"/>
      <point x="408" y="527"/>
      <point x="551" y="687" type="curve"/>
      <point x="555" y="700" type="line"/>
      <point x="502" y="700"/>
      <point x="466" y="700"/>
      <point x="456" y="700" type="curve" smooth="yes"/>
      <point x="450" y="700"/>
      <point x="443" y="700"/>
      <point x="436" y="691" type="curve" smooth="yes"/>
      <point x="253" y="484"/>
      <point x="40" y="240"/>
      <point x="39" y="234" type="curve" smooth="yes"/>
      <point x="35" y="215"/>
      <point x="86" y="207"/>
    </contour>
    <contour>
      <point x="532" y="152" type="line"/>
      <point x="538" y="179"/>
      <point x="544" y="203"/>
      <point x="551" y="231" type="curve" smooth="yes"/>
      <point x="553" y="237"/>
      <point x="549" y="242"/>
      <point x="543" y="242" type="curve" smooth="yes"/>
      <point x="385" y="242" type="line"/>
      <point x="322" y="242"/>
      <point x="174" y="238"/>
      <point x="39" y="234" type="curve"/>
      <point x="21" y="163" type="line" smooth="yes"/>
      <point x="21" y="160"/>
      <point x="21" y="157"/>
      <point x="22" y="155" type="curve" smooth="yes"/>
      <point x="24" y="153"/>
      <point x="27" y="152"/>
      <point x="30" y="152" type="curve" smooth="yes"/>
    </contour>
    <contour>
      <point x="418" y="0" type="curve"/>
      <point x="425" y="31"/>
      <point x="434" y="65"/>
      <point x="443" y="99" type="curve" smooth="yes"/>
      <point x="511" y="374" type="line" smooth="yes"/>
      <point x="513" y="381"/>
      <point x="510" y="385"/>
      <point x="503" y="385" type="curve" smooth="yes"/>
      <point x="431" y="385" type="line"/>
      <point x="413" y="333"/>
      <point x="395" y="282"/>
      <point x="377" y="230" type="curve"/>
      <point x="322" y="11" type="line" smooth="yes"/>
      <point x="320" y="5"/>
      <point x="324" y="0"/>
      <point x="330" y="0" type="curve" smooth="yes"/>
      <point x="359" y="0"/>
      <point x="389" y="0"/>
    </contour>
  </outline>
</glyph>
<glyph name="six" format="1">
  <advance width="600"/>
  <unicode hex="0036"/>
  <outline>
    <contour>
      <point x="157" y="67" type="curve"/>
      <point x="141" y="2"/>
      <point x="200" y="-20"/>
      <point x="264" y="-20" type="curve"/>
      <point x="424" y="-20"/>
      <point x="486" y="56"/>
      <point x="516" y="175" type="curve" smooth="yes"/>
      <point x="532" y="236" type="line" smooth="yes"/>
      <point x="542" y="276"/>
      <point x="503" y="305"/>
      <point x="452" y="305" type="curve"/>
      <point x="446" y="278"/>
      <point x="442" y="262"/>
      <point x="433" y="230" type="curve" smooth="yes"/>
      <point x="422" y="187" type="line" smooth="yes"/>
      <point x="402" y="110"/>
      <point x="359" y="67"/>
      <point x="268" y="67" type="curve" smooth="yes"/>
      <point x="222" y="67"/>
      <point x="183" y="67"/>
    </contour>
    <contour>
      <point x="329" y="628" type="curve"/>
      <point x="359" y="628"/>
      <point x="378" y="628"/>
      <point x="421" y="628" type="curve" smooth="yes"/>
      <point x="492" y="628"/>
      <point x="528" y="612"/>
      <point x="572" y="581" type="curve"/>
      <point x="587" y="581" type="line"/>
      <point x="593" y="604"/>
      <point x="599" y="627"/>
      <point x="608" y="663" type="curve" smooth="yes"/>
      <point x="609" y="667"/>
      <point x="608" y="670"/>
      <point x="607" y="672" type="curve" smooth="yes"/>
      <point x="590" y="692"/>
      <point x="520" y="720"/>
      <point x="441" y="720" type="curve" smooth="yes"/>
      <point x="354" y="720"/>
      <point x="341" y="675"/>
    </contour>
    <contour>
      <point x="104" y="430" type="curve" smooth="yes"/>
      <point x="68" y="284" type="line" smooth="yes"/>
      <point x="20" y="91"/>
      <point x="101" y="-20"/>
      <point x="264" y="-20" type="curve" smooth="yes"/>
      <point x="275" y="-20"/>
      <point x="274" y="-4"/>
      <point x="268" y="67" type="curve"/>
      <point x="171" y="67"/>
      <point x="129" y="130"/>
      <point x="163" y="268" type="curve" smooth="yes"/>
      <point x="201" y="418" type="line" smooth="yes"/>
      <point x="237" y="560"/>
      <point x="306" y="628"/>
      <point x="421" y="628" type="curve"/>
      <point x="471" y="707"/>
      <point x="452" y="720"/>
      <point x="441" y="720" type="curve" smooth="yes"/>
      <point x="291" y="720"/>
      <point x="160" y="657"/>
    </contour>
    <contour>
      <point x="372" y="434" type="curve" smooth="yes"/>
      <point x="301" y="434"/>
      <point x="232" y="406"/>
      <point x="189" y="372" type="curve" smooth="yes"/>
      <point x="177" y="363"/>
      <point x="169" y="348"/>
      <point x="155" y="289" type="curve"/>
      <point x="214" y="331"/>
      <point x="270" y="349"/>
      <point x="330" y="349" type="curve" smooth="yes"/>
      <point x="421" y="349"/>
      <point x="451" y="301"/>
      <point x="433" y="230" type="curve" smooth="yes"/>
      <point x="430" y="218"/>
      <point x="426" y="203"/>
      <point x="424" y="195" type="curve"/>
      <point x="506" y="198"/>
      <point x="528" y="219"/>
      <point x="532" y="236" type="curve" smooth="yes"/>
      <point x="561" y="352"/>
      <point x="494" y="434"/>
    </contour>
  </outline>
</glyph>
<glyph name="seven" format="1">
  <advance width="600"/>
  <unicode hex="0037"/>
  <outline>
    <contour>
      <point x="555" y="611" type="line" smooth="yes"/>
      <point x="581" y="611"/>
      <point x="608" y="613"/>
      <point x="635" y="616" type="curve"/>
      <point x="652" y="689" type="line"/>
      <point x="654" y="695"/>
      <point x="650" y="700"/>
      <point x="644" y="700" type="curve"/>
      <point x="173" y="700" type="line"/>
      <point x="163" y="659" type="line" smooth="yes"/>
      <point x="155" y="625"/>
      <point x="164" y="611"/>
      <point x="182" y="611" type="curve" smooth="yes"/>
    </contour>
    <contour>
      <point x="234" y="0" type="line"/>
      <point x="480" y="378"/>
      <point x="632" y="607"/>
      <point x="635" y="616" type="curve" smooth="yes"/>
      <point x="641" y="643"/>
      <point x="607" y="649"/>
      <point x="546" y="648" type="curve"/>
      <point x="293" y="265"/>
      <point x="132" y="20"/>
      <point x="130" y="11" type="curve" smooth="yes"/>
      <point x="128" y="4"/>
      <point x="132" y="0"/>
      <point x="138" y="0" type="curve" smooth="yes"/>
    </contour>
    <contour>
      <point x="220" y="493" type="curve"/>
      <point x="233" y="544"/>
      <point x="251" y="617"/>
      <point x="265" y="669" type="curve"/>
      <point x="270" y="692"/>
      <point x="248" y="700"/>
      <point x="185" y="700" type="curve" smooth="yes"/>
      <point x="173" y="700" type="line"/>
      <point x="159" y="642"/>
      <point x="139" y="561"/>
      <point x="125" y="504" type="curve"/>
      <point x="123" y="498"/>
      <point x="127" y="493"/>
      <point x="133" y="493" type="curve" smooth="yes"/>
      <point x="162" y="493"/>
      <point x="192" y="493"/>
    </contour>
  </outline>
</glyph>
<glyph name="eight" format="1">
  <advance width="600"/>
  <unicode hex="0038"/>
  <outline>
    <contour>
      <point x="395" y="361" type="curve" smooth="yes"/>
      <point x="299" y="399" type="line" smooth="yes"/>
      <point x="236" y="424"/>
      <point x="218" y="472"/>
      <point x="231" y="522" type="curve" smooth="yes"/>
      <point x="235" y="542"/>
      <point x="240" y="560"/>
      <point x="247" y="588" type="curve"/>
      <point x="198" y="588"/>
      <point x="148" y="568"/>
      <point x="138" y="526" type="curve" smooth="yes"/>
      <point x="116" y="440"/>
      <point x="149" y="373"/>
      <point x="259" y="328" type="curve" smooth="yes"/>
      <point x="353" y="290" type="line" smooth="yes"/>
      <point x="419" y="263"/>
      <point x="437" y="223"/>
      <point x="426" y="175" type="curve" smooth="yes"/>
      <point x="415" y="133"/>
      <point x="411" y="119"/>
      <point x="406" y="102" type="curve"/>
      <point x="455" y="106"/>
      <point x="509" y="138"/>
      <point x="519" y="177" type="curve"/>
      <point x="538" y="253"/>
      <point x="500" y="319"/>
    </contour>
    <contour>
      <point x="241" y="-20" type="curve" smooth="yes"/>
      <point x="410" y="-20"/>
      <point x="488" y="53"/>
      <point x="511" y="147" type="curve" smooth="yes"/>
      <point x="519" y="177" type="line" smooth="yes"/>
      <point x="526" y="207"/>
      <point x="494" y="232"/>
      <point x="440" y="235" type="curve"/>
      <point x="438" y="228"/>
      <point x="433" y="203"/>
      <point x="423" y="164" type="curve" smooth="yes"/>
      <point x="408" y="105"/>
      <point x="353" y="68"/>
      <point x="256" y="68" type="curve" smooth="yes"/>
      <point x="206" y="68"/>
      <point x="172" y="68"/>
      <point x="146" y="68" type="curve"/>
      <point x="134" y="22"/>
      <point x="186" y="-20"/>
    </contour>
    <contour>
      <point x="408" y="720" type="curve" smooth="yes"/>
      <point x="269" y="720"/>
      <point x="171" y="656"/>
      <point x="145" y="553" type="curve" smooth="yes"/>
      <point x="138" y="526" type="line" smooth="yes"/>
      <point x="128" y="488"/>
      <point x="150" y="458"/>
      <point x="215" y="458" type="curve"/>
      <point x="220" y="480"/>
      <point x="225" y="501"/>
      <point x="234" y="535" type="curve" smooth="yes"/>
      <point x="249" y="595"/>
      <point x="304" y="632"/>
      <point x="384" y="632" type="curve" smooth="yes"/>
      <point x="437" y="632"/>
      <point x="468" y="632"/>
      <point x="495" y="632" type="curve"/>
      <point x="509" y="687"/>
      <point x="468" y="720"/>
    </contour>
    <contour>
      <point x="376" y="346" type="curve" smooth="yes"/>
      <point x="451" y="346"/>
      <point x="561" y="419"/>
      <point x="583" y="501" type="curve" smooth="yes"/>
      <point x="590" y="529" type="line" smooth="yes"/>
      <point x="618" y="635"/>
      <point x="544" y="720"/>
      <point x="408" y="720" type="curve" smooth="yes"/>
      <point x="388" y="720"/>
      <point x="384" y="711"/>
      <point x="384" y="632" type="curve"/>
      <point x="477" y="632"/>
      <point x="511" y="587"/>
      <point x="493" y="518" type="curve" smooth="yes"/>
      <point x="490" y="505" type="line" smooth="yes"/>
      <point x="475" y="448"/>
      <point x="423" y="406"/>
      <point x="315" y="375" type="curve"/>
      <point x="325" y="357"/>
      <point x="348" y="346"/>
    </contour>
    <contour>
      <point x="256" y="68" type="curve"/>
      <point x="149" y="68"/>
      <point x="115" y="120"/>
      <point x="129" y="180" type="curve" smooth="yes"/>
      <point x="132" y="192" type="line" smooth="yes"/>
      <point x="146" y="252"/>
      <point x="207" y="300"/>
      <point x="317" y="319" type="curve"/>
      <point x="307" y="340"/>
      <point x="292" y="353"/>
      <point x="256" y="353" type="curve" smooth="yes"/>
      <point x="170" y="353"/>
      <point x="65" y="288"/>
      <point x="41" y="199" type="curve" smooth="yes"/>
      <point x="33" y="167" type="line" smooth="yes"/>
      <point x="6" y="64"/>
      <point x="84" y="-20"/>
      <point x="241" y="-20" type="curve" smooth="yes"/>
      <point x="249" y="-20"/>
      <point x="267" y="5"/>
    </contour>
  </outline>
</glyph>
<glyph name="nine" format="1">
  <advance width="600"/>
  <unicode hex="0039"/>
  <outline>
    <contour>
      <point x="484" y="632" type="curve"/>
      <point x="498" y="688"/>
      <point x="461" y="720"/>
      <point x="388" y="720" type="curve"/>
      <point x="246" y="720"/>
      <point x="157" y="647"/>
      <point x="126" y="525" type="curve" smooth="yes"/>
      <point x="110" y="460" type="line" smooth="yes"/>
      <point x="100" y="421"/>
      <point x="130" y="382"/>
      <point x="188" y="382" type="curve"/>
      <point x="195" y="411"/>
      <point x="201" y="433"/>
      <point x="209" y="465" type="curve" smooth="yes"/>
      <point x="221" y="514" type="line" smooth="yes"/>
      <point x="241" y="594"/>
      <point x="287" y="632"/>
      <point x="375" y="632" type="curve" smooth="yes"/>
      <point x="421" y="632"/>
      <point x="458" y="632"/>
    </contour>
    <contour>
      <point x="317" y="72" type="curve"/>
      <point x="286" y="72"/>
      <point x="266" y="72"/>
      <point x="223" y="72" type="curve" smooth="yes"/>
      <point x="157" y="72"/>
      <point x="117" y="83"/>
      <point x="69" y="114" type="curve"/>
      <point x="54" y="114" type="line"/>
      <point x="48" y="91"/>
      <point x="42" y="67"/>
      <point x="33" y="30" type="curve" smooth="yes"/>
      <point x="32" y="26"/>
      <point x="32" y="25"/>
      <point x="33" y="22" type="curve" smooth="yes"/>
      <point x="51" y="0"/>
      <point x="134" y="-20"/>
      <point x="207" y="-20" type="curve" smooth="yes"/>
      <point x="276" y="-20"/>
      <point x="301" y="9"/>
    </contour>
    <contour>
      <point x="535" y="257" type="curve" smooth="yes"/>
      <point x="575" y="416" type="line" smooth="yes"/>
      <point x="625" y="615"/>
      <point x="553" y="720"/>
      <point x="388" y="720" type="curve" smooth="yes"/>
      <point x="373" y="720"/>
      <point x="369" y="689"/>
      <point x="375" y="632" type="curve"/>
      <point x="473" y="632"/>
      <point x="514" y="572"/>
      <point x="478" y="430" type="curve" smooth="yes"/>
      <point x="438" y="272" type="line" smooth="yes"/>
      <point x="403" y="131"/>
      <point x="341" y="72"/>
      <point x="223" y="72" type="curve"/>
      <point x="193" y="25"/>
      <point x="195" y="-20"/>
      <point x="207" y="-20" type="curve" smooth="yes"/>
      <point x="392" y="-20"/>
      <point x="485" y="58"/>
    </contour>
    <contour>
      <point x="266" y="260" type="curve" smooth="yes"/>
      <point x="336" y="260"/>
      <point x="406" y="286"/>
      <point x="451" y="322" type="curve" smooth="yes"/>
      <point x="463" y="332"/>
      <point x="472" y="350"/>
      <point x="486" y="406" type="curve"/>
      <point x="425" y="364"/>
      <point x="368" y="346"/>
      <point x="305" y="346" type="curve" smooth="yes"/>
      <point x="217" y="346"/>
      <point x="191" y="393"/>
      <point x="209" y="465" type="curve" smooth="yes"/>
      <point x="212" y="481"/>
      <point x="217" y="500"/>
      <point x="219" y="509" type="curve"/>
      <point x="154" y="507"/>
      <point x="116" y="488"/>
      <point x="110" y="460" type="curve" smooth="yes"/>
      <point x="81" y="344"/>
      <point x="140" y="260"/>
    </contour>
  </outline>
</glyph>
<glyph name="colon" format="1">
  <advance width="300"/>
  <unicode hex="003A"/>
  <outline>
    <contour>
      <point x="260" y="381" type="curve"/>
      <point x="297" y="529" type="line" smooth="yes"/>
      <point x="298" y="535"/>
      <point x="294" y="540"/>
      <point x="288" y="540" type="curve" smooth="yes"/>
      <point x="242" y="540"/>
      <point x="185" y="540"/>
      <point x="139" y="540" type="curve"/>
      <point x="102" y="392" type="line" smooth="yes"/>
      <point x="100" y="386"/>
      <point x="104" y="381"/>
      <point x="110" y="381" type="curve" smooth="yes"/>
      <point x="156" y="381"/>
      <point x="214" y="381"/>
    </contour>
    <contour>
      <point x="161" y="-7" type="curve"/>
      <point x="198" y="140" type="line" smooth="yes"/>
      <point x="200" y="146"/>
      <point x="196" y="151"/>
      <point x="190" y="151" type="curve" smooth="yes"/>
      <point x="144" y="151"/>
      <point x="86" y="151"/>
      <point x="40" y="151" type="curve"/>
      <point x="3" y="4" type="line" smooth="yes"/>
      <point x="2" y="-2"/>
      <point x="6" y="-7"/>
      <point x="12" y="-7" type="curve" smooth="yes"/>
      <point x="58" y="-7"/>
      <point x="115" y="-7"/>
    </contour>
  </outline>
</glyph>
<glyph name="semicolon" format="1">
  <advance width="350"/>
  <unicode hex="003B"/>
  <outline>
    <contour>
      <point x="284" y="381" type="curve"/>
      <point x="321" y="529" type="line" smooth="yes"/>
      <point x="323" y="535"/>
      <point x="319" y="540"/>
      <point x="313" y="540" type="curve" smooth="yes"/>
      <point x="267" y="540"/>
      <point x="209" y="540"/>
      <point x="163" y="540" type="curve"/>
      <point x="126" y="392" type="line" smooth="yes"/>
      <point x="125" y="386"/>
      <point x="128" y="381"/>
      <point x="134" y="381" type="curve" smooth="yes"/>
      <point x="180" y="381"/>
      <point x="238" y="381"/>
    </contour>
    <contour>
      <point x="11" y="-214" type="curve" smooth="yes"/>
      <point x="16" y="-214"/>
      <point x="20" y="-213"/>
      <point x="24" y="-207" type="curve"/>
      <point x="90" y="-106"/>
      <point x="161" y="4"/>
      <point x="221" y="94" type="curve"/>
      <point x="226" y="102"/>
      <point x="224" y="107"/>
      <point x="216" y="107" type="curve" smooth="yes"/>
      <point x="164" y="107"/>
      <point x="133" y="107"/>
      <point x="72" y="107" type="curve"/>
      <point x="21" y="0"/>
      <point x="-30" y="-107"/>
      <point x="-81" y="-214" type="curve"/>
      <point x="-56" y="-214"/>
      <point x="-29" y="-214"/>
    </contour>
  </outline>
</glyph>
<glyph name="equal" format="1">
  <advance width="600"/>
  <unicode hex="003D"/>
  <outline>
    <contour>
      <point x="120" y="474" type="line"/>
      <point x="113" y="445"/>
      <point x="107" y="420"/>
      <point x="99" y="391" type="curve" smooth="yes"/>
      <point x="99" y="388"/>
      <point x="99" y="385"/>
      <point x="100" y="383" type="curve" smooth="yes"/>
      <point x="102" y="381"/>
      <point x="105" y="380"/>
      <point x="108" y="380" type="curve"/>
      <point x="560" y="380" type="line"/>
      <point x="567" y="409"/>
      <point x="574" y="434"/>
      <point x="581" y="463" type="curve" smooth="yes"/>
      <point x="582" y="469"/>
      <point x="579" y="474"/>
      <point x="573" y="474" type="curve"/>
    </contour>
    <contour>
      <point x="496" y="125" type="line"/>
      <point x="504" y="154"/>
      <point x="510" y="179"/>
      <point x="517" y="208" type="curve" smooth="yes"/>
      <point x="518" y="211"/>
      <point x="518" y="214"/>
      <point x="516" y="216" type="curve" smooth="yes"/>
      <point x="515" y="218"/>
      <point x="512" y="219"/>
      <point x="509" y="219" type="curve"/>
      <point x="56" y="219" type="line"/>
      <point x="49" y="190"/>
      <point x="43" y="165"/>
      <point x="36" y="136" type="curve" smooth="yes"/>
      <point x="34" y="130"/>
      <point x="38" y="125"/>
      <point x="44" y="125" type="curve"/>
    </contour>
  </outline>
</glyph>
<glyph name="greater" format="1">
  <advance width="574"/>
  <unicode hex="003E"/>
  <outline>
    <contour>
      <point x="43" y="120" type="curve"/>
      <point x="21" y="30" type="line"/>
      <point x="20" y="25"/>
      <point x="21" y="22"/>
      <point x="26" y="22" type="curve" smooth="yes"/>
      <point x="30" y="22"/>
      <point x="34" y="23"/>
      <point x="50" y="29" type="curve" smooth="yes"/>
      <point x="98" y="50"/>
      <point x="355" y="162"/>
      <point x="511" y="230" type="curve"/>
      <point x="541" y="350" type="line"/>
      <point x="526" y="333"/>
      <point x="510" y="321"/>
      <point x="468" y="304" type="curve"/>
      <point x="326" y="243"/>
      <point x="185" y="181"/>
    </contour>
    <contour>
      <point x="160" y="586" type="curve"/>
      <point x="153" y="555"/>
      <point x="145" y="526"/>
      <point x="138" y="495" type="curve" smooth="yes"/>
      <point x="135" y="486"/>
      <point x="136" y="483"/>
      <point x="143" y="478" type="curve" smooth="yes"/>
      <point x="237" y="426"/>
      <point x="332" y="372"/>
      <point x="428" y="319" type="curve" smooth="yes"/>
      <point x="435" y="315"/>
      <point x="435" y="312"/>
      <point x="434" y="305" type="curve" smooth="yes"/>
      <point x="429" y="287"/>
      <point x="424" y="265"/>
      <point x="417" y="238" type="curve"/>
      <point x="488" y="240"/>
      <point x="529" y="300"/>
      <point x="539" y="342" type="curve" smooth="yes"/>
      <point x="544" y="362" type="line" smooth="yes"/>
      <point x="547" y="371"/>
      <point x="545" y="376"/>
      <point x="536" y="380" type="curve" smooth="yes"/>
      <point x="411" y="449"/>
      <point x="286" y="518"/>
    </contour>
  </outline>
</glyph>
<glyph name="question" format="1">
  <advance width="600"/>
  <unicode hex="003F"/>
  <outline>
    <contour>
      <point x="411" y="720" type="curve" smooth="yes"/>
      <point x="317" y="720"/>
      <point x="227" y="694"/>
      <point x="186" y="661" type="curve" smooth="yes"/>
      <point x="183" y="658"/>
      <point x="181" y="656"/>
      <point x="180" y="651" type="curve" smooth="yes"/>
      <point x="170" y="612"/>
      <point x="162" y="578"/>
      <point x="157" y="561" type="curve"/>
      <point x="173" y="561" type="line"/>
      <point x="248" y="606"/>
      <point x="312" y="623"/>
      <point x="386" y="623" type="curve" smooth="yes"/>
      <point x="485" y="623"/>
      <point x="507" y="593"/>
      <point x="495" y="542" type="curve" smooth="yes"/>
      <point x="489" y="521"/>
      <point x="485" y="503"/>
      <point x="479" y="479" type="curve"/>
      <point x="547" y="479"/>
      <point x="587" y="516"/>
      <point x="597" y="557" type="curve" smooth="yes"/>
      <point x="619" y="647"/>
      <point x="566" y="720"/>
    </contour>
    <contour>
      <point x="513" y="615" type="curve"/>
      <point x="508" y="594"/>
      <point x="500" y="563"/>
      <point x="491" y="529" type="curve" smooth="yes"/>
      <point x="482" y="489"/>
      <point x="464" y="474"/>
      <point x="398" y="436" type="curve" smooth="yes"/>
      <point x="359" y="412" type="line" smooth="yes"/>
      <point x="270" y="361"/>
      <point x="242" y="329"/>
      <point x="228" y="271" type="curve" smooth="yes"/>
      <point x="224" y="255" type="line" smooth="yes"/>
      <point x="222" y="246"/>
      <point x="224" y="244"/>
      <point x="232" y="244" type="curve" smooth="yes"/>
      <point x="321" y="244" type="line"/>
      <point x="322" y="251" type="line" smooth="yes"/>
      <point x="333" y="293"/>
      <point x="344" y="306"/>
      <point x="410" y="344" type="curve" smooth="yes"/>
      <point x="454" y="370" type="line" smooth="yes"/>
      <point x="539" y="420"/>
      <point x="572" y="457"/>
      <point x="589" y="527" type="curve" smooth="yes"/>
      <point x="597" y="557" type="line" smooth="yes"/>
      <point x="606" y="592"/>
      <point x="590" y="615"/>
    </contour>
    <contour>
      <point x="294" y="-7" type="curve"/>
      <point x="330" y="135" type="line" smooth="yes"/>
      <point x="331" y="141"/>
      <point x="327" y="146"/>
      <point x="321" y="146" type="curve" smooth="yes"/>
      <point x="276" y="146"/>
      <point x="218" y="146"/>
      <point x="172" y="146" type="curve"/>
      <point x="136" y="4" type="line" smooth="yes"/>
      <point x="134" y="-2"/>
      <point x="138" y="-7"/>
      <point x="144" y="-7" type="curve" smooth="yes"/>
      <point x="190" y="-7"/>
      <point x="248" y="-7"/>
    </contour>
  </outline>
</glyph>
<glyph name="D" format="1">
  <advance width="650"/>
  <unicode hex="0044"/>
  <outline>
    <contour>
      <point x="131" y="26" type="curve"/>
      <point x="288" y="654" type="line" smooth="yes"/>
      <point x="289" y="660"/>
      <point x="286" y="665"/>
      <point x="187" y="665" type="curve"/>
      <point x="30" y="35" type="line" smooth="yes"/>
      <point x="28" y="29"/>
      <point x="32" y="26"/>
    </contour>
    <contour>
      <point x="138" y="700" type="curve"/>
      <point x="131" y="672"/>
      <point x="124" y="646"/>
      <point x="118" y="618" type="curve"/>
      <point x="117" y="615"/>
      <point x="117" y="612"/>
      <point x="119" y="610" type="curve" smooth="yes"/>
      <point x="120" y="608"/>
      <point x="123" y="607"/>
      <point x="126" y="607" type="curve" smooth="yes"/>
      <point x="139" y="607"/>
      <point x="167" y="607"/>
      <point x="184" y="607" type="curve" smooth="yes"/>
      <point x="234" y="607"/>
      <point x="339" y="607"/>
      <point x="390" y="607" type="curve"/>
      <point x="445" y="607"/>
      <point x="470" y="607"/>
      <point x="508" y="607" type="curve"/>
      <point x="521" y="662"/>
      <point x="491" y="700"/>
      <point x="403" y="700" type="curve" smooth="yes"/>
      <point x="338" y="700"/>
      <point x="214" y="700"/>
    </contour>
    <contour>
      <point x="577" y="240" type="curve" smooth="yes"/>
      <point x="624" y="424" type="line" smooth="yes"/>
      <point x="670" y="608"/>
      <point x="578" y="700"/>
      <point x="403" y="700" type="curve" smooth="yes"/>
      <point x="393" y="700"/>
      <point x="389" y="688"/>
      <point x="390" y="607" type="curve"/>
      <point x="515" y="607"/>
      <point x="556" y="550"/>
      <point x="527" y="432" type="curve" smooth="yes"/>
      <point x="482" y="253" type="line" smooth="yes"/>
      <point x="454" y="140"/>
      <point x="381" y="93"/>
      <point x="263" y="93" type="curve" smooth="yes"/>
      <point x="211" y="93"/>
      <point x="94" y="93"/>
      <point x="51" y="93" type="curve"/>
      <point x="39" y="66"/>
      <point x="33" y="49"/>
      <point x="24" y="11" type="curve" smooth="yes"/>
      <point x="22" y="5"/>
      <point x="26" y="0"/>
      <point x="32" y="0" type="curve" smooth="yes"/>
      <point x="247" y="0" type="line" smooth="yes"/>
      <point x="431" y="0"/>
      <point x="536" y="74"/>
    </contour>
    <contour>
      <point x="418" y="711" type="move" name="top"/>
    </contour>
  </outline>
</glyph>
<glyph name="E" format="1">
  <advance width="550"/>
  <unicode hex="0045"/>
  <outline>
    <contour>
      <point x="133" y="700" type="line"/>
      <point x="126" y="672"/>
      <point x="119" y="646"/>
      <point x="112" y="618" type="curve" smooth="yes"/>
      <point x="112" y="615"/>
      <point x="112" y="612"/>
      <point x="113" y="610" type="curve" smooth="yes"/>
      <point x="115" y="608"/>
      <point x="118" y="607"/>
      <point x="121" y="607" type="curve" smooth="yes"/>
      <point x="580" y="607" type="line"/>
      <point x="587" y="635"/>
      <point x="593" y="661"/>
      <point x="600" y="689" type="curve" smooth="yes"/>
      <point x="601" y="692"/>
      <point x="601" y="695"/>
      <point x="599" y="697" type="curve" smooth="yes"/>
      <point x="598" y="699"/>
      <point x="595" y="700"/>
      <point x="592" y="700" type="curve" smooth="yes"/>
    </contour>
    <contour>
      <point x="135" y="62" type="curve"/>
      <point x="284" y="660" type="line" smooth="yes"/>
      <point x="286" y="666"/>
      <point x="282" y="671"/>
      <point x="183" y="671" type="curve"/>
      <point x="34" y="73" type="line"/>
      <point x="33" y="67"/>
      <point x="36" y="62"/>
    </contour>
    <contour>
      <point x="39" y="93" type="line"/>
      <point x="19" y="11" type="line" smooth="yes"/>
      <point x="17" y="5"/>
      <point x="21" y="0"/>
      <point x="27" y="0" type="curve" smooth="yes"/>
      <point x="428" y="0" type="line"/>
      <point x="435" y="28"/>
      <point x="442" y="54"/>
      <point x="448" y="82" type="curve" smooth="yes"/>
      <point x="450" y="88"/>
      <point x="446" y="93"/>
      <point x="440" y="93" type="curve" smooth="yes"/>
    </contour>
    <contour>
      <point x="160" y="399" type="line"/>
      <point x="139" y="314"/>
      <point x="142" y="308"/>
      <point x="148" y="308" type="curve" smooth="yes"/>
      <point x="450" y="308" type="line"/>
      <point x="456" y="333"/>
      <point x="463" y="359"/>
      <point x="470" y="388" type="curve" smooth="yes"/>
      <point x="471" y="391"/>
      <point x="471" y="394"/>
      <point x="469" y="396" type="curve" smooth="yes"/>
      <point x="468" y="398"/>
      <point x="465" y="399"/>
      <point x="462" y="399" type="curve" smooth="yes"/>
    </contour>
    <contour>
      <point x="368" y="711" type="move" name="top"/>
    </contour>
    <contour>
      <point x="423" y="-1" type="move" name="ogonek"/>
    </contour>
    <contour>
      <point x="190" y="-1" type="move" name="bottom"/>
    </contour>
  </outline>
</glyph>
<glyph name="F" format="1">
  <advance width="550"/>
  <unicode hex="0046"/>
  <outline>
    <contour>
      <point x="139" y="0" type="curve"/>
      <point x="147" y="32"/>
      <point x="155" y="65"/>
      <point x="164" y="98" type="curve" smooth="yes"/>
      <point x="303" y="655" type="line"/>
      <point x="305" y="663"/>
      <point x="296" y="669"/>
      <point x="203" y="669" type="curve"/>
      <point x="39" y="11" type="line" smooth="yes"/>
      <point x="37" y="5"/>
      <point x="41" y="0"/>
      <point x="47" y="0" type="curve" smooth="yes"/>
      <point x="78" y="0"/>
      <point x="108" y="0"/>
    </contour>
    <contour>
      <point x="153" y="700" type="line"/>
      <point x="146" y="672"/>
      <point x="139" y="646"/>
      <point x="132" y="618" type="curve" smooth="yes"/>
      <point x="132" y="615"/>
      <point x="132" y="612"/>
      <point x="133" y="610" type="curve" smooth="yes"/>
      <point x="135" y="608"/>
      <point x="138" y="607"/>
      <point x="141" y="607" type="curve"/>
      <point x="575" y="607" type="line"/>
      <point x="582" y="635"/>
      <point x="588" y="661"/>
      <point x="595" y="689" type="curve" smooth="yes"/>
      <point x="596" y="692"/>
      <point x="596" y="695"/>
      <point x="594" y="697" type="curve" smooth="yes"/>
      <point x="593" y="699"/>
      <point x="590" y="700"/>
      <point x="587" y="700" type="curve"/>
    </contour>
    <contour>
      <point x="174" y="375" type="line"/>
      <point x="154" y="295"/>
      <point x="154" y="282"/>
      <point x="161" y="282" type="curve"/>
      <point x="453" y="282" type="line"/>
      <point x="460" y="309"/>
      <point x="467" y="336"/>
      <point x="474" y="364" type="curve"/>
      <point x="474" y="367"/>
      <point x="474" y="370"/>
      <point x="473" y="372" type="curve" smooth="yes"/>
      <point x="471" y="374"/>
      <point x="468" y="375"/>
      <point x="465" y="375" type="curve"/>
    </contour>
  </outline>
</glyph>
<glyph name="G" format="1">
  <advance width="650"/>
  <unicode hex="0047"/>
  <outline>
    <contour>
      <point x="433" y="628" type="curve" smooth="yes"/>
      <point x="519" y="628"/>
      <point x="563" y="613"/>
      <point x="602" y="571" type="curve"/>
      <point x="658" y="620"/>
      <point x="663" y="629"/>
      <point x="665" y="635" type="curve" smooth="yes"/>
      <point x="667" y="645"/>
      <point x="667" y="649"/>
      <point x="664" y="654" type="curve" smooth="yes"/>
      <point x="639" y="686"/>
      <point x="567" y="720"/>
      <point x="448" y="720" type="curve" smooth="yes"/>
      <point x="269" y="720"/>
      <point x="155" y="636"/>
      <point x="108" y="447" type="curve" smooth="yes"/>
      <point x="60" y="252" type="line" smooth="yes"/>
      <point x="43" y="185"/>
      <point x="66" y="118"/>
      <point x="126" y="118" type="curve"/>
      <point x="136" y="159"/>
      <point x="145" y="196"/>
      <point x="159" y="250" type="curve" smooth="yes"/>
      <point x="207" y="445" type="line" smooth="yes"/>
      <point x="240" y="573"/>
      <point x="312" y="628"/>
    </contour>
    <contour>
      <point x="298" y="72" type="curve" smooth="yes"/>
      <point x="185" y="72"/>
      <point x="129" y="132"/>
      <point x="159" y="250" type="curve"/>
      <point x="73" y="262"/>
      <point x="62" y="263"/>
      <point x="60" y="252" type="curve" smooth="yes"/>
      <point x="19" y="90"/>
      <point x="101" y="-20"/>
      <point x="283" y="-20" type="curve" smooth="yes"/>
      <point x="454" y="-20"/>
      <point x="523" y="63"/>
      <point x="528" y="82" type="curve" smooth="yes"/>
      <point x="582" y="294" type="line" smooth="yes"/>
      <point x="585" y="308"/>
      <point x="527" y="312"/>
      <point x="492" y="312" type="curve"/>
      <point x="476" y="251"/>
      <point x="460" y="187"/>
      <point x="445" y="126" type="curve" smooth="yes"/>
      <point x="442" y="115"/>
      <point x="395" y="72"/>
    </contour>
    <contour>
      <point x="362" y="364" type="line"/>
      <point x="356" y="338"/>
      <point x="350" y="314"/>
      <point x="343" y="288" type="curve" smooth="yes"/>
      <point x="342" y="285"/>
      <point x="343" y="282"/>
      <point x="344" y="280" type="curve" smooth="yes"/>
      <point x="346" y="278"/>
      <point x="348" y="277"/>
      <point x="351" y="277" type="curve"/>
      <point x="618" y="277" type="line"/>
      <point x="637" y="353" type="line" smooth="yes"/>
      <point x="639" y="359"/>
      <point x="635" y="364"/>
      <point x="629" y="364" type="curve" smooth="yes"/>
    </contour>
    <contour>
      <point x="630" y="494" type="curve"/>
      <point x="665" y="635" type="line" smooth="yes"/>
      <point x="667" y="646"/>
      <point x="658" y="655"/>
      <point x="576" y="655" type="curve"/>
      <point x="572" y="642"/>
      <point x="569" y="628"/>
      <point x="567" y="617" type="curve" smooth="yes"/>
      <point x="538" y="505" type="line" smooth="yes"/>
      <point x="537" y="498"/>
      <point x="540" y="494"/>
      <point x="547" y="494" type="curve" smooth="yes"/>
      <point x="575" y="494"/>
      <point x="602" y="494"/>
    </contour>
    <contour>
      <point x="450" y="711" type="move" name="top"/>
    </contour>
    <contour>
      <point x="272" y="-1" type="move" name="bottom"/>
    </contour>
  </outline>
</glyph>
<glyph name="H" format="1">
  <advance width="650"/>
  <unicode hex="0048"/>
  <outline>
    <contour>
      <point x="188" y="700" type="curve"/>
      <point x="180" y="666"/>
      <point x="171" y="632"/>
      <point x="163" y="597" type="curve" smooth="yes"/>
      <point x="16" y="11" type="line" smooth="yes"/>
      <point x="15" y="5"/>
      <point x="18" y="0"/>
      <point x="24" y="0" type="curve" smooth="yes"/>
      <point x="55" y="0"/>
      <point x="86" y="0"/>
      <point x="117" y="0" type="curve"/>
      <point x="289" y="689" type="line" smooth="yes"/>
      <point x="290" y="692"/>
      <point x="289" y="695"/>
      <point x="288" y="697" type="curve" smooth="yes"/>
      <point x="286" y="699"/>
      <point x="284" y="700"/>
      <point x="281" y="700" type="curve" smooth="yes"/>
      <point x="250" y="700"/>
      <point x="219" y="700"/>
    </contour>
    <contour>
      <point x="503" y="0" type="curve"/>
      <point x="511" y="33"/>
      <point x="520" y="68"/>
      <point x="529" y="105" type="curve" smooth="yes"/>
      <point x="675" y="689" type="line" smooth="yes"/>
      <point x="677" y="695"/>
      <point x="673" y="700"/>
      <point x="667" y="700" type="curve" smooth="yes"/>
      <point x="636" y="700"/>
      <point x="605" y="700"/>
      <point x="574" y="700" type="curve"/>
      <point x="402" y="11" type="line" smooth="yes"/>
      <point x="401" y="8"/>
      <point x="402" y="5"/>
      <point x="403" y="3" type="curve" smooth="yes"/>
      <point x="405" y="1"/>
      <point x="407" y="0"/>
      <point x="410" y="0" type="curve" smooth="yes"/>
      <point x="441" y="0"/>
      <point x="472" y="0"/>
    </contour>
    <contour>
      <point x="163" y="399" type="line"/>
      <point x="142" y="317" type="line" smooth="yes"/>
      <point x="141" y="314"/>
      <point x="142" y="311"/>
      <point x="143" y="309" type="curve" smooth="yes"/>
      <point x="145" y="307"/>
      <point x="147" y="306"/>
      <point x="150" y="306" type="curve"/>
      <point x="535" y="306" type="line"/>
      <point x="557" y="395"/>
      <point x="553" y="399"/>
      <point x="547" y="399" type="curve" smooth="yes"/>
    </contour>
    <contour>
      <point x="436" y="711" type="move" name="top"/>
    </contour>
  </outline>
</glyph>
<glyph name="I" format="1">
  <advance width="500"/>
  <unicode hex="0049"/>
  <outline>
    <contour>
      <point x="243" y="35" type="curve"/>
      <point x="399" y="656" type="line" smooth="yes"/>
      <point x="400" y="662"/>
      <point x="396" y="665"/>
      <point x="298" y="665" type="curve"/>
      <point x="143" y="46" type="line" smooth="yes"/>
      <point x="141" y="40"/>
      <point x="145" y="35"/>
    </contour>
    <contour>
      <point x="183" y="700" type="line"/>
      <point x="176" y="672"/>
      <point x="170" y="646"/>
      <point x="163" y="618" type="curve"/>
      <point x="162" y="615"/>
      <point x="162" y="612"/>
      <point x="164" y="610" type="curve" smooth="yes"/>
      <point x="165" y="608"/>
      <point x="168" y="607"/>
      <point x="171" y="607" type="curve" smooth="yes"/>
      <point x="510" y="607" type="line"/>
      <point x="517" y="635"/>
      <point x="523" y="661"/>
      <point x="530" y="689" type="curve" smooth="yes"/>
      <point x="532" y="695"/>
      <point x="528" y="700"/>
      <point x="522" y="700" type="curve" smooth="yes"/>
    </contour>
    <contour>
      <point x="31" y="93" type="line"/>
      <point x="25" y="65"/>
      <point x="18" y="39"/>
      <point x="11" y="11" type="curve"/>
      <point x="10" y="8"/>
      <point x="10" y="5"/>
      <point x="12" y="3" type="curve" smooth="yes"/>
      <point x="13" y="1"/>
      <point x="16" y="0"/>
      <point x="19" y="0" type="curve" smooth="yes"/>
      <point x="358" y="0" type="line"/>
      <point x="365" y="28"/>
      <point x="372" y="55"/>
      <point x="378" y="82" type="curve" smooth="yes"/>
      <point x="380" y="88"/>
      <point x="376" y="93"/>
      <point x="370" y="93" type="curve" smooth="yes"/>
    </contour>
    <contour>
      <point x="361" y="711" type="move" name="top"/>
    </contour>
    <contour>
      <point x="358" y="-1" type="move" name="ogonek"/>
    </contour>
    <contour>
      <point x="183" y="-1" type="move" name="bottom"/>
    </contour>
  </outline>
</glyph>
<glyph name="J" format="1">
  <advance width="500"/>
  <unicode hex="004A"/>
  <outline>
    <contour>
      <point x="199" y="700" type="line"/>
      <point x="192" y="672"/>
      <point x="185" y="646"/>
      <point x="178" y="618" type="curve" smooth="yes"/>
      <point x="177" y="615"/>
      <point x="178" y="612"/>
      <point x="179" y="610" type="curve" smooth="yes"/>
      <point x="181" y="608"/>
      <point x="183" y="607"/>
      <point x="186" y="607" type="curve" smooth="yes"/>
      <point x="476" y="607" type="line"/>
      <point x="488" y="652"/>
      <point x="487" y="700"/>
      <point x="458" y="700" type="curve"/>
    </contour>
    <contour>
      <point x="416" y="211" type="curve" smooth="yes"/>
      <point x="535" y="689" type="line" smooth="yes"/>
      <point x="537" y="696"/>
      <point x="534" y="700"/>
      <point x="527" y="700" type="curve" smooth="yes"/>
      <point x="440" y="700" type="line"/>
      <point x="321" y="225" type="line" smooth="yes"/>
      <point x="306" y="163"/>
      <point x="299" y="138"/>
      <point x="288" y="95" type="curve"/>
      <point x="338" y="95"/>
      <point x="393" y="120"/>
    </contour>
    <contour>
      <point x="155" y="77" type="curve" smooth="yes"/>
      <point x="106" y="77"/>
      <point x="67" y="90"/>
      <point x="28" y="115" type="curve"/>
      <point x="13" y="115" type="line"/>
      <point x="6" y="87"/>
      <point x="0" y="63"/>
      <point x="-7" y="37" type="curve"/>
      <point x="-8" y="33"/>
      <point x="-8" y="29"/>
      <point x="-6" y="27" type="curve" smooth="yes"/>
      <point x="10" y="9"/>
      <point x="71" y="-16"/>
      <point x="137" y="-16" type="curve" smooth="yes"/>
      <point x="152" y="-16" type="line" smooth="yes"/>
      <point x="288" y="-16"/>
      <point x="376" y="50"/>
      <point x="416" y="211" type="curve"/>
      <point x="419" y="221"/>
      <point x="415" y="241"/>
      <point x="321" y="225" type="curve"/>
      <point x="294" y="117"/>
      <point x="244" y="77"/>
    </contour>
    <contour>
      <point x="366" y="711" type="move" name="top"/>
    </contour>
  </outline>
</glyph>
<glyph name="L" format="1">
  <advance width="550"/>
  <unicode hex="004C"/>
  <outline>
    <contour>
      <point x="132" y="62" type="curve"/>
      <point x="289" y="689" type="line" smooth="yes"/>
      <point x="290" y="692"/>
      <point x="289" y="695"/>
      <point x="288" y="697" type="curve" smooth="yes"/>
      <point x="286" y="699"/>
      <point x="284" y="700"/>
      <point x="281" y="700" type="curve" smooth="yes"/>
      <point x="250" y="700"/>
      <point x="219" y="700"/>
      <point x="188" y="700" type="curve"/>
      <point x="180" y="667"/>
      <point x="172" y="634"/>
      <point x="164" y="601" type="curve" smooth="yes"/>
      <point x="32" y="73" type="line" smooth="yes"/>
      <point x="30" y="67"/>
      <point x="34" y="62"/>
    </contour>
    <contour>
      <point x="37" y="93" type="line"/>
      <point x="16" y="11" type="line" smooth="yes"/>
      <point x="14" y="4"/>
      <point x="18" y="0"/>
      <point x="24" y="0" type="curve" smooth="yes"/>
      <point x="428" y="0" type="line"/>
      <point x="435" y="28"/>
      <point x="441" y="54"/>
      <point x="448" y="82" type="curve" smooth="yes"/>
      <point x="450" y="88"/>
      <point x="446" y="93"/>
      <point x="440" y="93" type="curve" smooth="yes"/>
    </contour>
    <contour>
      <point x="468" y="550" type="move" name="caronslovak"/>
    </contour>
    <contour>
      <point x="244" y="711" type="move" name="top"/>
    </contour>
    <contour>
      <point x="471" y="400" type="move" name="dot"/>
    </contour>
    <contour>
      <point x="220" y="-1" type="move" name="bottom"/>
    </contour>
  </outline>
</glyph>
<glyph name="M" format="1">
  <advance width="800"/>
  <unicode hex="004D"/>
  <outline>
    <contour>
      <point x="110" y="0" type="curve"/>
      <point x="127" y="67"/>
      <point x="143" y="134"/>
      <point x="160" y="201" type="curve" smooth="yes"/>
      <point x="198" y="365"/>
      <point x="236" y="528"/>
      <point x="273" y="689" type="curve" smooth="yes"/>
      <point x="274" y="692"/>
      <point x="274" y="695"/>
      <point x="272" y="697" type="curve" smooth="yes"/>
      <point x="271" y="699"/>
      <point x="268" y="700"/>
      <point x="265" y="700" type="curve" smooth="yes"/>
      <point x="240" y="700"/>
      <point x="215" y="700"/>
      <point x="189" y="700" type="curve"/>
      <point x="180" y="663"/>
      <point x="170" y="625"/>
      <point x="161" y="588" type="curve" smooth="yes"/>
      <point x="113" y="396"/>
      <point x="65" y="203"/>
      <point x="17" y="11" type="curve" smooth="yes"/>
      <point x="16" y="8"/>
      <point x="16" y="5"/>
      <point x="18" y="3" type="curve" smooth="yes"/>
      <point x="19" y="1"/>
      <point x="22" y="0"/>
      <point x="25" y="0" type="curve" smooth="yes"/>
      <point x="53" y="0"/>
      <point x="81" y="0"/>
    </contour>
    <contour>
      <point x="653" y="0" type="curve"/>
      <point x="662" y="37"/>
      <point x="671" y="75"/>
      <point x="681" y="112" type="curve" smooth="yes"/>
      <point x="729" y="304"/>
      <point x="777" y="497"/>
      <point x="825" y="689" type="curve"/>
      <point x="826" y="692"/>
      <point x="826" y="695"/>
      <point x="824" y="697" type="curve" smooth="yes"/>
      <point x="823" y="699"/>
      <point x="820" y="700"/>
      <point x="817" y="700" type="curve" smooth="yes"/>
      <point x="739" y="700" type="line"/>
      <point x="737" y="691"/>
      <point x="734" y="681"/>
      <point x="731" y="671" type="curve"/>
      <point x="689" y="514"/>
      <point x="647" y="358"/>
      <point x="605" y="202" type="curve" smooth="yes"/>
      <point x="589" y="140"/>
      <point x="574" y="77"/>
      <point x="558" y="15" type="curve" smooth="yes"/>
      <point x="556" y="8"/>
      <point x="557" y="5"/>
      <point x="558" y="3" type="curve" smooth="yes"/>
      <point x="560" y="1"/>
      <point x="562" y="0"/>
      <point x="566" y="0" type="curve" smooth="yes"/>
      <point x="595" y="0"/>
      <point x="624" y="0"/>
    </contour>
    <contour>
      <point x="324" y="687" type="curve" smooth="yes"/>
      <point x="322" y="696"/>
      <point x="319" y="700"/>
      <point x="311" y="700" type="curve"/>
      <point x="229" y="700" type="line"/>
      <point x="233" y="680"/>
      <point x="239" y="662"/>
      <point x="242" y="642" type="curve" smooth="yes"/>
      <point x="269" y="474"/>
      <point x="296" y="305"/>
      <point x="322" y="137" type="curve"/>
      <point x="323" y="133"/>
      <point x="328" y="130"/>
      <point x="332" y="130" type="curve" smooth="yes"/>
      <point x="340" y="130"/>
      <point x="344" y="134"/>
      <point x="403" y="200" type="curve"/>
      <point x="376" y="363"/>
      <point x="350" y="525"/>
    </contour>
    <contour>
      <point x="684" y="700" type="curve"/>
      <point x="575" y="534"/>
      <point x="464" y="367"/>
      <point x="355" y="200" type="curve"/>
      <point x="324" y="141"/>
      <point x="329" y="133"/>
      <point x="332" y="130" type="curve"/>
      <point x="404" y="130" type="line"/>
      <point x="523" y="311"/>
      <point x="644" y="492"/>
      <point x="764" y="674" type="curve" smooth="yes"/>
      <point x="778" y="695"/>
      <point x="774" y="700"/>
      <point x="768" y="700" type="curve" smooth="yes"/>
      <point x="754" y="700"/>
      <point x="695" y="700"/>
    </contour>
  </outline>
</glyph>
<glyph name="N" format="1">
  <advance width="700"/>
  <unicode hex="004E"/>
  <outline>
    <contour>
      <point x="112" y="0" type="curve"/>
      <point x="220" y="434" type="line"/>
      <point x="257" y="615"/>
      <point x="271" y="694"/>
      <point x="269" y="697" type="curve" smooth="yes"/>
      <point x="267" y="699"/>
      <point x="264" y="700"/>
      <point x="261" y="700" type="curve"/>
      <point x="240" y="700"/>
      <point x="198" y="700"/>
      <point x="188" y="700" type="curve"/>
      <point x="177" y="653"/>
      <point x="165" y="607"/>
      <point x="153" y="560" type="curve" smooth="yes"/>
      <point x="16" y="11" type="line"/>
      <point x="15" y="5"/>
      <point x="18" y="0"/>
      <point x="24" y="0" type="curve"/>
      <point x="53" y="0"/>
      <point x="83" y="0"/>
    </contour>
    <contour>
      <point x="553" y="0" type="line"/>
      <point x="725" y="689" type="line"/>
      <point x="727" y="695"/>
      <point x="723" y="700"/>
      <point x="717" y="700" type="curve"/>
      <point x="629" y="700" type="line"/>
      <point x="515" y="245" type="line"/>
      <point x="489" y="98"/>
      <point x="475" y="5"/>
      <point x="476" y="3" type="curve" smooth="yes"/>
      <point x="478" y="1"/>
      <point x="481" y="0"/>
      <point x="484" y="0" type="curve"/>
    </contour>
    <contour>
      <point x="256" y="700" type="line"/>
      <point x="242" y="691"/>
      <point x="240" y="689"/>
      <point x="205" y="648" type="curve"/>
      <point x="286" y="434"/>
      <point x="365" y="221"/>
      <point x="446" y="7" type="curve"/>
      <point x="448" y="2"/>
      <point x="451" y="0"/>
      <point x="457" y="0" type="curve" smooth="yes"/>
      <point x="472" y="0"/>
      <point x="483" y="0"/>
      <point x="500" y="0" type="curve"/>
      <point x="505" y="6"/>
      <point x="515" y="60"/>
      <point x="519" y="95" type="curve"/>
      <point x="444" y="293"/>
      <point x="368" y="492"/>
      <point x="294" y="690" type="curve"/>
      <point x="291" y="698"/>
      <point x="288" y="700"/>
      <point x="279" y="700" type="curve"/>
    </contour>
    <contour>
      <point x="461" y="711" type="move" name="top"/>
    </contour>
    <contour>
      <point x="283" y="-1" type="move" name="bottom"/>
    </contour>
  </outline>
</glyph>
<glyph name="Q" format="1">
  <advance width="650"/>
  <unicode hex="0051"/>
  <outline>
    <contour>
      <point x="421" y="720" type="curve" smooth="yes"/>
      <point x="259" y="720"/>
      <point x="155" y="621"/>
      <point x="113" y="454" type="curve" smooth="yes"/>
      <point x="62" y="254" type="line" smooth="yes"/>
      <point x="18" y="77"/>
      <point x="115" y="-20"/>
      <point x="270" y="-20" type="curve" smooth="yes"/>
      <point x="274" y="-20"/>
      <point x="287" y="-6"/>
      <point x="284" y="73" type="curve"/>
      <point x="177" y="73"/>
      <point x="133" y="140"/>
      <point x="160" y="249" type="curve" smooth="yes"/>
      <point x="211" y="450" type="line" smooth="yes"/>
      <point x="237" y="557"/>
      <point x="302" y="627"/>
      <point x="407" y="627" type="curve" smooth="yes"/>
      <point x="457" y="627"/>
      <point x="499" y="627"/>
      <point x="527" y="627" type="curve"/>
      <point x="538" y="671"/>
      <point x="505" y="720"/>
    </contour>
    <contour>
      <point x="270" y="-20" type="curve" smooth="yes"/>
      <point x="429" y="-20"/>
      <point x="533" y="67"/>
      <point x="576" y="236" type="curve" smooth="yes"/>
      <point x="627" y="441" type="line" smooth="yes"/>
      <point x="673" y="621"/>
      <point x="576" y="720"/>
      <point x="421" y="720" type="curve" smooth="yes"/>
      <point x="416" y="720"/>
      <point x="404" y="709"/>
      <point x="407" y="627" type="curve"/>
      <point x="515" y="627"/>
      <point x="559" y="559"/>
      <point x="531" y="451" type="curve" smooth="yes"/>
      <point x="481" y="253" type="line" smooth="yes"/>
      <point x="455" y="146"/>
      <point x="390" y="73"/>
      <point x="284" y="73" type="curve" smooth="yes"/>
      <point x="234" y="73"/>
      <point x="192" y="73"/>
      <point x="165" y="73" type="curve"/>
      <point x="153" y="29"/>
      <point x="186" y="-20"/>
    </contour>
    <contour>
      <point x="417" y="82" type="line"/>
      <point x="329" y="47"/>
      <point x="323" y="40"/>
      <point x="329" y="25" type="curve" smooth="yes"/>
      <point x="378" y="-90" type="line" smooth="yes"/>
      <point x="396" y="-136"/>
      <point x="417" y="-155"/>
      <point x="474" y="-155" type="curve" smooth="yes"/>
      <point x="498" y="-155" type="line" smooth="yes"/>
      <point x="505" y="-155"/>
      <point x="510" y="-151"/>
      <point x="512" y="-144" type="curve" smooth="yes"/>
      <point x="519" y="-113"/>
      <point x="527" y="-82"/>
      <point x="535" y="-52" type="curve"/>
      <point x="527" y="-52" type="line"/>
      <point x="522" y="-52"/>
      <point x="515" y="-52"/>
      <point x="508" y="-52" type="curve" smooth="yes"/>
      <point x="481" y="-52"/>
      <point x="470" y="-47"/>
      <point x="461" y="-23" type="curve" smooth="yes"/>
    </contour>
  </outline>
</glyph>
<glyph name="R" format="1">
  <advance width="600"/>
  <unicode hex="0052"/>
  <outline>
    <contour>
      <point x="122" y="0" type="curve"/>
      <point x="130" y="32"/>
      <point x="138" y="66"/>
      <point x="147" y="100" type="curve" smooth="yes"/>
      <point x="285" y="654" type="line" smooth="yes"/>
      <point x="287" y="660"/>
      <point x="283" y="665"/>
      <point x="188" y="665" type="curve"/>
      <point x="24" y="11" type="line" smooth="yes"/>
      <point x="23" y="8"/>
      <point x="23" y="5"/>
      <point x="25" y="3" type="curve" smooth="yes"/>
      <point x="26" y="1"/>
      <point x="29" y="0"/>
      <point x="32" y="0" type="curve" smooth="yes"/>
      <point x="62" y="0"/>
      <point x="92" y="0"/>
    </contour>
    <contour>
      <point x="143" y="700" type="curve"/>
      <point x="136" y="672"/>
      <point x="131" y="649"/>
      <point x="124" y="621" type="curve"/>
      <point x="123" y="618"/>
      <point x="123" y="615"/>
      <point x="125" y="613" type="curve" smooth="yes"/>
      <point x="126" y="611"/>
      <point x="129" y="610"/>
      <point x="132" y="610" type="curve" smooth="yes"/>
      <point x="150" y="610"/>
      <point x="172" y="610"/>
      <point x="196" y="610" type="curve" smooth="yes"/>
      <point x="252" y="610"/>
      <point x="342" y="610"/>
      <point x="394" y="610" type="curve" smooth="yes"/>
      <point x="447" y="610"/>
      <point x="463" y="610"/>
      <point x="491" y="610" type="curve"/>
      <point x="503" y="663"/>
      <point x="478" y="700"/>
      <point x="411" y="700" type="curve" smooth="yes"/>
      <point x="338" y="700"/>
      <point x="229" y="700"/>
    </contour>
    <contour>
      <point x="567" y="435" type="curve" smooth="yes"/>
      <point x="581" y="488" type="line" smooth="yes"/>
      <point x="617" y="632"/>
      <point x="543" y="700"/>
      <point x="411" y="700" type="curve"/>
      <point x="410" y="700"/>
      <point x="393" y="686"/>
      <point x="394" y="610" type="curve"/>
      <point x="475" y="610"/>
      <point x="498" y="572"/>
      <point x="480" y="501" type="curve" smooth="yes"/>
      <point x="467" y="445" type="line" smooth="yes"/>
      <point x="449" y="376"/>
      <point x="406" y="349"/>
      <point x="332" y="349" type="curve" smooth="yes"/>
      <point x="288" y="349"/>
      <point x="227" y="349"/>
      <point x="178" y="349" type="curve"/>
      <point x="171" y="322"/>
      <point x="167" y="306"/>
      <point x="159" y="275" type="curve" smooth="yes"/>
      <point x="158" y="269"/>
      <point x="161" y="264"/>
      <point x="167" y="264" type="curve" smooth="yes"/>
      <point x="322" y="264" type="line" smooth="yes"/>
      <point x="448" y="264"/>
      <point x="536" y="311"/>
    </contour>
    <contour>
      <point x="383" y="332" type="line"/>
      <point x="295" y="303"/>
      <point x="296" y="295"/>
      <point x="300" y="280" type="curve" smooth="yes"/>
      <point x="360" y="70" type="line" smooth="yes"/>
      <point x="375" y="15"/>
      <point x="401" y="-5"/>
      <point x="459" y="-5" type="curve" smooth="yes"/>
      <point x="481" y="-5" type="line" smooth="yes"/>
      <point x="488" y="-5"/>
      <point x="493" y="-1"/>
      <point x="495" y="6" type="curve" smooth="yes"/>
      <point x="501" y="34"/>
      <point x="509" y="62"/>
      <point x="516" y="90" type="curve"/>
      <point x="508" y="90" type="line"/>
      <point x="503" y="90"/>
      <point x="496" y="90"/>
      <point x="489" y="90" type="curve" smooth="yes"/>
      <point x="460" y="90"/>
      <point x="450" y="98"/>
      <point x="441" y="129" type="curve" smooth="yes"/>
    </contour>
    <contour>
      <point x="408" y="711" type="move" name="top"/>
    </contour>
    <contour>
      <point x="230" y="-1" type="move" name="bottom"/>
    </contour>
  </outline>
</glyph>
<glyph name="T" format="1">
  <advance width="600"/>
  <unicode hex="0054"/>
  <outline>
    <contour>
      <point x="163" y="700" type="line"/>
      <point x="157" y="673"/>
      <point x="150" y="647"/>
      <point x="144" y="621" type="curve" smooth="yes"/>
      <point x="143" y="618"/>
      <point x="143" y="615"/>
      <point x="145" y="613" type="curve" smooth="yes"/>
      <point x="146" y="611"/>
      <point x="149" y="610"/>
      <point x="152" y="610" type="curve" smooth="yes"/>
      <point x="631" y="610" type="line"/>
      <point x="637" y="636"/>
      <point x="643" y="663"/>
      <point x="650" y="689" type="curve" smooth="yes"/>
      <point x="652" y="695"/>
      <point x="648" y="700"/>
      <point x="642" y="700" type="curve" smooth="yes"/>
    </contour>
    <contour>
      <point x="285" y="0" type="curve"/>
      <point x="293" y="32"/>
      <point x="301" y="66"/>
      <point x="310" y="100" type="curve" smooth="yes"/>
      <point x="448" y="654" type="line" smooth="yes"/>
      <point x="450" y="660"/>
      <point x="446" y="665"/>
      <point x="348" y="665" type="curve"/>
      <point x="184" y="11" type="line" smooth="yes"/>
      <point x="183" y="7"/>
      <point x="183" y="4"/>
      <point x="185" y="2" type="curve" smooth="yes"/>
      <point x="187" y="0"/>
      <point x="189" y="0"/>
      <point x="192" y="0" type="curve" smooth="yes"/>
      <point x="223" y="0"/>
      <point x="254" y="0"/>
    </contour>
    <contour>
      <point x="411" y="711" type="move" name="top"/>
    </contour>
    <contour>
      <point x="233" y="-1" type="move" name="bottom"/>
    </contour>
  </outline>
</glyph>
<glyph name="U" format="1">
  <advance width="650"/>
  <unicode hex="0055"/>
  <outline>
    <contour>
      <point x="186" y="700" type="curve"/>
      <point x="178" y="667"/>
      <point x="169" y="633"/>
      <point x="161" y="599" type="curve" smooth="yes"/>
      <point x="56" y="179" type="line"/>
      <point x="45" y="139"/>
      <point x="71" y="111"/>
      <point x="141" y="108" type="curve"/>
      <point x="150" y="145"/>
      <point x="153" y="156"/>
      <point x="163" y="195" type="curve"/>
      <point x="286" y="689" type="line"/>
      <point x="288" y="695"/>
      <point x="284" y="700"/>
      <point x="278" y="700" type="curve"/>
      <point x="247" y="700"/>
      <point x="217" y="700"/>
    </contour>
    <contour>
      <point x="200" y="-15" type="curve" smooth="yes"/>
      <point x="289" y="-15"/>
      <point x="367" y="32"/>
      <point x="436" y="116" type="curve" smooth="yes"/>
      <point x="464" y="150"/>
      <point x="486" y="193"/>
      <point x="471" y="234" type="curve"/>
      <point x="381" y="129"/>
      <point x="309" y="83"/>
      <point x="235" y="83" type="curve" smooth="yes"/>
      <point x="169" y="83"/>
      <point x="144" y="120"/>
      <point x="163" y="195" type="curve"/>
      <point x="93" y="194"/>
      <point x="57" y="185"/>
      <point x="56" y="179" type="curve" smooth="yes"/>
      <point x="27" y="66"/>
      <point x="74" y="-15"/>
    </contour>
    <contour>
      <point x="503" y="0" type="curve"/>
      <point x="511" y="33"/>
      <point x="520" y="68"/>
      <point x="529" y="105" type="curve" smooth="yes"/>
      <point x="675" y="689" type="line" smooth="yes"/>
      <point x="677" y="695"/>
      <point x="673" y="700"/>
      <point x="667" y="700" type="curve" smooth="yes"/>
      <point x="636" y="700"/>
      <point x="605" y="700"/>
      <point x="574" y="700" type="curve"/>
      <point x="402" y="11" type="line" smooth="yes"/>
      <point x="401" y="8"/>
      <point x="402" y="5"/>
      <point x="403" y="3" type="curve" smooth="yes"/>
      <point x="405" y="1"/>
      <point x="407" y="0"/>
      <point x="410" y="0" type="curve" smooth="yes"/>
      <point x="441" y="0"/>
      <point x="472" y="0"/>
    </contour>
    <contour>
      <point x="434" y="711" type="move" name="top"/>
    </contour>
    <contour>
      <point x="502" y="-1" type="move" name="ogonek"/>
    </contour>
    <contour>
      <point x="434" y="711" type="move" name="ring"/>
    </contour>
    <contour>
      <point x="256" y="-1" type="move" name="bottom"/>
    </contour>
  </outline>
</glyph>
<glyph name="V" format="1">
  <advance width="650"/>
  <unicode hex="0056"/>
  <outline>
    <contour>
      <point x="232" y="700" type="curve"/>
      <point x="143" y="700" type="line"/>
      <point x="152" y="469"/>
      <point x="161" y="238"/>
      <point x="171" y="8" type="curve"/>
      <point x="171" y="-1"/>
      <point x="177" y="-5"/>
      <point x="184" y="-5" type="curve"/>
      <point x="225" y="-5"/>
      <point x="287" y="9"/>
      <point x="318" y="84" type="curve"/>
      <point x="298" y="84"/>
      <point x="287" y="84"/>
      <point x="273" y="84" type="curve" smooth="yes"/>
      <point x="266" y="84"/>
      <point x="265" y="85"/>
      <point x="264" y="96" type="curve"/>
      <point x="257" y="293"/>
      <point x="249" y="491"/>
      <point x="242" y="689" type="curve"/>
      <point x="242" y="697"/>
      <point x="238" y="700"/>
    </contour>
    <contour>
      <point x="711" y="700" type="curve"/>
      <point x="618" y="700" type="line"/>
      <point x="505" y="488"/>
      <point x="390" y="274"/>
      <point x="276" y="62" type="curve"/>
      <point x="255" y="17"/>
      <point x="219" y="3"/>
      <point x="184" y="-5" type="curve"/>
      <point x="342" y="-5" type="line"/>
      <point x="467" y="225"/>
      <point x="591" y="455"/>
      <point x="716" y="685" type="curve"/>
      <point x="720" y="694"/>
      <point x="719" y="700"/>
    </contour>
  </outline>
</glyph>
<glyph name="W" format="1">
  <advance width="900"/>
  <unicode hex="0057"/>
  <outline>
    <contour>
      <point x="143" y="700" type="curve"/>
      <point x="136" y="471"/>
      <point x="128" y="241"/>
      <point x="120" y="13" type="curve"/>
      <point x="120" y="4"/>
      <point x="127" y="0"/>
      <point x="134" y="0" type="curve"/>
      <point x="154" y="0" type="line" smooth="yes"/>
      <point x="175" y="0"/>
      <point x="207" y="15"/>
      <point x="216" y="30" type="curve"/>
      <point x="225" y="248"/>
      <point x="235" y="468"/>
      <point x="245" y="686" type="curve"/>
      <point x="245" y="694"/>
      <point x="245" y="696"/>
      <point x="244" y="698" type="curve" smooth="yes"/>
      <point x="243" y="699"/>
      <point x="240" y="700"/>
      <point x="237" y="700" type="curve"/>
      <point x="204" y="700"/>
      <point x="176" y="700"/>
    </contour>
    <contour>
      <point x="865" y="700" type="curve"/>
      <point x="768" y="488"/>
      <point x="670" y="274"/>
      <point x="573" y="62" type="curve"/>
      <point x="559" y="24"/>
      <point x="550" y="8"/>
      <point x="533" y="0" type="curve"/>
      <point x="646" y="0" type="line"/>
      <point x="753" y="229"/>
      <point x="860" y="459"/>
      <point x="967" y="688" type="curve" smooth="yes"/>
      <point x="970" y="693"/>
      <point x="970" y="696"/>
      <point x="968" y="698" type="curve" smooth="yes"/>
      <point x="967" y="699"/>
      <point x="966" y="700"/>
      <point x="962" y="700" type="curve"/>
      <point x="930" y="700"/>
      <point x="897" y="700"/>
    </contour>
    <contour>
      <point x="558" y="612" type="curve"/>
      <point x="484" y="612" type="line"/>
      <point x="388" y="429"/>
      <point x="293" y="245"/>
      <point x="198" y="62" type="curve"/>
      <point x="178" y="21"/>
      <point x="157" y="11"/>
      <point x="134" y="0" type="curve"/>
      <point x="257" y="0" type="line"/>
      <point x="359" y="197"/>
      <point x="462" y="395"/>
      <point x="564" y="592" type="curve" smooth="yes"/>
      <point x="571" y="605"/>
      <point x="568" y="612"/>
    </contour>
    <contour>
      <point x="576" y="612" type="curve"/>
      <point x="499" y="612" type="line"/>
      <point x="502" y="412"/>
      <point x="505" y="212"/>
      <point x="509" y="13" type="curve" smooth="yes"/>
      <point x="508" y="4"/>
      <point x="515" y="0"/>
      <point x="522" y="0" type="curve"/>
      <point x="564" y="0" type="line"/>
      <point x="575" y="0"/>
      <point x="594" y="10"/>
      <point x="594" y="25" type="curve"/>
      <point x="591" y="217"/>
      <point x="588" y="409"/>
      <point x="585" y="601" type="curve" smooth="yes"/>
      <point x="584" y="609"/>
      <point x="581" y="612"/>
    </contour>
    <contour>
      <point x="559" y="711" type="move" name="top"/>
    </contour>
  </outline>
</glyph>
<glyph name="X" format="1">
  <advance width="650"/>
  <unicode hex="0058"/>
  <outline>
    <contour>
      <point x="460" y="0" type="curve" smooth="yes"/>
      <point x="494" y="0"/>
      <point x="522" y="0"/>
      <point x="555" y="0" type="curve"/>
      <point x="501" y="124"/>
      <point x="448" y="248"/>
      <point x="393" y="374" type="curve" smooth="yes"/>
      <point x="387" y="389"/>
      <point x="376" y="396"/>
      <point x="371" y="411" type="curve" smooth="yes"/>
      <point x="331" y="504"/>
      <point x="291" y="598"/>
      <point x="252" y="691" type="curve" smooth="yes"/>
      <point x="249" y="698"/>
      <point x="244" y="700"/>
      <point x="235" y="700" type="curve" smooth="yes"/>
      <point x="141" y="700" type="line"/>
      <point x="191" y="578"/>
      <point x="242" y="458"/>
      <point x="292" y="336" type="curve" smooth="yes"/>
      <point x="297" y="321"/>
      <point x="310" y="312"/>
      <point x="316" y="297" type="curve" smooth="yes"/>
      <point x="358" y="202"/>
      <point x="402" y="103"/>
      <point x="444" y="9" type="curve" smooth="yes"/>
      <point x="447" y="1"/>
      <point x="452" y="0"/>
    </contour>
    <contour>
      <point x="714" y="700" type="curve" smooth="yes"/>
      <point x="609" y="700" type="line"/>
      <point x="511" y="591"/>
      <point x="413" y="483"/>
      <point x="315" y="374" type="curve"/>
      <point x="299" y="357"/>
      <point x="322" y="342"/>
      <point x="383" y="318" type="curve"/>
      <point x="494" y="439"/>
      <point x="605" y="560"/>
      <point x="718" y="684" type="curve"/>
      <point x="724" y="690"/>
      <point x="725" y="694"/>
      <point x="722" y="697" type="curve" smooth="yes"/>
      <point x="721" y="699"/>
      <point x="718" y="700"/>
    </contour>
    <contour>
      <point x="-35" y="0" type="curve"/>
      <point x="70" y="0" type="line"/>
      <point x="170" y="109"/>
      <point x="269" y="217"/>
      <point x="367" y="326" type="curve"/>
      <point x="382" y="343"/>
      <point x="360" y="358"/>
      <point x="300" y="382" type="curve"/>
      <point x="187" y="261"/>
      <point x="73" y="138"/>
      <point x="-39" y="17" type="curve" smooth="yes"/>
      <point x="-45" y="11"/>
      <point x="-46" y="6"/>
      <point x="-43" y="3" type="curve" smooth="yes"/>
      <point x="-42" y="1"/>
      <point x="-39" y="0"/>
    </contour>
  </outline>
</glyph>
<glyph name="Y" format="1">
  <advance width="600"/>
  <unicode hex="0059"/>
  <outline>
    <contour>
      <point x="136" y="700" type="line"/>
      <point x="175" y="554"/>
      <point x="215" y="403"/>
      <point x="253" y="256" type="curve"/>
      <point x="255" y="250"/>
      <point x="261" y="247"/>
      <point x="268" y="247" type="curve"/>
      <point x="305" y="247"/>
      <point x="329" y="298"/>
      <point x="327" y="327" type="curve"/>
      <point x="299" y="446"/>
      <point x="271" y="568"/>
      <point x="243" y="687" type="curve"/>
      <point x="242" y="695"/>
      <point x="239" y="700"/>
      <point x="229" y="700" type="curve" smooth="yes"/>
    </contour>
    <contour>
      <point x="563" y="700" type="line"/>
      <point x="473" y="575"/>
      <point x="384" y="450"/>
      <point x="294" y="326" type="curve"/>
      <point x="267" y="286"/>
      <point x="275" y="260"/>
      <point x="268" y="247" type="curve"/>
      <point x="334" y="247" type="line"/>
      <point x="444" y="391"/>
      <point x="559" y="540"/>
      <point x="670" y="684" type="curve"/>
      <point x="675" y="693"/>
      <point x="672" y="700"/>
      <point x="664" y="700" type="curve"/>
    </contour>
    <contour>
      <point x="283" y="0" type="curve"/>
      <point x="291" y="32"/>
      <point x="299" y="66"/>
      <point x="308" y="100" type="curve" smooth="yes"/>
      <point x="357" y="299" type="line" smooth="yes"/>
      <point x="359" y="305"/>
      <point x="355" y="310"/>
      <point x="257" y="310" type="curve"/>
      <point x="182" y="11" type="line" smooth="yes"/>
      <point x="181" y="8"/>
      <point x="181" y="5"/>
      <point x="183" y="3" type="curve" smooth="yes"/>
      <point x="184" y="1"/>
      <point x="187" y="0"/>
      <point x="190" y="0" type="curve" smooth="yes"/>
      <point x="221" y="0"/>
      <point x="252" y="0"/>
    </contour>
    <contour>
      <point x="411" y="711" type="move" name="top"/>
    </contour>
  </outline>
</glyph>
<glyph name="bracketleft" format="1">
  <advance width="400"/>
  <unicode hex="005B"/>
  <outline>
    <contour>
      <point x="149" y="648" type="curve" smooth="yes"/>
      <point x="-26" y="-52" type="line" smooth="yes"/>
      <point x="-29" y="-62"/>
      <point x="-6" y="-63"/>
      <point x="74" y="-63" type="curve"/>
      <point x="276" y="744" type="line" smooth="yes"/>
      <point x="278" y="750"/>
      <point x="271" y="755"/>
      <point x="245" y="755" type="curve" smooth="yes"/>
      <point x="217" y="755"/>
      <point x="203" y="755"/>
      <point x="176" y="755" type="curve"/>
      <point x="167" y="719"/>
      <point x="158" y="684"/>
    </contour>
    <contour>
      <point x="468" y="661" type="line"/>
      <point x="475" y="690"/>
      <point x="481" y="715"/>
      <point x="489" y="744" type="curve" smooth="yes"/>
      <point x="489" y="747"/>
      <point x="489" y="750"/>
      <point x="487" y="752" type="curve" smooth="yes"/>
      <point x="486" y="754"/>
      <point x="483" y="755"/>
      <point x="480" y="755" type="curve" smooth="yes"/>
      <point x="245" y="755" type="line"/>
      <point x="222" y="666"/>
      <point x="227" y="661"/>
      <point x="231" y="661" type="curve"/>
    </contour>
    <contour>
      <point x="266" y="-146" type="line"/>
      <point x="273" y="-116"/>
      <point x="279" y="-92"/>
      <point x="287" y="-62" type="curve" smooth="yes"/>
      <point x="288" y="-56"/>
      <point x="284" y="-51"/>
      <point x="278" y="-51" type="curve" smooth="yes"/>
      <point x="-26" y="-51" type="line"/>
      <point x="-47" y="-135" type="line" smooth="yes"/>
      <point x="-48" y="-141"/>
      <point x="-44" y="-146"/>
      <point x="-38" y="-146" type="curve" smooth="yes"/>
    </contour>
  </outline>
</glyph>
<glyph name="backslash" format="1">
  <advance width="600"/>
  <unicode hex="005C"/>
  <outline>
    <contour>
      <point x="199" y="750" type="curve"/>
      <point x="241" y="461"/>
      <point x="282" y="170"/>
      <point x="323" y="-119" type="curve" smooth="yes"/>
      <point x="324" y="-127"/>
      <point x="330" y="-130"/>
      <point x="336" y="-130" type="curve" smooth="yes"/>
      <point x="369" y="-130"/>
      <point x="395" y="-130"/>
      <point x="429" y="-130" type="curve"/>
      <point x="423" y="-94"/>
      <point x="418" y="-57"/>
      <point x="413" y="-21" type="curve"/>
      <point x="376" y="233"/>
      <point x="340" y="489"/>
      <point x="303" y="743" type="curve"/>
      <point x="302" y="748"/>
      <point x="299" y="750"/>
      <point x="293" y="750" type="curve" smooth="yes"/>
      <point x="260" y="750"/>
      <point x="232" y="750"/>
    </contour>
  </outline>
</glyph>
<glyph name="bracketright" format="1">
  <advance width="400"/>
  <unicode hex="005D"/>
  <outline>
    <contour>
      <point x="270" y="-38" type="curve" smooth="yes"/>
      <point x="445" y="662" type="line" smooth="yes"/>
      <point x="448" y="672"/>
      <point x="425" y="673"/>
      <point x="345" y="673" type="curve"/>
      <point x="143" y="-134" type="line" smooth="yes"/>
      <point x="141" y="-140"/>
      <point x="148" y="-145"/>
      <point x="175" y="-145" type="curve" smooth="yes"/>
      <point x="202" y="-145"/>
      <point x="216" y="-145"/>
      <point x="243" y="-145" type="curve"/>
      <point x="252" y="-109"/>
      <point x="261" y="-74"/>
    </contour>
    <contour>
      <point x="-48" y="-51" type="line"/>
      <point x="-56" y="-80"/>
      <point x="-62" y="-105"/>
      <point x="-69" y="-134" type="curve" smooth="yes"/>
      <point x="-70" y="-137"/>
      <point x="-69" y="-140"/>
      <point x="-68" y="-142" type="curve" smooth="yes"/>
      <point x="-66" y="-144"/>
      <point x="-64" y="-145"/>
      <point x="-61" y="-145" type="curve" smooth="yes"/>
      <point x="175" y="-145" type="line"/>
      <point x="197" y="-56"/>
      <point x="192" y="-51"/>
      <point x="188" y="-51" type="curve"/>
    </contour>
    <contour>
      <point x="153" y="756" type="line"/>
      <point x="146" y="726"/>
      <point x="140" y="702"/>
      <point x="132" y="672" type="curve" smooth="yes"/>
      <point x="131" y="666"/>
      <point x="135" y="661"/>
      <point x="141" y="661" type="curve" smooth="yes"/>
      <point x="445" y="661" type="line"/>
      <point x="466" y="745" type="line" smooth="yes"/>
      <point x="468" y="751"/>
      <point x="463" y="756"/>
      <point x="457" y="756" type="curve" smooth="yes"/>
    </contour>
  </outline>
</glyph>
<glyph name="asciicircum" format="1">
  <advance width="600"/>
  <unicode hex="005E"/>
  <outline>
    <contour>
      <point x="167" y="366" type="line"/>
      <point x="260" y="492"/>
      <point x="311" y="562"/>
      <point x="404" y="688" type="curve"/>
      <point x="431" y="726"/>
      <point x="441" y="736"/>
      <point x="462" y="750" type="curve"/>
      <point x="346" y="750" type="line"/>
      <point x="243" y="611"/>
      <point x="116" y="438"/>
      <point x="84" y="395" type="curve" smooth="yes"/>
      <point x="74" y="381"/>
      <point x="72" y="377"/>
      <point x="71" y="373" type="curve" smooth="yes"/>
      <point x="70" y="368"/>
      <point x="73" y="366"/>
      <point x="78" y="366" type="curve"/>
    </contour>
    <contour>
      <point x="578" y="366" type="curve"/>
      <point x="545" y="509"/>
      <point x="526" y="595"/>
      <point x="493" y="737" type="curve" smooth="yes"/>
      <point x="491" y="747"/>
      <point x="486" y="750"/>
      <point x="477" y="750" type="curve" smooth="yes"/>
      <point x="453" y="750" type="line" smooth="yes"/>
      <point x="410" y="750"/>
      <point x="349" y="721"/>
      <point x="330" y="653" type="curve"/>
      <point x="357" y="653"/>
      <point x="378" y="653"/>
      <point x="396" y="653" type="curve" smooth="yes"/>
      <point x="404" y="653"/>
      <point x="407" y="652"/>
      <point x="408" y="645" type="curve" smooth="yes"/>
      <point x="435" y="535"/>
      <point x="447" y="483"/>
      <point x="472" y="376" type="curve" smooth="yes"/>
      <point x="475" y="367"/>
      <point x="477" y="366"/>
      <point x="486" y="366" type="curve" smooth="yes"/>
      <point x="518" y="366"/>
      <point x="546" y="366"/>
    </contour>
  </outline>
</glyph>
<glyph name="grave" format="1">
  <advance width="471"/>
  <unicode hex="0060"/>
  <outline>
    <contour>
      <point x="373" y="395" type="curve"/>
      <point x="376" y="502"/>
      <point x="378" y="609"/>
      <point x="381" y="716" type="curve"/>
      <point x="320" y="716"/>
      <point x="289" y="716"/>
      <point x="237" y="716" type="curve" smooth="yes"/>
      <point x="229" y="716"/>
      <point x="224" y="711"/>
      <point x="225" y="703" type="curve" smooth="yes"/>
      <point x="240" y="613"/>
      <point x="257" y="503"/>
      <point x="272" y="402" type="curve" smooth="yes"/>
      <point x="273" y="396"/>
      <point x="276" y="395"/>
      <point x="281" y="395" type="curve" smooth="yes"/>
      <point x="321" y="395"/>
      <point x="348" y="395"/>
    </contour>
  </outline>
</glyph>
<glyph name="a" format="1">
  <advance width="600"/>
  <unicode hex="0061"/>
  <outline>
    <contour>
      <point x="325" y="543" type="curve" smooth="yes"/>
      <point x="248" y="543"/>
      <point x="176" y="525"/>
      <point x="161" y="511" type="curve" smooth="yes"/>
      <point x="158" y="509"/>
      <point x="156" y="505"/>
      <point x="155" y="502" type="curve" smooth="yes"/>
      <point x="149" y="475"/>
      <point x="142" y="449"/>
      <point x="136" y="422" type="curve"/>
      <point x="151" y="422" type="line"/>
      <point x="202" y="440"/>
      <point x="248" y="450"/>
      <point x="318" y="450" type="curve" smooth="yes"/>
      <point x="411" y="450"/>
      <point x="434" y="419"/>
      <point x="416" y="337" type="curve"/>
      <point x="495" y="317"/>
      <point x="510" y="311"/>
      <point x="514" y="324" type="curve"/>
      <point x="550" y="468"/>
      <point x="481" y="543"/>
    </contour>
    <contour>
      <point x="426" y="455" type="curve"/>
      <point x="433" y="420"/>
      <point x="430" y="394"/>
      <point x="418" y="346" type="curve" smooth="yes"/>
      <point x="397" y="262"/>
      <point x="379" y="190"/>
      <point x="358" y="108" type="curve" smooth="yes"/>
      <point x="347" y="64"/>
      <point x="390" y="21"/>
      <point x="455" y="30" type="curve"/>
      <point x="448" y="53"/>
      <point x="451" y="75"/>
      <point x="460" y="113" type="curve" smooth="yes"/>
      <point x="479" y="185"/>
      <point x="487" y="219"/>
      <point x="514" y="324" type="curve" smooth="yes"/>
      <point x="530" y="392"/>
      <point x="515" y="459"/>
    </contour>
    <contour>
      <point x="515" y="81" type="line"/>
      <point x="501" y="81" type="line"/>
      <point x="497" y="81"/>
      <point x="494" y="81"/>
      <point x="490" y="81" type="curve" smooth="yes"/>
      <point x="464" y="81"/>
      <point x="455" y="95"/>
      <point x="457" y="137" type="curve"/>
      <point x="374" y="136"/>
      <point x="362" y="125"/>
      <point x="358" y="108" type="curve" smooth="yes"/>
      <point x="341" y="38"/>
      <point x="380" y="-10"/>
      <point x="460" y="-10" type="curve" smooth="yes"/>
      <point x="482" y="-10" type="line" smooth="yes"/>
      <point x="489" y="-10"/>
      <point x="494" y="-7"/>
      <point x="495" y="1" type="curve"/>
    </contour>
    <contour>
      <point x="134" y="141" type="curve" smooth="yes"/>
      <point x="142" y="170" type="line" smooth="yes"/>
      <point x="152" y="209"/>
      <point x="166" y="234"/>
      <point x="193" y="260" type="curve"/>
      <point x="130" y="269"/>
      <point x="59" y="229"/>
      <point x="44" y="173" type="curve" smooth="yes"/>
      <point x="35" y="138" type="line" smooth="yes"/>
      <point x="14" y="56"/>
      <point x="57" y="-10"/>
      <point x="159" y="-10" type="curve" smooth="yes"/>
      <point x="239" y="-10"/>
      <point x="315" y="25"/>
      <point x="376" y="96" type="curve" smooth="yes"/>
      <point x="387" y="109"/>
      <point x="394" y="131"/>
      <point x="402" y="178" type="curve"/>
      <point x="323" y="105"/>
      <point x="263" y="80"/>
      <point x="192" y="80" type="curve" smooth="yes"/>
      <point x="185" y="80" type="line" smooth="yes"/>
      <point x="141" y="80"/>
      <point x="124" y="103"/>
    </contour>
    <contour>
      <point x="421" y="275" type="curve" smooth="yes"/>
      <point x="407" y="292"/>
      <point x="335" y="309"/>
      <point x="238" y="309" type="curve" smooth="yes"/>
      <point x="135" y="309"/>
      <point x="70" y="263"/>
      <point x="44" y="173" type="curve" smooth="yes"/>
      <point x="42" y="162"/>
      <point x="58" y="155"/>
      <point x="142" y="170" type="curve"/>
      <point x="155" y="213"/>
      <point x="186" y="236"/>
      <point x="241" y="236" type="curve" smooth="yes"/>
      <point x="312" y="236"/>
      <point x="377" y="232"/>
      <point x="425" y="225" type="curve"/>
      <point x="432" y="250"/>
      <point x="431" y="262"/>
    </contour>
    <contour>
      <point x="392" y="544" type="move" name="top"/>
    </contour>
    <contour>
      <point x="448" y="-1" type="move" name="ogonek"/>
    </contour>
    <contour>
      <point x="174" y="-1" type="move" name="bottom"/>
    </contour>
  </outline>
</glyph>
<glyph name="b" format="1">
  <advance width="600"/>
  <unicode hex="0062"/>
  <outline>
    <contour>
      <point x="24" y="0" type="line"/>
      <point x="41" y="0"/>
      <point x="59" y="0"/>
      <point x="76" y="0" type="curve" smooth="yes"/>
      <point x="89" y="0"/>
      <point x="143" y="71"/>
      <point x="150" y="99" type="curve" smooth="yes"/>
      <point x="311" y="739" type="line"/>
      <point x="313" y="745"/>
      <point x="309" y="750"/>
      <point x="303" y="750" type="curve" smooth="yes"/>
      <point x="273" y="750"/>
      <point x="243" y="750"/>
      <point x="213" y="750" type="curve"/>
      <point x="203" y="710"/>
      <point x="192" y="668"/>
      <point x="182" y="627" type="curve" smooth="yes"/>
    </contour>
    <contour>
      <point x="416" y="544" type="curve" smooth="yes"/>
      <point x="352" y="544"/>
      <point x="294" y="514"/>
      <point x="237" y="463" type="curve" smooth="yes"/>
      <point x="197" y="424"/>
      <point x="177" y="389"/>
      <point x="182" y="354" type="curve"/>
      <point x="269" y="424"/>
      <point x="324" y="451"/>
      <point x="386" y="451" type="curve" smooth="yes"/>
      <point x="446" y="451"/>
      <point x="472" y="416"/>
      <point x="450" y="332" type="curve"/>
      <point x="529" y="315"/>
      <point x="548" y="322"/>
      <point x="551" y="332" type="curve" smooth="yes"/>
      <point x="582" y="451"/>
      <point x="532" y="544"/>
    </contour>
    <contour>
      <point x="300" y="-10" type="curve" smooth="yes"/>
      <point x="407" y="-10"/>
      <point x="481" y="43"/>
      <point x="519" y="203" type="curve" smooth="yes"/>
      <point x="551" y="332" type="line" smooth="yes"/>
      <point x="566" y="390"/>
      <point x="540" y="470"/>
      <point x="489" y="470" type="curve"/>
      <point x="469" y="470"/>
      <point x="455" y="463"/>
      <point x="451" y="449" type="curve"/>
      <point x="464" y="413"/>
      <point x="467" y="395"/>
      <point x="450" y="332" type="curve" smooth="yes"/>
      <point x="422" y="214" type="line" smooth="yes"/>
      <point x="398" y="115"/>
      <point x="353" y="81"/>
      <point x="290" y="81" type="curve" smooth="yes"/>
      <point x="230" y="81"/>
      <point x="185" y="103"/>
      <point x="146" y="172" type="curve"/>
      <point x="134" y="161"/>
      <point x="120" y="133"/>
      <point x="122" y="120" type="curve" smooth="yes"/>
      <point x="129" y="64"/>
      <point x="192" y="-10"/>
    </contour>
  </outline>
</glyph>
<glyph name="c" format="1">
  <advance width="500"/>
  <unicode hex="0063"/>
  <outline>
    <contour>
      <point x="370" y="544" type="curve" smooth="yes"/>
      <point x="219" y="544"/>
      <point x="117" y="476"/>
      <point x="79" y="322" type="curve" smooth="yes"/>
      <point x="57" y="233" type="line" smooth="yes"/>
      <point x="20" y="82"/>
      <point x="87" y="-11"/>
      <point x="244" y="-11" type="curve" smooth="yes"/>
      <point x="265" y="-11"/>
      <point x="266" y="4"/>
      <point x="258" y="82" type="curve"/>
      <point x="164" y="82"/>
      <point x="135" y="141"/>
      <point x="158" y="234" type="curve" smooth="yes"/>
      <point x="178" y="313" type="line" smooth="yes"/>
      <point x="203" y="413"/>
      <point x="263" y="451"/>
      <point x="351" y="451" type="curve" smooth="yes"/>
      <point x="406" y="451"/>
      <point x="441" y="436"/>
      <point x="469" y="420" type="curve"/>
      <point x="485" y="420" type="line"/>
      <point x="492" y="448"/>
      <point x="498" y="471"/>
      <point x="505" y="499" type="curve"/>
      <point x="506" y="503"/>
      <point x="505" y="506"/>
      <point x="503" y="509" type="curve" smooth="yes"/>
      <point x="494" y="522"/>
      <point x="444" y="544"/>
    </contour>
    <contour>
      <point x="244" y="-11" type="curve" smooth="yes"/>
      <point x="324" y="-11"/>
      <point x="365" y="10"/>
      <point x="382" y="23" type="curve" smooth="yes"/>
      <point x="385" y="26"/>
      <point x="387" y="28"/>
      <point x="388" y="32" type="curve"/>
      <point x="395" y="58"/>
      <point x="403" y="91"/>
      <point x="410" y="118" type="curve"/>
      <point x="394" y="118" type="line"/>
      <point x="353" y="96"/>
      <point x="312" y="82"/>
      <point x="258" y="82" type="curve" smooth="yes"/>
      <point x="179" y="82"/>
      <point x="139" y="107"/>
      <point x="101" y="157" type="curve"/>
      <point x="56" y="80"/>
      <point x="108" y="-11"/>
    </contour>
    <contour>
      <point x="352" y="544" type="move" name="top"/>
    </contour>
    <contour>
      <point x="216" y="-1" type="move" name="bottom"/>
    </contour>
  </outline>
</glyph>
<glyph name="d" format="1">
  <advance width="600"/>
  <unicode hex="0064"/>
  <outline>
    <contour>
      <point x="300" y="544" type="curve" smooth="yes"/>
      <point x="198" y="544"/>
      <point x="122" y="494"/>
      <point x="87" y="354" type="curve" smooth="yes"/>
      <point x="45" y="189" type="line" smooth="yes"/>
      <point x="31" y="129"/>
      <point x="63" y="65"/>
      <point x="114" y="65" type="curve" smooth="yes"/>
      <point x="134" y="65"/>
      <point x="149" y="72"/>
      <point x="152" y="87" type="curve"/>
      <point x="141" y="119"/>
      <point x="135" y="140"/>
      <point x="150" y="200" type="curve" smooth="yes"/>
      <point x="185" y="341" type="line" smooth="yes"/>
      <point x="205" y="422"/>
      <point x="249" y="450"/>
      <point x="312" y="450" type="curve" smooth="yes"/>
      <point x="360" y="450"/>
      <point x="415" y="421"/>
      <point x="446" y="362" type="curve"/>
      <point x="459" y="368"/>
      <point x="471" y="394"/>
      <point x="470" y="408" type="curve" smooth="yes"/>
      <point x="463" y="468"/>
      <point x="394" y="544"/>
    </contour>
    <contour>
      <point x="172" y="-10" type="curve" smooth="yes"/>
      <point x="240" y="-10"/>
      <point x="302" y="20"/>
      <point x="363" y="79" type="curve" smooth="yes"/>
      <point x="405" y="118"/>
      <point x="418" y="157"/>
      <point x="413" y="189" type="curve"/>
      <point x="322" y="111"/>
      <point x="269" y="82"/>
      <point x="217" y="82" type="curve" smooth="yes"/>
      <point x="152" y="82"/>
      <point x="130" y="120"/>
      <point x="150" y="200" type="curve"/>
      <point x="94" y="213"/>
      <point x="47" y="194"/>
      <point x="45" y="189" type="curve" smooth="yes"/>
      <point x="17" y="73"/>
      <point x="66" y="-10"/>
    </contour>
    <contour>
      <point x="530" y="750" type="curve"/>
      <point x="522" y="716"/>
      <point x="513" y="682"/>
      <point x="505" y="650" type="curve" smooth="yes"/>
      <point x="344" y="11" type="line"/>
      <point x="344" y="8"/>
      <point x="344" y="5"/>
      <point x="345" y="3" type="curve" smooth="yes"/>
      <point x="346" y="1"/>
      <point x="349" y="0"/>
      <point x="352" y="0" type="curve" smooth="yes"/>
      <point x="382" y="0"/>
      <point x="412" y="0"/>
      <point x="442" y="0" type="curve"/>
      <point x="451" y="35"/>
      <point x="462" y="77"/>
      <point x="473" y="124" type="curve" smooth="yes"/>
      <point x="628" y="739" type="line"/>
      <point x="629" y="742"/>
      <point x="629" y="745"/>
      <point x="627" y="747" type="curve" smooth="yes"/>
      <point x="626" y="749"/>
      <point x="623" y="750"/>
      <point x="620" y="750" type="curve" smooth="yes"/>
      <point x="590" y="750"/>
      <point x="560" y="750"/>
    </contour>
    <contour>
      <point x="678" y="711" type="move" name="caronslovak"/>
    </contour>
  </outline>
</glyph>
<glyph name="g" format="1">
  <advance width="600"/>
  <unicode hex="0067"/>
  <outline>
    <contour>
      <point x="344" y="456" type="curve" smooth="yes"/>
      <point x="432" y="456"/>
      <point x="537" y="456"/>
      <point x="608" y="456" type="curve" smooth="yes"/>
      <point x="614" y="456"/>
      <point x="620" y="461"/>
      <point x="622" y="467" type="curve" smooth="yes"/>
      <point x="628" y="491"/>
      <point x="634" y="516"/>
      <point x="640" y="540" type="curve"/>
      <point x="547" y="540"/>
      <point x="453" y="540"/>
      <point x="360" y="540" type="curve" smooth="yes"/>
      <point x="221" y="540"/>
      <point x="128" y="487"/>
      <point x="101" y="379" type="curve" smooth="yes"/>
      <point x="94" y="348" type="line" smooth="yes"/>
      <point x="68" y="246"/>
      <point x="140" y="175"/>
      <point x="276" y="173" type="curve"/>
      <point x="287" y="173"/>
      <point x="303" y="197"/>
      <point x="291" y="253" type="curve"/>
      <point x="225" y="253"/>
      <point x="176" y="284"/>
      <point x="189" y="336" type="curve" smooth="yes"/>
      <point x="197" y="369" type="line" smooth="yes"/>
      <point x="211" y="427"/>
      <point x="269" y="456"/>
    </contour>
    <contour>
      <point x="291" y="253" type="curve" smooth="yes"/>
      <point x="233" y="253"/>
      <point x="184" y="267"/>
      <point x="152" y="293" type="curve"/>
      <point x="122" y="252"/>
      <point x="178" y="173"/>
      <point x="276" y="173" type="curve" smooth="yes"/>
      <point x="405" y="173"/>
      <point x="493" y="224"/>
      <point x="517" y="321" type="curve" smooth="yes"/>
      <point x="524" y="347" type="line" smooth="yes"/>
      <point x="538" y="405"/>
      <point x="497" y="469"/>
      <point x="429" y="469" type="curve" smooth="yes"/>
      <point x="417" y="469"/>
      <point x="407" y="467"/>
      <point x="393" y="463" type="curve"/>
      <point x="431" y="431"/>
      <point x="436" y="388"/>
      <point x="428" y="355" type="curve" smooth="yes"/>
      <point x="422" y="332" type="line" smooth="yes"/>
      <point x="408" y="279"/>
      <point x="363" y="253"/>
    </contour>
    <contour>
      <point x="97" y="92" type="curve" smooth="yes"/>
      <point x="95" y="86" type="line" smooth="yes"/>
      <point x="81" y="27"/>
      <point x="117" y="-10"/>
      <point x="186" y="-10" type="curve" smooth="yes"/>
      <point x="304" y="-10" type="line" smooth="yes"/>
      <point x="371" y="-10"/>
      <point x="389" y="-37"/>
      <point x="378" y="-81" type="curve" smooth="yes"/>
      <point x="373" y="-103" type="line" smooth="yes"/>
      <point x="365" y="-135"/>
      <point x="331" y="-172"/>
      <point x="255" y="-172" type="curve"/>
      <point x="222" y="-237"/>
      <point x="220" y="-250"/>
      <point x="233" y="-250" type="curve" smooth="yes"/>
      <point x="361" y="-250"/>
      <point x="450" y="-201"/>
      <point x="477" y="-92" type="curve" smooth="yes"/>
      <point x="481" y="-75" type="line" smooth="yes"/>
      <point x="502" y="12"/>
      <point x="449" y="77"/>
      <point x="326" y="77" type="curve" smooth="yes"/>
      <point x="218" y="77" type="line" smooth="yes"/>
      <point x="197" y="77"/>
      <point x="191" y="85"/>
      <point x="196" y="106" type="curve" smooth="yes"/>
      <point x="198" y="115" type="line" smooth="yes"/>
      <point x="204" y="137"/>
      <point x="216" y="164"/>
      <point x="236" y="188" type="curve"/>
      <point x="237" y="194"/>
      <point x="235" y="200"/>
      <point x="224" y="201" type="curve" smooth="yes"/>
      <point x="166" y="201"/>
      <point x="109" y="139"/>
    </contour>
    <contour>
      <point x="375" y="-152" type="curve"/>
      <point x="331" y="-170"/>
      <point x="299" y="-172"/>
      <point x="255" y="-172" type="curve" smooth="yes"/>
      <point x="149" y="-172" type="line" smooth="yes"/>
      <point x="72" y="-172"/>
      <point x="44" y="-148"/>
      <point x="57" y="-96" type="curve" smooth="yes"/>
      <point x="63" y="-73" type="line" smooth="yes"/>
      <point x="72" y="-38"/>
      <point x="93" y="-10"/>
      <point x="154" y="11" type="curve"/>
      <point x="156" y="29"/>
      <point x="150" y="44"/>
      <point x="122" y="43" type="curve" smooth="yes"/>
      <point x="39" y="35"/>
      <point x="-24" y="-17"/>
      <point x="-41" y="-87" type="curve" smooth="yes"/>
      <point x="-45" y="-104" type="line" smooth="yes"/>
      <point x="-65" y="-190"/>
      <point x="-5" y="-250"/>
      <point x="107" y="-250" type="curve" smooth="yes"/>
      <point x="233" y="-250" type="line" smooth="yes"/>
      <point x="289" y="-250"/>
      <point x="365" y="-217"/>
    </contour>
  </outline>
</glyph>
<glyph name="h" format="1">
  <advance width="600"/>
  <unicode hex="0068"/>
  <outline>
    <contour>
      <point x="127" y="0" type="curve"/>
      <point x="315" y="740" type="line" smooth="yes"/>
      <point x="315" y="743"/>
      <point x="315" y="746"/>
      <point x="314" y="748" type="curve" smooth="yes"/>
      <point x="312" y="750"/>
      <point x="309" y="751"/>
      <point x="306" y="751" type="curve" smooth="yes"/>
      <point x="278" y="751"/>
      <point x="248" y="751"/>
      <point x="214" y="751" type="curve"/>
      <point x="209" y="729"/>
      <point x="200" y="694"/>
      <point x="189" y="651" type="curve" smooth="yes"/>
      <point x="27" y="11" type="line" smooth="yes"/>
      <point x="25" y="5"/>
      <point x="29" y="0"/>
      <point x="35" y="0" type="curve" smooth="yes"/>
      <point x="66" y="0"/>
      <point x="96" y="0"/>
    </contour>
    <contour>
      <point x="434" y="544" type="curve" smooth="yes"/>
      <point x="364" y="544"/>
      <point x="304" y="512"/>
      <point x="234" y="444" type="curve" smooth="yes"/>
      <point x="205" y="417"/>
      <point x="194" y="387"/>
      <point x="182" y="323" type="curve"/>
      <point x="273" y="411"/>
      <point x="334" y="449"/>
      <point x="390" y="449" type="curve" smooth="yes"/>
      <point x="441" y="449"/>
      <point x="469" y="424"/>
      <point x="460" y="354" type="curve"/>
      <point x="518" y="360"/>
      <point x="538" y="369"/>
      <point x="544" y="392" type="curve" smooth="yes"/>
      <point x="564" y="470"/>
      <point x="527" y="544"/>
    </contour>
    <contour>
      <point x="445" y="0" type="curve"/>
      <point x="454" y="32"/>
      <point x="462" y="65"/>
      <point x="471" y="98" type="curve" smooth="yes"/>
      <point x="544" y="392" type="line"/>
      <point x="559" y="443"/>
      <point x="507" y="468"/>
      <point x="444" y="442" type="curve"/>
      <point x="446" y="420"/>
      <point x="447" y="409"/>
      <point x="437" y="371" type="curve" smooth="yes"/>
      <point x="345" y="11" type="line" smooth="yes"/>
      <point x="343" y="5"/>
      <point x="347" y="0"/>
      <point x="353" y="0" type="curve" smooth="yes"/>
      <point x="384" y="0"/>
      <point x="414" y="0"/>
    </contour>
    <contour>
      <point x="257" y="730" type="move" name="top"/>
    </contour>
  </outline>
</glyph>
<glyph name="i" format="1">
  <advance width="350"/>
  <unicode hex="0069"/>
  <outline>
    <contour>
      <point x="113" y="533" type="curve"/>
      <point x="107" y="507"/>
      <point x="101" y="474"/>
      <point x="94" y="449" type="curve" smooth="yes"/>
      <point x="92" y="443"/>
      <point x="96" y="438"/>
      <point x="102" y="438" type="curve" smooth="yes"/>
      <point x="145" y="438"/>
      <point x="201" y="438"/>
      <point x="235" y="438" type="curve"/>
      <point x="253" y="504"/>
      <point x="250" y="533"/>
      <point x="237" y="533" type="curve" smooth="yes"/>
      <point x="191" y="533"/>
      <point x="159" y="533"/>
    </contour>
    <contour>
      <point x="184" y="0" type="curve"/>
      <point x="194" y="39"/>
      <point x="202" y="77"/>
      <point x="212" y="116" type="curve" smooth="yes"/>
      <point x="316" y="522" type="line" smooth="yes"/>
      <point x="318" y="528"/>
      <point x="314" y="533"/>
      <point x="308" y="533" type="curve" smooth="yes"/>
      <point x="212" y="533" type="line"/>
      <point x="80" y="11" type="line" smooth="yes"/>
      <point x="78" y="5"/>
      <point x="82" y="0"/>
      <point x="88" y="0" type="curve" smooth="yes"/>
      <point x="125" y="0"/>
      <point x="151" y="0"/>
    </contour>
    <contour>
      <point x="365" y="659" type="curve"/>
      <point x="390" y="763" type="line" smooth="yes"/>
      <point x="392" y="769"/>
      <point x="388" y="774"/>
      <point x="382" y="774" type="curve" smooth="yes"/>
      <point x="343" y="774"/>
      <point x="296" y="774"/>
      <point x="257" y="774" type="curve"/>
      <point x="230" y="670" type="line" smooth="yes"/>
      <point x="229" y="664"/>
      <point x="233" y="659"/>
      <point x="239" y="659" type="curve" smooth="yes"/>
      <point x="278" y="659"/>
      <point x="326" y="659"/>
    </contour>
    <contour>
      <point x="385" y="-1" type="move" name="ogonek"/>
    </contour>
    <contour>
      <point x="235" y="-1" type="move" name="bottom"/>
    </contour>
  </outline>
</glyph>
<glyph name="j" format="1">
  <advance width="350"/>
  <unicode hex="006A"/>
  <outline>
    <contour>
      <point x="119" y="533" type="curve"/>
      <point x="112" y="505"/>
      <point x="106" y="473"/>
      <point x="99" y="446" type="curve" smooth="yes"/>
      <point x="98" y="440"/>
      <point x="101" y="435"/>
      <point x="107" y="435" type="curve" smooth="yes"/>
      <point x="169" y="435"/>
      <point x="207" y="435"/>
      <point x="269" y="435" type="curve"/>
      <point x="280" y="478"/>
      <point x="278" y="533"/>
      <point x="250" y="533" type="curve" smooth="yes"/>
      <point x="198" y="533"/>
      <point x="172" y="533"/>
    </contour>
    <contour>
      <point x="182" y="-73" type="curve" smooth="yes"/>
      <point x="331" y="517" type="line" smooth="yes"/>
      <point x="332" y="521"/>
      <point x="332" y="524"/>
      <point x="330" y="527" type="curve" smooth="yes"/>
      <point x="327" y="531"/>
      <point x="322" y="533"/>
      <point x="313" y="533" type="curve" smooth="yes"/>
      <point x="228" y="533" type="line"/>
      <point x="76" y="-68" type="line" smooth="yes"/>
      <point x="60" y="-132"/>
      <point x="46" y="-157"/>
      <point x="0" y="-193" type="curve"/>
      <point x="60" y="-221"/>
      <point x="158" y="-170"/>
    </contour>
    <contour>
      <point x="-8" y="-152" type="curve" smooth="yes"/>
      <point x="-42" y="-152"/>
      <point x="-58" y="-147"/>
      <point x="-78" y="-133" type="curve"/>
      <point x="-94" y="-133" type="line"/>
      <point x="-101" y="-161"/>
      <point x="-105" y="-185"/>
      <point x="-112" y="-213" type="curve" smooth="yes"/>
      <point x="-113" y="-217"/>
      <point x="-113" y="-220"/>
      <point x="-111" y="-223" type="curve" smooth="yes"/>
      <point x="-105" y="-231"/>
      <point x="-77" y="-250"/>
      <point x="-22" y="-250" type="curve" smooth="yes"/>
      <point x="91" y="-250"/>
      <point x="150" y="-199"/>
      <point x="182" y="-73" type="curve" smooth="yes"/>
      <point x="185" y="-61"/>
      <point x="168" y="-54"/>
      <point x="121" y="-58" type="curve"/>
      <point x="83" y="-124"/>
      <point x="41" y="-152"/>
    </contour>
    <contour>
      <point x="384" y="659" type="curve"/>
      <point x="410" y="763" type="line" smooth="yes"/>
      <point x="412" y="769"/>
      <point x="408" y="774"/>
      <point x="402" y="774" type="curve" smooth="yes"/>
      <point x="363" y="774"/>
      <point x="315" y="774"/>
      <point x="276" y="774" type="curve"/>
      <point x="250" y="670" type="line" smooth="yes"/>
      <point x="249" y="664"/>
      <point x="253" y="659"/>
      <point x="259" y="659" type="curve" smooth="yes"/>
      <point x="298" y="659"/>
      <point x="345" y="659"/>
    </contour>
  </outline>
</glyph>
<glyph name="k" format="1">
  <advance width="600"/>
  <unicode hex="006B"/>
  <outline>
    <contour>
      <point x="122" y="0" type="curve"/>
      <point x="310" y="739" type="line" smooth="yes"/>
      <point x="311" y="743"/>
      <point x="311" y="746"/>
      <point x="309" y="748" type="curve" smooth="yes"/>
      <point x="307" y="750"/>
      <point x="305" y="750"/>
      <point x="302" y="750" type="curve" smooth="yes"/>
      <point x="273" y="750"/>
      <point x="248" y="750"/>
      <point x="214" y="750" type="curve"/>
      <point x="209" y="728"/>
      <point x="200" y="693"/>
      <point x="189" y="651" type="curve" smooth="yes"/>
      <point x="27" y="11" type="line" smooth="yes"/>
      <point x="25" y="4"/>
      <point x="29" y="0"/>
      <point x="35" y="0" type="curve" smooth="yes"/>
      <point x="66" y="0"/>
      <point x="91" y="0"/>
    </contour>
    <contour>
      <point x="476" y="533" type="line"/>
      <point x="343" y="422"/>
      <point x="236" y="334"/>
      <point x="104" y="224" type="curve"/>
      <point x="91" y="170"/>
      <point x="123" y="135"/>
      <point x="148" y="157" type="curve" smooth="yes"/>
      <point x="299" y="278"/>
      <point x="430" y="382"/>
      <point x="591" y="511" type="curve" smooth="yes"/>
      <point x="601" y="519"/>
      <point x="603" y="523"/>
      <point x="603" y="526" type="curve" smooth="yes"/>
      <point x="604" y="530"/>
      <point x="601" y="533"/>
      <point x="596" y="533" type="curve"/>
    </contour>
    <contour>
      <point x="401" y="0" type="curve" smooth="yes"/>
      <point x="451" y="0"/>
      <point x="463" y="0"/>
      <point x="499" y="0" type="curve"/>
      <point x="437" y="111"/>
      <point x="376" y="222"/>
      <point x="315" y="332" type="curve"/>
      <point x="245" y="272"/>
      <point x="246" y="263"/>
      <point x="252" y="248" type="curve" smooth="yes"/>
      <point x="269" y="214"/>
      <point x="371" y="30"/>
      <point x="382" y="9" type="curve" smooth="yes"/>
      <point x="386" y="2"/>
      <point x="391" y="0"/>
    </contour>
    <contour>
      <point x="261" y="-1" type="move" name="bottom"/>
    </contour>
  </outline>
</glyph>
<glyph name="l" format="1">
  <advance width="300"/>
  <unicode hex="006C"/>
  <outline>
    <contour>
      <point x="174" y="640" type="curve"/>
      <point x="49" y="141" type="line" smooth="yes"/>
      <point x="32" y="75"/>
      <point x="70" y="28"/>
      <point x="133" y="52" type="curve"/>
      <point x="135" y="83"/>
      <point x="141" y="116"/>
      <point x="149" y="148" type="curve" smooth="yes"/>
      <point x="297" y="739" type="line" smooth="yes"/>
      <point x="298" y="742"/>
      <point x="297" y="745"/>
      <point x="296" y="747" type="curve" smooth="yes"/>
      <point x="294" y="749"/>
      <point x="292" y="750"/>
      <point x="289" y="750" type="curve" smooth="yes"/>
      <point x="260" y="750"/>
      <point x="230" y="750"/>
      <point x="201" y="750" type="curve"/>
      <point x="192" y="713"/>
      <point x="183" y="677"/>
    </contour>
    <contour>
      <point x="234" y="93" type="curve"/>
      <point x="219" y="93" type="line"/>
      <point x="208" y="93"/>
      <point x="198" y="93"/>
      <point x="187" y="93" type="curve" smooth="yes"/>
      <point x="150" y="93"/>
      <point x="139" y="106"/>
      <point x="149" y="148" type="curve"/>
      <point x="82" y="156"/>
      <point x="54" y="161"/>
      <point x="49" y="141" type="curve" smooth="yes"/>
      <point x="24" y="40"/>
      <point x="71" y="0"/>
      <point x="154" y="0" type="curve" smooth="yes"/>
      <point x="199" y="0" type="line" smooth="yes"/>
      <point x="202" y="0"/>
      <point x="206" y="1"/>
      <point x="208" y="3" type="curve" smooth="yes"/>
      <point x="211" y="5"/>
      <point x="212" y="7"/>
      <point x="213" y="11" type="curve" smooth="yes"/>
      <point x="220" y="40"/>
      <point x="226" y="64"/>
    </contour>
    <contour>
      <point x="440" y="711" type="move" name="caronslovak"/>
    </contour>
    <contour>
      <point x="246" y="730" type="move" name="top"/>
    </contour>
    <contour>
      <point x="362" y="400" type="move" name="dot"/>
    </contour>
    <contour>
      <point x="111" y="-1" type="move" name="bottom"/>
    </contour>
  </outline>
</glyph>
<glyph name="m" format="1">
  <advance width="850"/>
  <unicode hex="006D"/>
  <outline>
    <contour>
      <point x="129" y="0" type="curve"/>
      <point x="261" y="522" type="line" smooth="yes"/>
      <point x="262" y="525"/>
      <point x="262" y="528"/>
      <point x="260" y="530" type="curve" smooth="yes"/>
      <point x="259" y="532"/>
      <point x="256" y="533"/>
      <point x="253" y="533" type="curve" smooth="yes"/>
      <point x="225" y="533"/>
      <point x="194" y="533"/>
      <point x="160" y="533" type="curve"/>
      <point x="155" y="511"/>
      <point x="146" y="476"/>
      <point x="136" y="434" type="curve" smooth="yes"/>
      <point x="28" y="11" type="line" smooth="yes"/>
      <point x="27" y="5"/>
      <point x="30" y="0"/>
      <point x="36" y="0" type="curve" smooth="yes"/>
      <point x="67" y="0"/>
      <point x="98" y="0"/>
    </contour>
    <contour>
      <point x="422" y="544" type="curve" smooth="yes"/>
      <point x="360" y="544"/>
      <point x="298" y="511"/>
      <point x="238" y="447" type="curve" smooth="yes"/>
      <point x="212" y="420"/>
      <point x="196" y="391"/>
      <point x="203" y="331" type="curve"/>
      <point x="274" y="416"/>
      <point x="328" y="445"/>
      <point x="372" y="445" type="curve" smooth="yes"/>
      <point x="404" y="445"/>
      <point x="418" y="417"/>
      <point x="404" y="362" type="curve"/>
      <point x="461" y="356"/>
      <point x="509" y="373"/>
      <point x="515" y="393" type="curve" smooth="yes"/>
      <point x="534" y="470"/>
      <point x="507" y="544"/>
    </contour>
    <contour>
      <point x="415" y="0" type="curve"/>
      <point x="515" y="393" type="line"/>
      <point x="520" y="413"/>
      <point x="504" y="447"/>
      <point x="427" y="452" type="curve"/>
      <point x="420" y="422"/>
      <point x="411" y="391"/>
      <point x="404" y="362" type="curve" smooth="yes"/>
      <point x="314" y="11" type="line" smooth="yes"/>
      <point x="313" y="5"/>
      <point x="317" y="0"/>
      <point x="323" y="0" type="curve" smooth="yes"/>
      <point x="355" y="0"/>
      <point x="383" y="0"/>
    </contour>
    <contour>
      <point x="697" y="544" type="curve" smooth="yes"/>
      <point x="635" y="544"/>
      <point x="575" y="511"/>
      <point x="515" y="449" type="curve" smooth="yes"/>
      <point x="490" y="423"/>
      <point x="477" y="397"/>
      <point x="481" y="338" type="curve"/>
      <point x="554" y="414"/>
      <point x="604" y="445"/>
      <point x="652" y="445" type="curve" smooth="yes"/>
      <point x="686" y="445"/>
      <point x="706" y="424"/>
      <point x="691" y="367" type="curve"/>
      <point x="742" y="362"/>
      <point x="796" y="373"/>
      <point x="801" y="390" type="curve" smooth="yes"/>
      <point x="820" y="470"/>
      <point x="790" y="544"/>
    </contour>
    <contour>
      <point x="702" y="0" type="curve"/>
      <point x="710" y="32"/>
      <point x="719" y="64"/>
      <point x="726" y="96" type="curve" smooth="yes"/>
      <point x="801" y="390" type="line"/>
      <point x="807" y="413"/>
      <point x="787" y="446"/>
      <point x="713" y="452" type="curve"/>
      <point x="706" y="422"/>
      <point x="699" y="397"/>
      <point x="691" y="367" type="curve" smooth="yes"/>
      <point x="601" y="11" type="line" smooth="yes"/>
      <point x="599" y="5"/>
      <point x="603" y="0"/>
      <point x="609" y="0" type="curve" smooth="yes"/>
      <point x="641" y="0"/>
      <point x="670" y="0"/>
    </contour>
  </outline>
</glyph>
<glyph name="n" format="1">
  <advance width="600"/>
  <unicode hex="006E"/>
  <outline>
    <contour>
      <point x="127" y="0" type="curve"/>
      <point x="258" y="522" type="line" smooth="yes"/>
      <point x="259" y="525"/>
      <point x="259" y="528"/>
      <point x="257" y="530" type="curve" smooth="yes"/>
      <point x="255" y="532"/>
      <point x="253" y="533"/>
      <point x="250" y="533" type="curve" smooth="yes"/>
      <point x="221" y="533"/>
      <point x="191" y="533"/>
      <point x="158" y="533" type="curve"/>
      <point x="152" y="511"/>
      <point x="143" y="476"/>
      <point x="133" y="434" type="curve" smooth="yes"/>
      <point x="27" y="11" type="line" smooth="yes"/>
      <point x="25" y="5"/>
      <point x="29" y="0"/>
      <point x="35" y="0" type="curve" smooth="yes"/>
      <point x="66" y="0"/>
      <point x="96" y="0"/>
    </contour>
    <contour>
      <point x="436" y="544" type="curve" smooth="yes"/>
      <point x="365" y="544"/>
      <point x="302" y="508"/>
      <point x="232" y="434" type="curve" smooth="yes"/>
      <point x="205" y="405"/>
      <point x="182" y="363"/>
      <point x="187" y="310" type="curve"/>
      <point x="270" y="406"/>
      <point x="333" y="443"/>
      <point x="385" y="443" type="curve" smooth="yes"/>
      <point x="429" y="443"/>
      <point x="446" y="416"/>
      <point x="433" y="364" type="curve"/>
      <point x="523" y="365"/>
      <point x="538" y="375"/>
      <point x="542" y="389" type="curve" smooth="yes"/>
      <point x="562" y="469"/>
      <point x="528" y="544"/>
    </contour>
    <contour>
      <point x="445" y="0" type="curve"/>
      <point x="453" y="32"/>
      <point x="461" y="65"/>
      <point x="470" y="97" type="curve" smooth="yes"/>
      <point x="542" y="389" type="line"/>
      <point x="551" y="426"/>
      <point x="504" y="458"/>
      <point x="446" y="436" type="curve"/>
      <point x="445" y="415"/>
      <point x="442" y="400"/>
      <point x="433" y="364" type="curve" smooth="yes"/>
      <point x="345" y="11" type="line" smooth="yes"/>
      <point x="343" y="5"/>
      <point x="347" y="0"/>
      <point x="353" y="0" type="curve" smooth="yes"/>
      <point x="384" y="0"/>
      <point x="414" y="0"/>
    </contour>
    <contour>
      <point x="436" y="711" type="move" name="caronslovak"/>
    </contour>
    <contour>
      <point x="403" y="544" type="move" name="top"/>
    </contour>
    <contour>
      <point x="201" y="-1" type="move" name="bottom"/>
    </contour>
  </outline>
</glyph>
<glyph name="o" format="1">
  <advance width="600"/>
  <unicode hex="006F"/>
  <outline>
    <contour>
      <point x="356" y="544" type="curve" smooth="yes"/>
      <point x="209" y="544"/>
      <point x="122" y="467"/>
      <point x="86" y="323" type="curve" smooth="yes"/>
      <point x="62" y="229" type="line" smooth="yes"/>
      <point x="26" y="91"/>
      <point x="95" y="-11"/>
      <point x="243" y="-11" type="curve" smooth="yes"/>
      <point x="257" y="-11"/>
      <point x="266" y="9"/>
      <point x="260" y="81" type="curve"/>
      <point x="153" y="81"/>
      <point x="140" y="153"/>
      <point x="158" y="222" type="curve" smooth="yes"/>
      <point x="183" y="319" type="line" smooth="yes"/>
      <point x="205" y="405"/>
      <point x="258" y="454"/>
      <point x="343" y="454" type="curve" smooth="yes"/>
      <point x="395" y="454"/>
      <point x="429" y="442"/>
      <point x="458" y="414" type="curve"/>
      <point x="505" y="464"/>
      <point x="459" y="544"/>
    </contour>
    <contour>
      <point x="243" y="-11" type="curve" smooth="yes"/>
      <point x="387" y="-11"/>
      <point x="478" y="64"/>
      <point x="514" y="208" type="curve" smooth="yes"/>
      <point x="538" y="303" type="line" smooth="yes"/>
      <point x="572" y="441"/>
      <point x="496" y="544"/>
      <point x="356" y="544" type="curve" smooth="yes"/>
      <point x="343" y="544"/>
      <point x="329" y="526"/>
      <point x="343" y="454" type="curve"/>
      <point x="448" y="454"/>
      <point x="459" y="379"/>
      <point x="441" y="310" type="curve" smooth="yes"/>
      <point x="416" y="214" type="line" smooth="yes"/>
      <point x="394" y="130"/>
      <point x="343" y="81"/>
      <point x="260" y="81" type="curve" smooth="yes"/>
      <point x="207" y="81"/>
      <point x="169" y="91"/>
      <point x="140" y="119" type="curve"/>
      <point x="93" y="69"/>
      <point x="139" y="-11"/>
    </contour>
    <contour>
      <point x="403" y="544" type="move" name="top"/>
    </contour>
    <contour>
      <point x="271" y="-1" type="move" name="ogonek"/>
    </contour>
    <contour>
      <point x="200" y="-1" type="move" name="bottom"/>
    </contour>
  </outline>
</glyph>
<glyph name="q" format="1">
  <advance width="600"/>
  <unicode hex="0071"/>
  <outline>
    <contour>
      <point x="308" y="544" type="curve" smooth="yes"/>
      <point x="199" y="544"/>
      <point x="122" y="484"/>
      <point x="82" y="327" type="curve" smooth="yes"/>
      <point x="44" y="184" type="line" smooth="yes"/>
      <point x="30" y="125"/>
      <point x="63" y="64"/>
      <point x="114" y="64" type="curve" smooth="yes"/>
      <point x="135" y="64"/>
      <point x="149" y="71"/>
      <point x="153" y="86" type="curve"/>
      <point x="141" y="118"/>
      <point x="132" y="129"/>
      <point x="148" y="191" type="curve" smooth="yes"/>
      <point x="179" y="313" type="line" smooth="yes"/>
      <point x="203" y="413"/>
      <point x="250" y="450"/>
      <point x="316" y="450" type="curve" smooth="yes"/>
      <point x="374" y="450"/>
      <point x="416" y="423"/>
      <point x="448" y="364" type="curve"/>
      <point x="460" y="369"/>
      <point x="473" y="395"/>
      <point x="472" y="410" type="curve" smooth="yes"/>
      <point x="468" y="470"/>
      <point x="405" y="544"/>
    </contour>
    <contour>
      <point x="168" y="-10" type="curve" smooth="yes"/>
      <point x="241" y="-10"/>
      <point x="301" y="22"/>
      <point x="363" y="78" type="curve" smooth="yes"/>
      <point x="405" y="117"/>
      <point x="418" y="157"/>
      <point x="412" y="190" type="curve"/>
      <point x="322" y="111"/>
      <point x="269" y="82"/>
      <point x="209" y="82" type="curve" smooth="yes"/>
      <point x="152" y="82"/>
      <point x="129" y="116"/>
      <point x="148" y="191" type="curve"/>
      <point x="92" y="205"/>
      <point x="46" y="190"/>
      <point x="44" y="184" type="curve" smooth="yes"/>
      <point x="16" y="68"/>
      <point x="67" y="-10"/>
    </contour>
    <contour>
      <point x="390" y="-210" type="curve"/>
      <point x="552" y="433" type="line" smooth="yes"/>
      <point x="560" y="466"/>
      <point x="568" y="500"/>
      <point x="577" y="533" type="curve"/>
      <point x="547" y="533"/>
      <point x="517" y="533"/>
      <point x="487" y="533" type="curve" smooth="yes"/>
      <point x="483" y="533"/>
      <point x="480" y="532"/>
      <point x="478" y="530" type="curve" smooth="yes"/>
      <point x="476" y="528"/>
      <point x="474" y="525"/>
      <point x="473" y="522" type="curve" smooth="yes"/>
      <point x="291" y="-199" type="line" smooth="yes"/>
      <point x="289" y="-206"/>
      <point x="294" y="-210"/>
      <point x="300" y="-210" type="curve" smooth="yes"/>
      <point x="330" y="-210"/>
      <point x="360" y="-210"/>
    </contour>
  </outline>
</glyph>
<glyph name="s" format="1">
  <advance width="550"/>
  <unicode hex="0073"/>
  <outline>
    <contour>
      <point x="365" y="543" type="curve" smooth="yes"/>
      <point x="358" y="543" type="line" smooth="yes"/>
      <point x="223" y="543"/>
      <point x="134" y="491"/>
      <point x="111" y="399" type="curve" smooth="yes"/>
      <point x="100" y="357"/>
      <point x="141" y="329"/>
      <point x="194" y="329" type="curve"/>
      <point x="197" y="346"/>
      <point x="205" y="374"/>
      <point x="209" y="388" type="curve" smooth="yes"/>
      <point x="218" y="425"/>
      <point x="264" y="448"/>
      <point x="343" y="448" type="curve" smooth="yes"/>
      <point x="413" y="448"/>
      <point x="453" y="436"/>
      <point x="496" y="415" type="curve"/>
      <point x="512" y="415" type="line"/>
      <point x="518" y="444"/>
      <point x="525" y="469"/>
      <point x="531" y="497" type="curve"/>
      <point x="533" y="501"/>
      <point x="533" y="503"/>
      <point x="531" y="506" type="curve" smooth="yes"/>
      <point x="521" y="519"/>
      <point x="457" y="543"/>
    </contour>
    <contour>
      <point x="349" y="301" type="curve" smooth="yes"/>
      <point x="266" y="318" type="line" smooth="yes"/>
      <point x="207" y="331"/>
      <point x="201" y="357"/>
      <point x="209" y="388" type="curve" smooth="yes"/>
      <point x="213" y="404"/>
      <point x="218" y="426"/>
      <point x="225" y="451" type="curve"/>
      <point x="166" y="451"/>
      <point x="119" y="432"/>
      <point x="111" y="399" type="curve"/>
      <point x="92" y="323"/>
      <point x="125" y="264"/>
      <point x="227" y="245" type="curve" smooth="yes"/>
      <point x="305" y="229" type="line" smooth="yes"/>
      <point x="375" y="214"/>
      <point x="382" y="185"/>
      <point x="374" y="153" type="curve" smooth="yes"/>
      <point x="369" y="133"/>
      <point x="365" y="114"/>
      <point x="360" y="93" type="curve"/>
      <point x="425" y="94"/>
      <point x="464" y="109"/>
      <point x="472" y="141" type="curve" smooth="yes"/>
      <point x="488" y="210"/>
      <point x="459" y="280"/>
    </contour>
    <contour>
      <point x="231" y="85" type="curve" smooth="yes"/>
      <point x="145" y="85"/>
      <point x="97" y="102"/>
      <point x="47" y="137" type="curve"/>
      <point x="31" y="137" type="line"/>
      <point x="25" y="112"/>
      <point x="19" y="86"/>
      <point x="11" y="53" type="curve" smooth="yes"/>
      <point x="10" y="49"/>
      <point x="10" y="47"/>
      <point x="12" y="45" type="curve" smooth="yes"/>
      <point x="26" y="26"/>
      <point x="105" y="-10"/>
      <point x="211" y="-10" type="curve" smooth="yes"/>
      <point x="221" y="-10" type="line" smooth="yes"/>
      <point x="353" y="-10"/>
      <point x="444" y="34"/>
      <point x="472" y="141" type="curve" smooth="yes"/>
      <point x="480" y="181"/>
      <point x="445" y="216"/>
      <point x="389" y="216" type="curve"/>
      <point x="383" y="193"/>
      <point x="378" y="172"/>
      <point x="374" y="153" type="curve" smooth="yes"/>
      <point x="363" y="113"/>
      <point x="323" y="85"/>
    </contour>
    <contour>
      <point x="271" y="544" type="move" name="top"/>
    </contour>
    <contour>
      <point x="271" y="-1" type="move" name="bottom"/>
    </contour>
  </outline>
</glyph>
<glyph name="t" format="1">
  <advance width="500"/>
  <unicode hex="0074"/>
  <outline>
    <contour>
      <point x="252" y="700" type="curve"/>
      <point x="128" y="207" type="line" smooth="yes"/>
      <point x="105" y="114"/>
      <point x="144" y="39"/>
      <point x="242" y="53" type="curve"/>
      <point x="214" y="104"/>
      <point x="206" y="130"/>
      <point x="226" y="210" type="curve" smooth="yes"/>
      <point x="347" y="689" type="line" smooth="yes"/>
      <point x="349" y="695"/>
      <point x="345" y="700"/>
      <point x="339" y="700" type="curve" smooth="yes"/>
      <point x="311" y="700"/>
      <point x="281" y="700"/>
    </contour>
    <contour>
      <point x="392" y="94" type="curve"/>
      <point x="377" y="94" type="line"/>
      <point x="351" y="94"/>
      <point x="346" y="94"/>
      <point x="308" y="94" type="curve" smooth="yes"/>
      <point x="228" y="94"/>
      <point x="204" y="120"/>
      <point x="226" y="210" type="curve"/>
      <point x="150" y="229"/>
      <point x="133" y="223"/>
      <point x="128" y="207" type="curve" smooth="yes"/>
      <point x="93" y="64"/>
      <point x="159" y="0"/>
      <point x="284" y="0" type="curve" smooth="yes"/>
      <point x="357" y="0" type="line" smooth="yes"/>
      <point x="360" y="0"/>
      <point x="363" y="1"/>
      <point x="366" y="3" type="curve" smooth="yes"/>
      <point x="368" y="5"/>
      <point x="370" y="7"/>
      <point x="371" y="11" type="curve" smooth="yes"/>
      <point x="378" y="40"/>
      <point x="384" y="65"/>
    </contour>
    <contour>
      <point x="112" y="533" type="line"/>
      <point x="104" y="504"/>
      <point x="98" y="481"/>
      <point x="91" y="452" type="curve" smooth="yes"/>
      <point x="90" y="449"/>
      <point x="90" y="446"/>
      <point x="92" y="444" type="curve" smooth="yes"/>
      <point x="93" y="442"/>
      <point x="96" y="441"/>
      <point x="99" y="441" type="curve"/>
      <point x="478" y="441" type="line"/>
      <point x="486" y="470"/>
      <point x="491" y="493"/>
      <point x="498" y="522" type="curve" smooth="yes"/>
      <point x="500" y="528"/>
      <point x="496" y="533"/>
      <point x="490" y="533" type="curve"/>
    </contour>
    <contour>
      <point x="503" y="711" type="move" name="caronslovak"/>
    </contour>
    <contour>
      <point x="223" y="-1" type="move" name="bottom"/>
    </contour>
  </outline>
</glyph>
<glyph name="u" format="1">
  <advance width="600"/>
  <unicode hex="0075"/>
  <outline>
    <contour>
      <point x="476" y="533" type="curve"/>
      <point x="344" y="11" type="line" smooth="yes"/>
      <point x="343" y="7"/>
      <point x="343" y="4"/>
      <point x="345" y="2" type="curve" smooth="yes"/>
      <point x="346" y="1"/>
      <point x="349" y="0"/>
      <point x="353" y="0" type="curve" smooth="yes"/>
      <point x="381" y="0"/>
      <point x="411" y="0"/>
      <point x="444" y="0" type="curve"/>
      <point x="450" y="22"/>
      <point x="458" y="57"/>
      <point x="469" y="99" type="curve" smooth="yes"/>
      <point x="576" y="522" type="line" smooth="yes"/>
      <point x="577" y="528"/>
      <point x="574" y="533"/>
      <point x="568" y="533" type="curve" smooth="yes"/>
      <point x="537" y="533"/>
      <point x="507" y="533"/>
    </contour>
    <contour>
      <point x="166" y="-11" type="curve" smooth="yes"/>
      <point x="237" y="-11"/>
      <point x="300" y="25"/>
      <point x="370" y="100" type="curve" smooth="yes"/>
      <point x="398" y="129"/>
      <point x="420" y="169"/>
      <point x="415" y="223" type="curve"/>
      <point x="332" y="127"/>
      <point x="269" y="90"/>
      <point x="217" y="90" type="curve" smooth="yes"/>
      <point x="171" y="90"/>
      <point x="154" y="111"/>
      <point x="169" y="170" type="curve"/>
      <point x="80" y="169"/>
      <point x="64" y="161"/>
      <point x="60" y="145" type="curve" smooth="yes"/>
      <point x="40" y="63"/>
      <point x="74" y="-11"/>
    </contour>
    <contour>
      <point x="158" y="533" type="curve"/>
      <point x="150" y="501"/>
      <point x="141" y="468"/>
      <point x="133" y="436" type="curve" smooth="yes"/>
      <point x="60" y="145" type="line"/>
      <point x="51" y="108"/>
      <point x="98" y="75"/>
      <point x="156" y="97" type="curve"/>
      <point x="157" y="118"/>
      <point x="160" y="133"/>
      <point x="169" y="170" type="curve" smooth="yes"/>
      <point x="258" y="522" type="line" smooth="yes"/>
      <point x="259" y="528"/>
      <point x="256" y="533"/>
      <point x="250" y="533" type="curve" smooth="yes"/>
      <point x="219" y="533"/>
      <point x="189" y="533"/>
    </contour>
    <contour>
      <point x="369" y="544" type="move" name="top"/>
    </contour>
    <contour>
      <point x="444" y="-1" type="move" name="ogonek"/>
    </contour>
    <contour>
      <point x="213" y="-1" type="move" name="bottom"/>
    </contour>
  </outline>
</glyph>
<glyph name="v" format="1">
  <advance width="600"/>
  <unicode hex="0076"/>
  <outline>
    <contour>
      <point x="607" y="533" type="curve" smooth="yes"/>
      <point x="513" y="533" type="line"/>
      <point x="423" y="375"/>
      <point x="333" y="220"/>
      <point x="242" y="62" type="curve"/>
      <point x="221" y="22"/>
      <point x="212" y="11"/>
      <point x="187" y="0" type="curve"/>
      <point x="306" y="0" type="line"/>
      <point x="409" y="173"/>
      <point x="511" y="345"/>
      <point x="613" y="518" type="curve"/>
      <point x="618" y="526"/>
      <point x="615" y="533"/>
    </contour>
    <contour>
      <point x="201" y="533" type="curve" smooth="yes"/>
      <point x="112" y="533" type="line"/>
      <point x="127" y="359"/>
      <point x="142" y="186"/>
      <point x="157" y="13" type="curve"/>
      <point x="158" y="4"/>
      <point x="163" y="0"/>
      <point x="172" y="0" type="curve" smooth="yes"/>
      <point x="193" y="0" type="line" smooth="yes"/>
      <point x="234" y="0"/>
      <point x="309" y="22"/>
      <point x="327" y="92" type="curve"/>
      <point x="300" y="92"/>
      <point x="275" y="92"/>
      <point x="253" y="92" type="curve" smooth="yes"/>
      <point x="247" y="92"/>
      <point x="245" y="94"/>
      <point x="244" y="101" type="curve"/>
      <point x="234" y="241"/>
      <point x="224" y="377"/>
      <point x="213" y="518" type="curve"/>
      <point x="213" y="528"/>
      <point x="209" y="533"/>
    </contour>
  </outline>
</glyph>
<glyph name="w" format="1">
  <advance width="800"/>
  <unicode hex="0077"/>
  <outline>
    <contour>
      <point x="113" y="533" type="curve"/>
      <point x="111" y="360"/>
      <point x="108" y="186"/>
      <point x="106" y="13" type="curve"/>
      <point x="106" y="4"/>
      <point x="111" y="0"/>
      <point x="119" y="0" type="curve"/>
      <point x="157" y="0" type="line" smooth="yes"/>
      <point x="188" y="12"/>
      <point x="190" y="28"/>
      <point x="194" y="41" type="curve"/>
      <point x="201" y="201"/>
      <point x="207" y="361"/>
      <point x="214" y="521" type="curve"/>
      <point x="214" y="526"/>
      <point x="213" y="529"/>
      <point x="212" y="531" type="curve" smooth="yes"/>
      <point x="210" y="532"/>
      <point x="208" y="533"/>
      <point x="204" y="533" type="curve"/>
      <point x="172" y="533"/>
      <point x="145" y="533"/>
    </contour>
    <contour>
      <point x="423" y="533" type="curve"/>
      <point x="342" y="376"/>
      <point x="261" y="219"/>
      <point x="179" y="62" type="curve"/>
      <point x="159" y="25"/>
      <point x="153" y="16"/>
      <point x="136" y="0" type="curve"/>
      <point x="234" y="0" type="line"/>
      <point x="321" y="162"/>
      <point x="406" y="323"/>
      <point x="494" y="492" type="curve"/>
      <point x="505" y="522"/>
      <point x="506" y="529"/>
      <point x="505" y="533" type="curve" smooth="yes"/>
      <point x="481" y="533"/>
      <point x="447" y="533"/>
    </contour>
    <contour>
      <point x="433" y="484" type="curve"/>
      <point x="436" y="327"/>
      <point x="439" y="170"/>
      <point x="442" y="13" type="curve"/>
      <point x="443" y="3"/>
      <point x="448" y="0"/>
      <point x="455" y="0" type="curve"/>
      <point x="497" y="0" type="line" smooth="yes"/>
      <point x="518" y="15"/>
      <point x="523" y="28"/>
      <point x="524" y="36" type="curve"/>
      <point x="522" y="198"/>
      <point x="520" y="358"/>
      <point x="517" y="520" type="curve"/>
      <point x="517" y="528"/>
      <point x="513" y="533"/>
      <point x="505" y="533" type="curve" smooth="yes"/>
      <point x="492" y="533"/>
      <point x="483" y="527"/>
    </contour>
    <contour>
      <point x="728" y="533" type="curve"/>
      <point x="655" y="377"/>
      <point x="582" y="222"/>
      <point x="509" y="66" type="curve"/>
      <point x="492" y="31"/>
      <point x="482" y="20"/>
      <point x="470" y="0" type="curve"/>
      <point x="572" y="0" type="line"/>
      <point x="657" y="171"/>
      <point x="742" y="342"/>
      <point x="826" y="512" type="curve"/>
      <point x="832" y="523"/>
      <point x="830" y="529"/>
      <point x="829" y="531" type="curve" smooth="yes"/>
      <point x="827" y="532"/>
      <point x="825" y="533"/>
      <point x="822" y="533" type="curve"/>
      <point x="790" y="533"/>
      <point x="759" y="533"/>
    </contour>
    <contour>
      <point x="464" y="544" type="move" name="top"/>
    </contour>
  </outline>
</glyph>
<glyph name="x" format="1">
  <advance width="600"/>
  <unicode hex="0078"/>
  <outline>
    <contour>
      <point x="379" y="0" type="curve" smooth="yes"/>
      <point x="413" y="0"/>
      <point x="438" y="0"/>
      <point x="472" y="0" type="curve"/>
      <point x="432" y="97"/>
      <point x="391" y="194"/>
      <point x="351" y="291" type="curve" smooth="yes"/>
      <point x="347" y="301"/>
      <point x="337" y="306"/>
      <point x="333" y="316" type="curve" smooth="yes"/>
      <point x="305" y="384"/>
      <point x="277" y="453"/>
      <point x="249" y="521" type="curve" smooth="yes"/>
      <point x="245" y="529"/>
      <point x="240" y="533"/>
      <point x="231" y="533" type="curve" smooth="yes"/>
      <point x="197" y="533"/>
      <point x="172" y="533"/>
      <point x="138" y="533" type="curve"/>
      <point x="176" y="438"/>
      <point x="214" y="345"/>
      <point x="253" y="250" type="curve" smooth="yes"/>
      <point x="259" y="239"/>
      <point x="269" y="234"/>
      <point x="273" y="224" type="curve" smooth="yes"/>
      <point x="302" y="153"/>
      <point x="332" y="82"/>
      <point x="361" y="12" type="curve" smooth="yes"/>
      <point x="364" y="4"/>
      <point x="370" y="0"/>
    </contour>
    <contour>
      <point x="592" y="533" type="curve" smooth="yes"/>
      <point x="488" y="533" type="line"/>
      <point x="424" y="458"/>
      <point x="361" y="385"/>
      <point x="296" y="310" type="curve" smooth="yes"/>
      <point x="285" y="296"/>
      <point x="270" y="310"/>
      <point x="258" y="297" type="curve" smooth="yes"/>
      <point x="175" y="207"/>
      <point x="93" y="117"/>
      <point x="10" y="27" type="curve" smooth="yes"/>
      <point x="1" y="17"/>
      <point x="-1" y="13"/>
      <point x="-2" y="9" type="curve" smooth="yes"/>
      <point x="-3" y="3"/>
      <point x="0" y="0"/>
      <point x="8" y="0" type="curve" smooth="yes"/>
      <point x="113" y="0" type="line"/>
      <point x="179" y="76"/>
      <point x="244" y="152"/>
      <point x="310" y="227" type="curve" smooth="yes"/>
      <point x="323" y="244"/>
      <point x="335" y="229"/>
      <point x="349" y="244" type="curve" smooth="yes"/>
      <point x="431" y="334"/>
      <point x="513" y="423"/>
      <point x="595" y="512" type="curve" smooth="yes"/>
      <point x="599" y="516"/>
      <point x="601" y="520"/>
      <point x="602" y="524" type="curve" smooth="yes"/>
      <point x="602" y="530"/>
      <point x="598" y="533"/>
    </contour>
  </outline>
</glyph>
<glyph name="y" format="1">
  <advance width="600"/>
  <unicode hex="0079"/>
  <outline>
    <contour>
      <point x="608" y="533" type="curve" smooth="yes"/>
      <point x="575" y="533"/>
      <point x="543" y="532"/>
      <point x="516" y="532" type="curve"/>
      <point x="403" y="323"/>
      <point x="219" y="-14"/>
      <point x="176" y="-92" type="curve" smooth="yes"/>
      <point x="151" y="-138"/>
      <point x="116" y="-159"/>
      <point x="71" y="-159" type="curve" smooth="yes"/>
      <point x="-20" y="-159" type="line"/>
      <point x="-40" y="-239" type="line" smooth="yes"/>
      <point x="-42" y="-247"/>
      <point x="-39" y="-250"/>
      <point x="-32" y="-250" type="curve" smooth="yes"/>
      <point x="62" y="-250" type="line" smooth="yes"/>
      <point x="156" y="-250"/>
      <point x="210" y="-213"/>
      <point x="266" y="-110" type="curve" smooth="yes"/>
      <point x="369" y="80"/>
      <point x="503" y="315"/>
      <point x="616" y="517" type="curve" smooth="yes"/>
      <point x="621" y="527"/>
      <point x="615" y="533"/>
    </contour>
    <contour>
      <point x="199" y="533" type="curve" smooth="yes"/>
      <point x="167" y="533"/>
      <point x="140" y="533"/>
      <point x="111" y="533" type="curve"/>
      <point x="129" y="361"/>
      <point x="166" y="18"/>
      <point x="166" y="9" type="curve" smooth="yes"/>
      <point x="167" y="3"/>
      <point x="170" y="0"/>
      <point x="176" y="0" type="curve" smooth="yes"/>
      <point x="264" y="0" type="line" smooth="yes"/>
      <point x="286" y="0"/>
      <point x="306" y="19"/>
      <point x="323" y="82" type="curve"/>
      <point x="261" y="82" type="line"/>
      <point x="257" y="82"/>
      <point x="255" y="84"/>
      <point x="255" y="89" type="curve" smooth="yes"/>
      <point x="252" y="106"/>
      <point x="218" y="435"/>
      <point x="215" y="520" type="curve" smooth="yes"/>
      <point x="214" y="530"/>
      <point x="210" y="533"/>
    </contour>
    <contour>
      <point x="342" y="544" type="move" name="top"/>
    </contour>
  </outline>
</glyph>
<glyph name="z" format="1">
  <advance width="550"/>
  <unicode hex="007A"/>
  <outline>
    <contour>
      <point x="142" y="533" type="line"/>
      <point x="135" y="504"/>
      <point x="130" y="482"/>
      <point x="123" y="453" type="curve" smooth="yes"/>
      <point x="122" y="449"/>
      <point x="123" y="446"/>
      <point x="124" y="445" type="curve" smooth="yes"/>
      <point x="126" y="443"/>
      <point x="129" y="442"/>
      <point x="132" y="442" type="curve" smooth="yes"/>
      <point x="427" y="442" type="line" smooth="yes"/>
      <point x="467" y="442"/>
      <point x="504" y="440"/>
      <point x="536" y="446" type="curve"/>
      <point x="553" y="522" type="line" smooth="yes"/>
      <point x="554" y="525"/>
      <point x="554" y="528"/>
      <point x="552" y="530" type="curve" smooth="yes"/>
      <point x="551" y="532"/>
      <point x="548" y="533"/>
      <point x="545" y="533" type="curve" smooth="yes"/>
    </contour>
    <contour>
      <point x="439" y="475" type="curve"/>
      <point x="302" y="345"/>
      <point x="167" y="215"/>
      <point x="30" y="86" type="curve"/>
      <point x="16" y="34"/>
      <point x="96" y="33"/>
      <point x="134" y="67" type="curve" smooth="yes"/>
      <point x="293" y="214"/>
      <point x="536" y="444"/>
      <point x="536" y="446" type="curve"/>
      <point x="541" y="469"/>
      <point x="503" y="475"/>
    </contour>
    <contour>
      <point x="421" y="0" type="line"/>
      <point x="428" y="30"/>
      <point x="433" y="50"/>
      <point x="440" y="80" type="curve"/>
      <point x="442" y="86"/>
      <point x="438" y="91"/>
      <point x="432" y="91" type="curve" smooth="yes"/>
      <point x="145" y="91" type="line" smooth="yes"/>
      <point x="102" y="91"/>
      <point x="72" y="95"/>
      <point x="30" y="86" type="curve"/>
      <point x="10" y="12" type="line" smooth="yes"/>
      <point x="8" y="7"/>
      <point x="9" y="5"/>
      <point x="11" y="3" type="curve" smooth="yes"/>
      <point x="13" y="1"/>
      <point x="15" y="0"/>
      <point x="18" y="0" type="curve" smooth="yes"/>
    </contour>
    <contour>
      <point x="281" y="544" type="move" name="top"/>
    </contour>
  </outline>
</glyph>
<glyph name="braceleft" format="1">
  <advance width="500"/>
  <unicode hex="007B"/>
  <outline>
    <contour>
      <point x="427" y="665" type="curve" smooth="yes"/>
      <point x="489" y="665"/>
      <point x="501" y="665"/>
      <point x="555" y="665" type="curve"/>
      <point x="575" y="665" type="line"/>
      <point x="582" y="693"/>
      <point x="589" y="721"/>
      <point x="596" y="749" type="curve"/>
      <point x="598" y="756"/>
      <point x="595" y="760"/>
      <point x="588" y="760" type="curve" smooth="yes"/>
      <point x="416" y="760" type="line" smooth="yes"/>
      <point x="336" y="760"/>
      <point x="293" y="699"/>
      <point x="284" y="662" type="curve" smooth="yes"/>
      <point x="283" y="658" type="line" smooth="yes"/>
      <point x="281" y="649"/>
      <point x="288" y="645"/>
      <point x="370" y="622" type="curve"/>
      <point x="382" y="654"/>
      <point x="397" y="665"/>
    </contour>
    <contour>
      <point x="395" y="446" type="curve" smooth="yes"/>
      <point x="416" y="531"/>
      <point x="357" y="561"/>
      <point x="369" y="608" type="curve" smooth="yes"/>
      <point x="372" y="619"/>
      <point x="382" y="659"/>
      <point x="387" y="679" type="curve"/>
      <point x="290" y="672"/>
      <point x="285" y="668"/>
      <point x="284" y="662" type="curve" smooth="yes"/>
      <point x="272" y="614" type="line" smooth="yes"/>
      <point x="251" y="532"/>
      <point x="313" y="511"/>
      <point x="296" y="445" type="curve" smooth="yes"/>
      <point x="281" y="383"/>
      <point x="203" y="347"/>
      <point x="86" y="347" type="curve" smooth="yes"/>
      <point x="54" y="347" type="line"/>
      <point x="38" y="286" type="line" smooth="yes"/>
      <point x="36" y="277"/>
      <point x="42" y="272"/>
      <point x="50" y="272" type="curve" smooth="yes"/>
      <point x="67" y="272" type="line" smooth="yes"/>
      <point x="259" y="272"/>
      <point x="370" y="347"/>
    </contour>
    <contour>
      <point x="322" y="153" type="curve" smooth="yes"/>
      <point x="347" y="254"/>
      <point x="275" y="328"/>
      <point x="81" y="328" type="curve" smooth="yes"/>
      <point x="70" y="328"/>
      <point x="60" y="328"/>
      <point x="49" y="328" type="curve"/>
      <point x="33" y="264" type="line" smooth="yes"/>
      <point x="31" y="257"/>
      <point x="34" y="253"/>
      <point x="41" y="253" type="curve" smooth="yes"/>
      <point x="62" y="253" type="line" smooth="yes"/>
      <point x="179" y="253"/>
      <point x="238" y="214"/>
      <point x="223" y="153" type="curve" smooth="yes"/>
      <point x="207" y="88"/>
      <point x="135" y="67"/>
      <point x="114" y="-15" type="curve" smooth="yes"/>
      <point x="103" y="-63" type="line" smooth="yes"/>
      <point x="101" y="-69"/>
      <point x="105" y="-73"/>
      <point x="197" y="-78" type="curve"/>
      <point x="203" y="-55"/>
      <point x="209" y="-32"/>
      <point x="215" y="-9" type="curve" smooth="yes"/>
      <point x="226" y="38"/>
      <point x="300" y="68"/>
    </contour>
    <contour>
      <point x="244" y="-66" type="curve" smooth="yes"/>
      <point x="214" y="-66"/>
      <point x="205" y="-55"/>
      <point x="209" y="-23" type="curve"/>
      <point x="116" y="-46"/>
      <point x="106" y="-50"/>
      <point x="104" y="-59" type="curve" smooth="yes"/>
      <point x="103" y="-63" type="line" smooth="yes"/>
      <point x="93" y="-100"/>
      <point x="106" y="-161"/>
      <point x="186" y="-161" type="curve" smooth="yes"/>
      <point x="358" y="-161" type="line" smooth="yes"/>
      <point x="365" y="-161"/>
      <point x="370" y="-157"/>
      <point x="372" y="-150" type="curve"/>
      <point x="392" y="-66" type="line"/>
      <point x="372" y="-66" type="line"/>
      <point x="318" y="-66"/>
      <point x="306" y="-66"/>
    </contour>
  </outline>
</glyph>
<glyph name="bar" format="1">
  <advance width="300"/>
  <unicode hex="007C"/>
  <outline>
    <contour>
      <point x="222" y="760" type="curve"/>
      <point x="213" y="726"/>
      <point x="205" y="692"/>
      <point x="196" y="657" type="curve" smooth="yes"/>
      <point x="-6" y="-150" type="line" smooth="yes"/>
      <point x="-7" y="-156"/>
      <point x="-3" y="-161"/>
      <point x="3" y="-161" type="curve" smooth="yes"/>
      <point x="34" y="-161"/>
      <point x="64" y="-161"/>
      <point x="95" y="-161" type="curve"/>
      <point x="322" y="749" type="line" smooth="yes"/>
      <point x="323" y="752"/>
      <point x="323" y="755"/>
      <point x="321" y="757" type="curve" smooth="yes"/>
      <point x="320" y="759"/>
      <point x="317" y="760"/>
      <point x="314" y="760" type="curve" smooth="yes"/>
      <point x="283" y="760"/>
      <point x="253" y="760"/>
    </contour>
  </outline>
</glyph>
<glyph name="braceright" format="1">
  <advance width="500"/>
  <unicode hex="007D"/>
  <outline>
    <contour>
      <point x="94" y="-47" type="curve" smooth="yes"/>
      <point x="33" y="-47"/>
      <point x="21" y="-47"/>
      <point x="-34" y="-47" type="curve"/>
      <point x="-54" y="-47" type="line"/>
      <point x="-61" y="-75"/>
      <point x="-68" y="-103"/>
      <point x="-75" y="-131" type="curve"/>
      <point x="-77" y="-138"/>
      <point x="-74" y="-142"/>
      <point x="-67" y="-142" type="curve" smooth="yes"/>
      <point x="105" y="-142" type="line" smooth="yes"/>
      <point x="186" y="-142"/>
      <point x="228" y="-81"/>
      <point x="237" y="-44" type="curve" smooth="yes"/>
      <point x="238" y="-40" type="line" smooth="yes"/>
      <point x="241" y="-31"/>
      <point x="234" y="-27"/>
      <point x="151" y="-4" type="curve"/>
      <point x="140" y="-35"/>
      <point x="125" y="-47"/>
    </contour>
    <contour>
      <point x="127" y="173" type="curve" smooth="yes"/>
      <point x="105" y="88"/>
      <point x="164" y="57"/>
      <point x="153" y="10" type="curve" smooth="yes"/>
      <point x="150" y="-1"/>
      <point x="140" y="-40"/>
      <point x="135" y="-60" type="curve"/>
      <point x="231" y="-54"/>
      <point x="236" y="-50"/>
      <point x="237" y="-44" type="curve" smooth="yes"/>
      <point x="249" y="4" type="line" smooth="yes"/>
      <point x="270" y="86"/>
      <point x="209" y="108"/>
      <point x="225" y="173" type="curve" smooth="yes"/>
      <point x="241" y="235"/>
      <point x="319" y="271"/>
      <point x="436" y="271" type="curve" smooth="yes"/>
      <point x="468" y="271" type="line"/>
      <point x="483" y="333" type="line" smooth="yes"/>
      <point x="485" y="341"/>
      <point x="480" y="346"/>
      <point x="472" y="346" type="curve" smooth="yes"/>
      <point x="454" y="346" type="line" smooth="yes"/>
      <point x="263" y="346"/>
      <point x="151" y="271"/>
    </contour>
    <contour>
      <point x="200" y="466" type="curve" smooth="yes"/>
      <point x="175" y="364"/>
      <point x="246" y="291"/>
      <point x="440" y="291" type="curve" smooth="yes"/>
      <point x="451" y="291"/>
      <point x="461" y="291"/>
      <point x="472" y="291" type="curve"/>
      <point x="488" y="355" type="line" smooth="yes"/>
      <point x="490" y="362"/>
      <point x="487" y="366"/>
      <point x="480" y="366" type="curve" smooth="yes"/>
      <point x="459" y="366" type="line" smooth="yes"/>
      <point x="342" y="366"/>
      <point x="283" y="404"/>
      <point x="298" y="465" type="curve" smooth="yes"/>
      <point x="315" y="531"/>
      <point x="386" y="552"/>
      <point x="407" y="634" type="curve" smooth="yes"/>
      <point x="419" y="682" type="line" smooth="yes"/>
      <point x="420" y="687"/>
      <point x="416" y="692"/>
      <point x="324" y="696" type="curve"/>
      <point x="318" y="673"/>
      <point x="313" y="650"/>
      <point x="307" y="627" type="curve" smooth="yes"/>
      <point x="295" y="581"/>
      <point x="221" y="551"/>
    </contour>
    <contour>
      <point x="277" y="685" type="curve" smooth="yes"/>
      <point x="308" y="685"/>
      <point x="317" y="673"/>
      <point x="312" y="641" type="curve"/>
      <point x="406" y="665"/>
      <point x="416" y="669"/>
      <point x="418" y="678" type="curve" smooth="yes"/>
      <point x="419" y="682" type="line" smooth="yes"/>
      <point x="428" y="718"/>
      <point x="416" y="779"/>
      <point x="335" y="779" type="curve" smooth="yes"/>
      <point x="164" y="779" type="line" smooth="yes"/>
      <point x="157" y="779"/>
      <point x="152" y="775"/>
      <point x="150" y="768" type="curve"/>
      <point x="129" y="685" type="line"/>
      <point x="149" y="685" type="line"/>
      <point x="204" y="685"/>
      <point x="216" y="685"/>
    </contour>
  </outline>
</glyph>
<glyph name="exclamdown" format="1">
  <advance width="400"/>
  <unicode hex="00A1"/>
  <outline>
    <contour>
      <point x="163" y="269" type="line"/>
      <point x="135" y="189"/>
      <point x="107" y="110"/>
      <point x="79" y="31" type="curve"/>
      <point x="33" y="-156" type="line" smooth="yes"/>
      <point x="31" y="-163"/>
      <point x="34" y="-167"/>
      <point x="40" y="-167" type="curve" smooth="yes"/>
      <point x="86" y="-167"/>
      <point x="123" y="-167"/>
      <point x="153" y="-167" type="curve"/>
      <point x="163" y="-129"/>
      <point x="171" y="-94"/>
      <point x="181" y="-57" type="curve" smooth="yes"/>
      <point x="203" y="31" type="line"/>
      <point x="238" y="257"/>
      <point x="238" y="262"/>
      <point x="235" y="266" type="curve" smooth="yes"/>
      <point x="233" y="268"/>
      <point x="232" y="269"/>
      <point x="228" y="269" type="curve"/>
    </contour>
    <contour>
      <point x="188" y="540" type="curve"/>
      <point x="151" y="392" type="line" smooth="yes"/>
      <point x="150" y="386"/>
      <point x="153" y="381"/>
      <point x="159" y="381" type="curve" smooth="yes"/>
      <point x="205" y="381"/>
      <point x="263" y="381"/>
      <point x="309" y="381" type="curve"/>
      <point x="346" y="529" type="line" smooth="yes"/>
      <point x="348" y="535"/>
      <point x="344" y="540"/>
      <point x="338" y="540" type="curve" smooth="yes"/>
      <point x="292" y="540"/>
      <point x="234" y="540"/>
    </contour>
  </outline>
</glyph>
<glyph name="cent" format="1">
  <advance width="600"/>
  <unicode hex="00A2"/>
  <outline>
    <contour>
      <point x="403" y="394" type="line"/>
      <point x="538" y="759" type="line" smooth="yes"/>
      <point x="541" y="768"/>
      <point x="537" y="772"/>
      <point x="531" y="772" type="curve" smooth="yes"/>
      <point x="493" y="772"/>
      <point x="477" y="772"/>
      <point x="440" y="772" type="curve"/>
      <point x="432" y="741"/>
      <point x="425" y="711"/>
      <point x="417" y="681" type="curve"/>
      <point x="352" y="419" type="line" smooth="yes"/>
      <point x="350" y="411"/>
      <point x="352" y="407"/>
      <point x="359" y="405" type="curve" smooth="yes"/>
    </contour>
    <contour>
      <point x="324" y="306" type="line"/>
      <point x="189" y="-59" type="line" smooth="yes"/>
      <point x="186" y="-68"/>
      <point x="190" y="-72"/>
      <point x="196" y="-72" type="curve" smooth="yes"/>
      <point x="234" y="-72"/>
      <point x="250" y="-72"/>
      <point x="287" y="-72" type="curve"/>
      <point x="295" y="-42"/>
      <point x="302" y="-11"/>
      <point x="310" y="19" type="curve"/>
      <point x="375" y="280" type="line" smooth="yes"/>
      <point x="377" y="288"/>
      <point x="375" y="293"/>
      <point x="368" y="294" type="curve" smooth="yes"/>
    </contour>
    <contour>
      <point x="431" y="628" type="curve" smooth="yes"/>
      <point x="279" y="628"/>
      <point x="151" y="539"/>
      <point x="113" y="388" type="curve" smooth="yes"/>
      <point x="93" y="309" type="line" smooth="yes"/>
      <point x="56" y="158"/>
      <point x="124" y="74"/>
      <point x="290" y="74" type="curve" smooth="yes"/>
      <point x="303" y="74"/>
      <point x="314" y="94"/>
      <point x="312" y="171" type="curve"/>
      <point x="207" y="171"/>
      <point x="171" y="219"/>
      <point x="196" y="316" type="curve" smooth="yes"/>
      <point x="212" y="383" type="line" smooth="yes"/>
      <point x="238" y="486"/>
      <point x="306" y="531"/>
      <point x="406" y="531" type="curve" smooth="yes"/>
      <point x="467" y="531"/>
      <point x="507" y="516"/>
      <point x="548" y="492" type="curve"/>
      <point x="564" y="492" type="line"/>
      <point x="571" y="518"/>
      <point x="578" y="546"/>
      <point x="585" y="576" type="curve" smooth="yes"/>
      <point x="587" y="580"/>
      <point x="586" y="583"/>
      <point x="584" y="586" type="curve" smooth="yes"/>
      <point x="572" y="602"/>
      <point x="521" y="628"/>
    </contour>
    <contour>
      <point x="145" y="245" type="curve"/>
      <point x="98" y="141"/>
      <point x="155" y="74"/>
      <point x="290" y="74" type="curve" smooth="yes"/>
      <point x="374" y="74"/>
      <point x="443" y="96"/>
      <point x="467" y="116" type="curve" smooth="yes"/>
      <point x="470" y="118"/>
      <point x="471" y="121"/>
      <point x="472" y="124" type="curve"/>
      <point x="479" y="152"/>
      <point x="486" y="180"/>
      <point x="493" y="209" type="curve"/>
      <point x="477" y="209" type="line"/>
      <point x="422" y="185"/>
      <point x="375" y="171"/>
      <point x="312" y="171" type="curve" smooth="yes"/>
      <point x="226" y="171"/>
      <point x="183" y="196"/>
    </contour>
  </outline>
</glyph>
<glyph name="sterling" format="1">
  <advance width="600"/>
  <unicode hex="00A3"/>
  <outline>
    <contour>
      <point x="459" y="623" type="curve" smooth="yes"/>
      <point x="515" y="623"/>
      <point x="546" y="609"/>
      <point x="585" y="581" type="curve"/>
      <point x="600" y="581" type="line"/>
      <point x="606" y="602"/>
      <point x="613" y="632"/>
      <point x="622" y="669" type="curve" smooth="yes"/>
      <point x="623" y="672"/>
      <point x="623" y="674"/>
      <point x="622" y="676" type="curve" smooth="yes"/>
      <point x="607" y="696"/>
      <point x="559" y="720"/>
      <point x="482" y="720" type="curve" smooth="yes"/>
      <point x="343" y="720"/>
      <point x="247" y="641"/>
      <point x="222" y="541" type="curve" smooth="yes"/>
      <point x="216" y="520" type="line" smooth="yes"/>
      <point x="213" y="505"/>
      <point x="223" y="504"/>
      <point x="316" y="523" type="curve"/>
      <point x="333" y="591"/>
      <point x="379" y="623"/>
    </contour>
    <contour>
      <point x="216" y="520" type="curve" smooth="yes"/>
      <point x="188" y="405"/>
      <point x="164" y="312"/>
      <point x="134" y="189" type="curve" smooth="yes"/>
      <point x="118" y="126"/>
      <point x="72" y="91"/>
      <point x="20" y="91" type="curve" smooth="yes"/>
      <point x="15" y="91"/>
      <point x="10" y="91"/>
      <point x="5" y="91" type="curve"/>
      <point x="1" y="91" type="line"/>
      <point x="-5" y="64"/>
      <point x="-11" y="43"/>
      <point x="-19" y="11" type="curve" smooth="yes"/>
      <point x="-21" y="3"/>
      <point x="-17" y="0"/>
      <point x="-10" y="0" type="curve" smooth="yes"/>
      <point x="-5" y="0" type="line" smooth="yes"/>
      <point x="101" y="0"/>
      <point x="199" y="58"/>
      <point x="236" y="205" type="curve" smooth="yes"/>
      <point x="264" y="317"/>
      <point x="289" y="418"/>
      <point x="316" y="523" type="curve" smooth="yes"/>
      <point x="323" y="552"/>
      <point x="330" y="580"/>
      <point x="337" y="608" type="curve"/>
      <point x="282" y="608"/>
      <point x="230" y="576"/>
    </contour>
    <contour>
      <point x="-5" y="0" type="curve"/>
      <point x="169" y="0"/>
      <point x="271" y="0"/>
      <point x="402" y="0" type="curve" smooth="yes"/>
      <point x="467" y="0" type="line" smooth="yes"/>
      <point x="475" y="0"/>
      <point x="479" y="3"/>
      <point x="481" y="11" type="curve"/>
      <point x="488" y="38"/>
      <point x="494" y="64"/>
      <point x="501" y="91" type="curve"/>
      <point x="481" y="91" type="line"/>
      <point x="457" y="91"/>
      <point x="438" y="91"/>
      <point x="407" y="91" type="curve" smooth="yes"/>
      <point x="309" y="91"/>
      <point x="237" y="91"/>
      <point x="86" y="91" type="curve"/>
      <point x="-10" y="7"/>
      <point x="-10" y="0"/>
    </contour>
    <contour>
      <point x="96" y="389" type="line"/>
      <point x="89" y="361"/>
      <point x="87" y="353"/>
      <point x="80" y="325" type="curve" smooth="yes"/>
      <point x="79" y="322"/>
      <point x="79" y="319"/>
      <point x="81" y="317" type="curve" smooth="yes"/>
      <point x="82" y="315"/>
      <point x="85" y="314"/>
      <point x="88" y="314" type="curve" smooth="yes"/>
      <point x="462" y="314" type="line"/>
      <point x="469" y="342"/>
      <point x="471" y="350"/>
      <point x="478" y="378" type="curve" smooth="yes"/>
      <point x="480" y="384"/>
      <point x="476" y="389"/>
      <point x="470" y="389" type="curve" smooth="yes"/>
    </contour>
  </outline>
</glyph>
<glyph name="yen" format="1">
  <advance width="600"/>
  <unicode hex="00A5"/>
  <outline>
    <contour>
      <point x="82" y="459" type="line"/>
      <point x="75" y="431"/>
      <point x="73" y="422"/>
      <point x="66" y="394" type="curve" smooth="yes"/>
      <point x="65" y="391"/>
      <point x="65" y="388"/>
      <point x="67" y="386" type="curve" smooth="yes"/>
      <point x="68" y="384"/>
      <point x="71" y="383"/>
      <point x="74" y="383" type="curve"/>
      <point x="246" y="383" type="line"/>
      <point x="253" y="411"/>
      <point x="256" y="420"/>
      <point x="263" y="448" type="curve" smooth="yes"/>
      <point x="264" y="454"/>
      <point x="260" y="459"/>
      <point x="254" y="459" type="curve"/>
    </contour>
    <contour>
      <point x="431" y="459" type="line"/>
      <point x="424" y="431"/>
      <point x="422" y="422"/>
      <point x="415" y="394" type="curve" smooth="yes"/>
      <point x="413" y="388"/>
      <point x="417" y="383"/>
      <point x="423" y="383" type="curve"/>
      <point x="596" y="383" type="line"/>
      <point x="602" y="411"/>
      <point x="605" y="420"/>
      <point x="612" y="448" type="curve" smooth="yes"/>
      <point x="613" y="454"/>
      <point x="609" y="459"/>
      <point x="603" y="459" type="curve"/>
    </contour>
    <contour>
      <point x="536" y="144" type="line"/>
      <point x="543" y="172"/>
      <point x="545" y="181"/>
      <point x="552" y="208" type="curve" smooth="yes"/>
      <point x="553" y="211"/>
      <point x="552" y="214"/>
      <point x="551" y="216" type="curve" smooth="yes"/>
      <point x="549" y="218"/>
      <point x="547" y="219"/>
      <point x="544" y="219" type="curve"/>
      <point x="22" y="219" type="line"/>
      <point x="15" y="192"/>
      <point x="13" y="183"/>
      <point x="6" y="155" type="curve" smooth="yes"/>
      <point x="4" y="149"/>
      <point x="8" y="144"/>
      <point x="14" y="144" type="curve"/>
    </contour>
    <contour>
      <point x="137" y="700" type="line"/>
      <point x="175" y="554"/>
      <point x="214" y="407"/>
      <point x="252" y="261" type="curve"/>
      <point x="254" y="254"/>
      <point x="260" y="252"/>
      <point x="268" y="252" type="curve"/>
      <point x="304" y="252"/>
      <point x="335" y="300"/>
      <point x="334" y="329" type="curve"/>
      <point x="306" y="448"/>
      <point x="278" y="568"/>
      <point x="250" y="687" type="curve"/>
      <point x="249" y="695"/>
      <point x="247" y="700"/>
      <point x="237" y="700" type="curve" smooth="yes"/>
    </contour>
    <contour>
      <point x="571" y="700" type="line"/>
      <point x="481" y="575"/>
      <point x="391" y="452"/>
      <point x="301" y="327" type="curve"/>
      <point x="274" y="287"/>
      <point x="273" y="264"/>
      <point x="268" y="252" type="curve"/>
      <point x="339" y="252" type="line"/>
      <point x="449" y="396"/>
      <point x="560" y="540"/>
      <point x="670" y="684" type="curve"/>
      <point x="675" y="693"/>
      <point x="672" y="700"/>
      <point x="665" y="700" type="curve"/>
    </contour>
    <contour>
      <point x="285" y="0" type="curve"/>
      <point x="293" y="32"/>
      <point x="302" y="66"/>
      <point x="310" y="100" type="curve" smooth="yes"/>
      <point x="360" y="299" type="line" smooth="yes"/>
      <point x="361" y="305"/>
      <point x="358" y="310"/>
      <point x="259" y="310" type="curve"/>
      <point x="184" y="11" type="line" smooth="yes"/>
      <point x="184" y="8"/>
      <point x="184" y="5"/>
      <point x="185" y="3" type="curve" smooth="yes"/>
      <point x="187" y="1"/>
      <point x="190" y="0"/>
      <point x="193" y="0" type="curve" smooth="yes"/>
      <point x="224" y="0"/>
      <point x="254" y="0"/>
    </contour>
  </outline>
</glyph>
<glyph name="brokenbar" format="1">
  <advance width="300"/>
  <unicode hex="00A6"/>
  <outline>
    <contour>
      <point x="222" y="760" type="curve"/>
      <point x="214" y="727"/>
      <point x="205" y="694"/>
      <point x="197" y="661" type="curve" smooth="yes"/>
      <point x="127" y="380" type="line" smooth="yes"/>
      <point x="125" y="374"/>
      <point x="129" y="369"/>
      <point x="135" y="369" type="curve" smooth="yes"/>
      <point x="165" y="369"/>
      <point x="196" y="369"/>
      <point x="227" y="369" type="curve"/>
      <point x="322" y="749" type="line" smooth="yes"/>
      <point x="323" y="752"/>
      <point x="323" y="755"/>
      <point x="321" y="757" type="curve" smooth="yes"/>
      <point x="320" y="759"/>
      <point x="317" y="760"/>
      <point x="314" y="760" type="curve" smooth="yes"/>
      <point x="283" y="760"/>
      <point x="252" y="760"/>
    </contour>
    <contour>
      <point x="90" y="231" type="curve"/>
      <point x="-6" y="-149" type="line"/>
      <point x="-7" y="-155"/>
      <point x="-3" y="-160"/>
      <point x="3" y="-160" type="curve" smooth="yes"/>
      <point x="33" y="-160"/>
      <point x="64" y="-160"/>
      <point x="95" y="-160" type="curve"/>
      <point x="190" y="220" type="line" smooth="yes"/>
      <point x="192" y="227"/>
      <point x="189" y="231"/>
      <point x="182" y="231" type="curve" smooth="yes"/>
      <point x="150" y="231"/>
      <point x="120" y="231"/>
    </contour>
  </outline>
</glyph>
<glyph name="dieresis" format="1">
  <advance width="600"/>
  <unicode hex="00A8"/>
  <outline>
    <contour>
      <point x="348" y="645" type="curve"/>
      <point x="375" y="751" type="line" smooth="yes"/>
      <point x="376" y="757"/>
      <point x="372" y="762"/>
      <point x="366" y="762" type="curve" smooth="yes"/>
      <point x="331" y="762"/>
      <point x="296" y="762"/>
      <point x="261" y="762" type="curve"/>
      <point x="234" y="656" type="line" smooth="yes"/>
      <point x="233" y="650"/>
      <point x="236" y="645"/>
      <point x="242" y="645" type="curve" smooth="yes"/>
      <point x="277" y="645"/>
      <point x="313" y="645"/>
    </contour>
    <contour>
      <point x="558" y="645" type="curve"/>
      <point x="584" y="751" type="line" smooth="yes"/>
      <point x="586" y="757"/>
      <point x="582" y="762"/>
      <point x="576" y="762" type="curve" smooth="yes"/>
      <point x="541" y="762"/>
      <point x="505" y="762"/>
      <point x="470" y="762" type="curve"/>
      <point x="444" y="656" type="line" smooth="yes"/>
      <point x="442" y="650"/>
      <point x="446" y="645"/>
      <point x="452" y="645" type="curve" smooth="yes"/>
      <point x="487" y="645"/>
      <point x="523" y="645"/>
    </contour>
  </outline>
</glyph>
<glyph name="logicalnot" format="1">
  <advance width="600"/>
  <unicode hex="00AC"/>
  <outline>
    <contour>
      <point x="110" y="434" type="line"/>
      <point x="103" y="405"/>
      <point x="97" y="383"/>
      <point x="90" y="354" type="curve" smooth="yes"/>
      <point x="89" y="351"/>
      <point x="90" y="348"/>
      <point x="91" y="346" type="curve" smooth="yes"/>
      <point x="93" y="344"/>
      <point x="95" y="343"/>
      <point x="98" y="343" type="curve"/>
      <point x="551" y="343" type="line"/>
      <point x="571" y="423" type="line"/>
      <point x="572" y="429"/>
      <point x="569" y="434"/>
      <point x="563" y="434" type="curve"/>
    </contour>
    <contour>
      <point x="500" y="140" type="curve"/>
      <point x="561" y="382" type="line" smooth="yes"/>
      <point x="562" y="388"/>
      <point x="558" y="393"/>
      <point x="552" y="393" type="curve"/>
      <point x="465" y="393" type="line"/>
      <point x="405" y="151" type="line" smooth="yes"/>
      <point x="403" y="145"/>
      <point x="407" y="140"/>
      <point x="413" y="140" type="curve" smooth="yes"/>
      <point x="444" y="140"/>
      <point x="469" y="140"/>
    </contour>
  </outline>
</glyph>
<glyph name="registered" format="1">
  <advance width="600"/>
  <unicode hex="00AE"/>
  <outline>
    <contour>
      <point x="269" y="327" type="curve"/>
      <point x="276" y="354"/>
      <point x="282" y="379"/>
      <point x="289" y="406" type="curve"/>
      <point x="338" y="602" type="line"/>
      <point x="338" y="603"/>
      <point x="339" y="608"/>
      <point x="278" y="608" type="curve"/>
      <point x="210" y="338" type="line" smooth="yes"/>
      <point x="208" y="331"/>
      <point x="211" y="327"/>
      <point x="218" y="327" type="curve" smooth="yes"/>
      <point x="235" y="327"/>
      <point x="252" y="327"/>
    </contour>
    <contour>
      <point x="263" y="635" type="curve"/>
      <point x="259" y="620"/>
      <point x="255" y="606"/>
      <point x="252" y="590" type="curve"/>
      <point x="250" y="583"/>
      <point x="253" y="579"/>
      <point x="260" y="579" type="curve"/>
      <point x="266" y="579"/>
      <point x="276" y="579"/>
      <point x="282" y="579" type="curve" smooth="yes"/>
      <point x="319" y="579"/>
      <point x="368" y="579"/>
      <point x="405" y="579" type="curve" smooth="yes"/>
      <point x="438" y="579"/>
      <point x="454" y="579"/>
      <point x="472" y="579" type="curve"/>
      <point x="481" y="614"/>
      <point x="459" y="635"/>
      <point x="416" y="635" type="curve" smooth="yes"/>
      <point x="371" y="635"/>
      <point x="307" y="635"/>
    </contour>
    <contour>
      <point x="487" y="518" type="curve" smooth="yes"/>
      <point x="495" y="550" type="line" smooth="yes"/>
      <point x="508" y="604"/>
      <point x="483" y="635"/>
      <point x="416" y="635" type="curve"/>
      <point x="407" y="635"/>
      <point x="404" y="629"/>
      <point x="405" y="579" type="curve"/>
      <point x="430" y="579"/>
      <point x="439" y="570"/>
      <point x="433" y="547" type="curve" smooth="yes"/>
      <point x="426" y="519" type="line" smooth="yes"/>
      <point x="421" y="499"/>
      <point x="403" y="486"/>
      <point x="382" y="486" type="curve" smooth="yes"/>
      <point x="359" y="486"/>
      <point x="304" y="486"/>
      <point x="286" y="486" type="curve"/>
      <point x="282" y="470"/>
      <point x="279" y="456"/>
      <point x="274" y="437" type="curve" smooth="yes"/>
      <point x="273" y="434"/>
      <point x="275" y="431"/>
      <point x="278" y="431" type="curve" smooth="yes"/>
      <point x="376" y="431" type="line" smooth="yes"/>
      <point x="432" y="431"/>
      <point x="474" y="468"/>
    </contour>
    <contour>
      <point x="405" y="471" type="line"/>
      <point x="364" y="468"/>
      <point x="348" y="451"/>
      <point x="349" y="441" type="curve" smooth="yes"/>
      <point x="359" y="368" type="line" smooth="yes"/>
      <point x="364" y="332"/>
      <point x="380" y="324"/>
      <point x="418" y="324" type="curve" smooth="yes"/>
      <point x="428" y="324" type="line" smooth="yes"/>
      <point x="436" y="324"/>
      <point x="440" y="327"/>
      <point x="442" y="335" type="curve"/>
      <point x="445" y="348"/>
      <point x="449" y="367"/>
      <point x="453" y="382" type="curve"/>
      <point x="450" y="382" type="line"/>
      <point x="441" y="382"/>
      <point x="442" y="382"/>
      <point x="432" y="382" type="curve"/>
      <point x="420" y="382"/>
      <point x="418" y="384"/>
      <point x="416" y="394" type="curve" smooth="yes"/>
    </contour>
    <contour>
      <point x="423" y="760" type="curve" smooth="yes"/>
      <point x="265" y="760"/>
      <point x="152" y="684"/>
      <point x="118" y="545" type="curve" smooth="yes"/>
      <point x="86" y="416" type="line" smooth="yes"/>
      <point x="51" y="277"/>
      <point x="124" y="201"/>
      <point x="284" y="201" type="curve" smooth="yes"/>
      <point x="289" y="211"/>
      <point x="300" y="227"/>
      <point x="297" y="255" type="curve"/>
      <point x="169" y="255"/>
      <point x="116" y="312"/>
      <point x="140" y="405" type="curve" smooth="yes"/>
      <point x="176" y="552" type="line" smooth="yes"/>
      <point x="200" y="648"/>
      <point x="282" y="706"/>
      <point x="410" y="706" type="curve" smooth="yes"/>
      <point x="453" y="706"/>
      <point x="481" y="706"/>
      <point x="517" y="706" type="curve"/>
      <point x="524" y="737"/>
      <point x="497" y="760"/>
    </contour>
    <contour>
      <point x="284" y="201" type="curve" smooth="yes"/>
      <point x="445" y="201"/>
      <point x="554" y="276"/>
      <point x="588" y="411" type="curve" smooth="yes"/>
      <point x="620" y="539" type="line" smooth="yes"/>
      <point x="656" y="682"/>
      <point x="586" y="760"/>
      <point x="423" y="760" type="curve" smooth="yes"/>
      <point x="418" y="750"/>
      <point x="407" y="735"/>
      <point x="410" y="706" type="curve"/>
      <point x="541" y="706"/>
      <point x="590" y="647"/>
      <point x="566" y="551" type="curve" smooth="yes"/>
      <point x="529" y="404" type="line" smooth="yes"/>
      <point x="506" y="311"/>
      <point x="428" y="255"/>
      <point x="297" y="255" type="curve" smooth="yes"/>
      <point x="254" y="255"/>
      <point x="226" y="255"/>
      <point x="191" y="255" type="curve"/>
      <point x="183" y="224"/>
      <point x="210" y="201"/>
    </contour>
  </outline>
</glyph>
<glyph name="degree" format="1">
  <advance width="600"/>
  <unicode hex="00B0"/>
  <outline>
    <contour>
      <point x="343" y="440" type="curve"/>
      <point x="282" y="440"/>
      <point x="256" y="469"/>
      <point x="268" y="518" type="curve" smooth="yes"/>
      <point x="279" y="560" type="line" smooth="yes"/>
      <point x="291" y="609"/>
      <point x="334" y="638"/>
      <point x="393" y="638" type="curve" smooth="yes"/>
      <point x="432" y="638"/>
      <point x="450" y="635"/>
      <point x="474" y="625" type="curve"/>
      <point x="494" y="669"/>
      <point x="473" y="710"/>
      <point x="411" y="710" type="curve"/>
      <point x="308" y="710"/>
      <point x="227" y="653"/>
      <point x="205" y="564" type="curve" smooth="yes"/>
      <point x="193" y="514" type="line" smooth="yes"/>
      <point x="170" y="424"/>
      <point x="222" y="368"/>
      <point x="325" y="368" type="curve"/>
      <point x="334" y="368"/>
      <point x="344" y="406"/>
    </contour>
    <contour>
      <point x="393" y="638" type="curve"/>
      <point x="454" y="638"/>
      <point x="480" y="609"/>
      <point x="468" y="560" type="curve" smooth="yes"/>
      <point x="458" y="518" type="line" smooth="yes"/>
      <point x="445" y="469"/>
      <point x="403" y="440"/>
      <point x="343" y="440" type="curve" smooth="yes"/>
      <point x="305" y="440"/>
      <point x="287" y="443"/>
      <point x="263" y="453" type="curve"/>
      <point x="242" y="409"/>
      <point x="263" y="368"/>
      <point x="325" y="368" type="curve"/>
      <point x="429" y="368"/>
      <point x="509" y="424"/>
      <point x="531" y="514" type="curve" smooth="yes"/>
      <point x="544" y="564" type="line" smooth="yes"/>
      <point x="566" y="653"/>
      <point x="514" y="710"/>
      <point x="411" y="710" type="curve"/>
      <point x="398" y="710"/>
      <point x="390" y="674"/>
    </contour>
  </outline>
</glyph>
